STARTFONT 2.1
COMMENT @(#)06  1.2  src/bos/usr/lpp/tls/fonts/Chtp323.bdf, cmdtw, bos411, 9428A410j 5/19/94 06:25:57
COMMENT
COMMENT COMPONENT_NAME: CMDTW
COMMENT
COMMENT FUNCTIONS: none
COMMENT
COMMENT ORIGINS: 27
COMMENT
COMMENT
COMMENT (C) COPYRIGHT International Business Machines Corp. 1993
COMMENT All Rights Reserved
COMMENT Licensed Materials - Property of IBM
COMMENT US Government Users Restricted Rights - Use, duplication or
COMMENT disclosure restricted by GSA ADP Schedule Contract with IBM Corp.
COMMENT
FONT -IBM_AIX-Sung-Medium-R-Normal--35-230-100-100-M-340-CNS11643.1992-3
SIZE 35 100 100
FONTBOUNDINGBOX 34 35 0 -4
STARTPROPERTIES 23
FONTNAME_REGISTRY "_"
_FOUNDRY "IBM_AIX "
FAMILY_NAME "Sung"
_WEIGHT_NAME "Medium "
SLANT "R"
SETWIDTH_NAME "Normal"
ADD_STYLE_NAME ""
PIXEL_SIZE 35
POINT_SIZE 230
RESOLUTION_X 100
RESOLUTION_Y 100
SPACING "M"
AVERAGE_WIDTH 340
CHARSET_REGISTRY "CNS11643.1992"
CHARSET_ENCODING "3"
FONT_ASCENT 31
FONT_DESCENT 4
DEFAULT_CHAR 0
CAP_HEIGHT 35
COPYRIGHT "Copyright, 1993 by IBM."
FOUNDRY "IBM_AIX"
WEIGHT_NAME "Medium"
X_HEIGHT 31
ENDPROPERTIES
CHARS 6148
STARTCHAR 2121
ENCODING 8481
SWIDTH 1020 0
DWIDTH 34 0
BBX 34 35 0 -4
BITMAP
0000000000
0000000000
0001000000
0001e00000
0001800000
0001800000
0001800000
0001800000
0001800000
0001800000
0001800000
0001800000
0001800000
0001800000
0001800000
0001800000
0001800000
0001800000
0001800000
0001800000
0001800000
0001800000
0001800000
0001800000
0001800000
0001800000
0001800000
0001800000
0001800000
0001800000
0001800000
0001000000
0000000000
0000000000
0000000000
ENDCHAR
STARTCHAR 2122
ENCODING 8482
SWIDTH 1020 0
DWIDTH 34 0
BBX 34 35 0 -4
BITMAP
0000000000
0000000000
0000000000
0000000000
0000000000
0000000000
0000000000
0000000000
0000000000
0000000000
0000000000
0000000000
0018000000
0004000000
0003000000
0001800000
0000c00000
0000600000
0000700000
0000300000
0000380000
0000100000
0000000000
0000000000
0000000000
0000000000
0000000000
0000000000
0000000000
0000000000
0000000000
0000000000
0000000000
0000000000
0000000000
ENDCHAR
STARTCHAR 2123
ENCODING 8483
SWIDTH 1020 0
DWIDTH 34 0
BBX 34 35 0 -4
BITMAP
0000000000
0000000000
0000800000
0000e00000
0000e00000
0000c00000
0000c00000
0000c00000
0000c00000
0000c00000
0000c00000
0000c00000
0000c00000
0000c00000
0000c00000
0000c00000
0000c00000
0000c00000
0000c00000
0000c00000
0001800000
0001800000
0001800000
0003000000
0003000000
0006000000
000c000000
0018000000
0030000000
0040000000
0380000000
0000000000
0000000000
0000000000
0000000000
ENDCHAR
STARTCHAR 2124
ENCODING 8484
SWIDTH 1020 0
DWIDTH 34 0
BBX 34 35 0 -4
BITMAP
0000000000
0000800000
0000e00000
0000e00000
0000c00000
0000c00000
0000c00000
0000c00000
0000c00000
0000c00000
0000c00000
0000c00000
0000c00000
0000c00000
0000c00000
0000c00000
0000c00000
0000c00000
0000c00000
0000c00000
0000c00000
0000c00000
0000c00000
0000c00000
0000c00000
0000c00000
0000c00000
0000c00000
0001c00000
003fc00000
0003000000
0000000000
0000000000
0000000000
0000000000
ENDCHAR
STARTCHAR 2125
ENCODING 8485
SWIDTH 1020 0
DWIDTH 34 0
BBX 34 35 0 -4
BITMAP
0000000000
0000000000
0000000000
0000000800
0000001c00
7ffffffe00
0003000000
0003000000
0003000000
0003000000
0003000000
0003000000
0003000000
0003000000
0003000000
0003000000
0003000000
0003000000
0003000000
0003000000
0003000000
0003000000
0003000000
0003000000
0003000000
0003000000
0003000000
0003000000
0003000000
0003000000
0003000000
0002000000
0000000000
0000000000
0000000000
ENDCHAR
STARTCHAR 2126
ENCODING 8486
SWIDTH 1020 0
DWIDTH 34 0
BBX 34 35 0 -4
BITMAP
0000000000
0000000000
0001000000
0001c00000
0001800000
0001800000
0001800000
0001800000
0001800000
0001800000
0001800000
0001800000
0001800000
0001800000
0001800000
0001800000
0001800000
0001800000
0001800000
0001800000
0001800000
0001800000
0001800000
0001800000
0001800000
0001800000
0001800000
0001800400
0001800e00
ffffffff00
0000000000
0000000000
0000000000
0000000000
0000000000
ENDCHAR
STARTCHAR 2127
ENCODING 8487
SWIDTH 1020 0
DWIDTH 34 0
BBX 34 35 0 -4
BITMAP
0000000000
0000000000
0000002000
0800007000
0ffffff800
0c00003000
0c00003000
0c00003000
0c00003000
0c00003000
0c00003000
0c00003000
0c00003000
0c00003000
0c00003000
0c00003000
0c00003000
0c00003000
0c00003000
0c00003000
0c00003000
0c00003000
0c00003000
0c00003000
0c00003000
0c00003000
0c00003000
0c00003000
0c00003000
0c00003000
0c000ff000
080000e000
0000004000
0000000000
0000000000
ENDCHAR
STARTCHAR 2128
ENCODING 8488
SWIDTH 1020 0
DWIDTH 34 0
BBX 34 35 0 -4
BITMAP
0000000000
0000000000
0000000000
0000000000
0000000000
0000000000
0000000000
0000000000
0000000000
0000000000
0000000800
0800001c00
0ffffffe00
0800001c00
1800001800
1800003000
3000002000
1000004000
0000000000
0000000000
0000000000
0000000000
0000000000
0000000000
0000000000
0000000000
0000000000
0000000000
0000000000
0000000000
0000000000
0000000000
0000000000
0000000000
0000000000
ENDCHAR
STARTCHAR 2129
ENCODING 8489
SWIDTH 1020 0
DWIDTH 34 0
BBX 34 35 0 -4
BITMAP
0000000000
0000000000
0000000000
0000000000
0000000800
0000001c00
7ffffffe00
0c00000000
0c00000000
0c00000000
0c00000000
0c00000000
0c00000000
0c00000000
0c00000000
0c00000000
0c00000000
0c00000000
0c00000000
0c00000000
0c00000000
0c00000000
0c00000000
0c00000000
0c00000000
0c00000000
0e00000000
07fffff800
03fffffc00
0000000000
0000000000
0000000000
0000000000
0000000000
0000000000
ENDCHAR
STARTCHAR 212a
ENCODING 8490
SWIDTH 1020 0
DWIDTH 34 0
BBX 34 35 0 -4
BITMAP
0000000000
0000000000
0000010000
0020038000
003fffc000
0030018000
0030018000
0030018000
0030018000
0030018000
0030018000
0030018000
0030018000
0030018000
0030018000
0030018000
0030018000
0030018000
0030018000
0030638000
00301f0000
0030060000
0030000000
0030000000
0030000000
0030000000
0030000000
0030000000
0030000000
0030000000
0030000000
0030000000
0030000000
0000000000
0000000000
ENDCHAR
STARTCHAR 212b
ENCODING 8491
SWIDTH 1020 0
DWIDTH 34 0
BBX 34 35 0 -4
BITMAP
0000000000
0000000000
0000000000
0000000000
0002000000
0007c00000
0007000000
0006000000
0006000000
0006000000
000c000000
000c000000
000c000000
0018000000
0018000000
0010000000
0030020000
0020010000
0060008000
004000c000
00c0006000
0080003000
01000ff000
07fff03800
1ff8001800
0c00001800
0000000800
0000000000
0000000000
0000000000
0000000000
0000000000
0000000000
0000000000
0000000000
ENDCHAR
STARTCHAR 212c
ENCODING 8492
SWIDTH 1020 0
DWIDTH 34 0
BBX 34 35 0 -4
BITMAP
0000000000
0000000000
0001000000
0003c00000
0003800000
0003800000
0006400000
0006200000
000c300000
0018180000
00300c0000
0060060000
00c1030000
0181c1c000
030180f000
0c01803c00
3001801e00
4001800000
0001800000
0001800000
0001800000
0001800000
0001800000
0001800000
0001800000
0001800000
0001800000
0001800000
0001800000
0001800000
0001800000
0001000000
0000000000
0000000000
0000000000
ENDCHAR
STARTCHAR 212d
ENCODING 8493
SWIDTH 1020 0
DWIDTH 34 0
BBX 34 35 0 -4
BITMAP
0000000000
0000000000
0100000000
01e0000000
0180000000
0180000000
0180001000
0300003800
03fffffc00
0300600000
0600600000
0600600000
0c00600000
0c00600000
1800600000
3000600000
2000600000
0000600000
0000600000
0000600000
0000600000
0000600000
0000600000
0000600000
0000600000
0000600000
0000600000
0000600000
0000600000
001fe00000
0001c00000
0000800000
0000000000
0000000000
0000000000
ENDCHAR
STARTCHAR 212e
ENCODING 8494
SWIDTH 1020 0
DWIDTH 34 0
BBX 34 35 0 -4
BITMAP
0000000000
0000000000
0000000000
0000008000
040000f000
040000c000
020000c000
0204008000
0102018000
0103018000
0101010000
0081830000
0080860000
0040c40000
00408c0000
0020080000
0010180000
0010300000
0008200000
0004400000
0002c00000
0003800000
0003c00000
0006600000
000c380000
00300e0000
0060078000
018001f000
0600007e00
1800000c00
6000000000
0000000000
0000000000
0000000000
0000000000
ENDCHAR
STARTCHAR 212f
ENCODING 8495
SWIDTH 1020 0
DWIDTH 34 0
BBX 34 35 0 -4
BITMAP
0000000000
0000000000
0000000000
0003c00000
0003800000
0006000000
0004000000
0048080000
00300c0000
003ffe0000
00200c0000
00200c0000
00200c0000
00200c0000
00200c0000
00200c0000
00200c0000
00200c0000
00200c0000
00200c0000
00600c0000
00600c0400
00600c0400
00400c0400
00c00c0400
00800c0400
01800c0400
03000c0400
06000c0e00
080007fe00
7000000000
2000000000
0000000000
0000000000
0000000000
ENDCHAR
STARTCHAR 2130
ENCODING 8496
SWIDTH 1020 0
DWIDTH 34 0
BBX 34 35 0 -4
BITMAP
0000000000
0000000000
0000000000
0010040000
001e030000
001c060000
0018060000
0010060000
0010060000
0030040000
0030040000
0020040000
00600c0000
0040080000
0040080000
0080180000
07fff00000
07f0300000
0200200000
0000600000
0000c00000
0001a00000
0003100000
0006080000
000c060000
0010030000
006001c000
00c000f000
0700007c00
0800001800
0000000000
0000000000
0000000000
0000000000
0000000000
ENDCHAR
STARTCHAR 2131
ENCODING 8497
SWIDTH 1020 0
DWIDTH 34 0
BBX 34 35 0 -4
BITMAP
0000000000
0000000000
0000000000
0000004000
080000e000
07fffff000
0000000000
0000000000
0000000000
0000000000
0000001800
3ffffffe00
2030000000
0020000000
0060000000
0040000000
00c0004000
018000e000
01fffff000
030000c000
030000c000
060000c000
000000c000
0000008000
0000018000
0000018000
0000030000
0000030000
0070060000
000ffc0000
0000780000
0000400000
0000000000
0000000000
0000000000
ENDCHAR
STARTCHAR 2132
ENCODING 8498
SWIDTH 1020 0
DWIDTH 34 0
BBX 34 35 0 -4
BITMAP
0000000000
0000000000
0000000000
0000000000
0000000000
0000000000
0000000000
0001800000
0003c00000
0003800000
0006400000
000c200000
0018100000
00300c0000
0060060000
00c0038000
018001e000
0600007800
1800023e00
6000070800
01ffff8000
0000000000
0000000000
0000000000
0000000000
0000000000
0000000000
0000000000
0000000000
0000000000
0000000000
0000000000
0000000000
0000000000
0000000000
ENDCHAR
STARTCHAR 2133
ENCODING 8499
SWIDTH 1020 0
DWIDTH 34 0
BBX 34 35 0 -4
BITMAP
0000000000
0000000000
0000000000
3001000000
3c00e00000
3000800000
3000800000
3000800000
3001800000
3001800000
3001c00000
3001c00000
3001c00000
3001a00000
3003200000
3003300000
3003180000
3006180000
30060c0000
300c060000
3018030000
303003c000
302001e000
30c000f800
3180002000
3200000000
3000000000
1800000000
1fc003fc00
07fffffc00
0000000000
0000000000
0000000000
0000000000
0000000000
ENDCHAR
STARTCHAR 2134
ENCODING 8500
SWIDTH 1020 0
DWIDTH 34 0
BBX 34 35 0 -4
BITMAP
0000000000
0000000000
0000000000
2000600000
380ff00000
3000300000
3000600000
3000600000
3000600000
3000e00000
3000e00000
3000a00000
3001b00000
3001100000
3003100000
3002180000
3006080000
30040c0000
300c060000
3018070000
3030038000
302001c000
304000e000
3080007800
3300003c00
3600001000
3000000000
3000000000
1e0000fc00
07fffffe00
0000000000
0000000000
0000000000
0000000000
0000000000
ENDCHAR
STARTCHAR 2135
ENCODING 8501
SWIDTH 1020 0
DWIDTH 34 0
BBX 34 35 0 -4
BITMAP
0000000000
0000000000
0000000000
0001c00000
0001800000
0001800000
0001800000
0041880000
00218c0000
003ffe0000
00300c0000
00300c0000
00300c0000
00300c0000
00200c0000
00200c0000
00200c0000
00200c0000
00200c0000
00200c0000
00600c0000
00600c0400
00600c0400
00400c0400
00c00c0400
01800c0400
01000c0400
03000c0400
06000c0e00
080007fe00
7000000000
2000000000
0000000000
0000000000
0000000000
ENDCHAR
STARTCHAR 2136
ENCODING 8502
SWIDTH 1020 0
DWIDTH 34 0
BBX 34 35 0 -4
BITMAP
0000000000
0000000000
0000000000
0000000000
0000006000
3ffffff000
0002006000
0002006000
0002006000
0002006000
0c02006000
0402006000
0202006000
0102006000
0186006000
0084004000
0044004000
0024004000
001c004000
0008004000
000e004000
0019004000
0010e0c000
002038c000
00600ec000
00c003f000
008000fe00
0300018800
0600018000
1800ff0000
60000e0000
0000000000
0000000000
0000000000
0000000000
ENDCHAR
STARTCHAR 2137
ENCODING 8503
SWIDTH 1020 0
DWIDTH 34 0
BBX 34 35 0 -4
BITMAP
0000000000
0000000000
0180200000
00c0380000
0080300000
0080300000
0080300000
0080300000
4083300000
3fffb00000
0083300000
0083300000
0083300000
0183300000
0182300000
0182300000
0182300000
0102300000
0102300000
0102300000
0302300000
0302300000
0202300400
0206300400
0606300800
0406300800
0404300800
0804300800
088c300c00
10781ffe00
203003f000
0000000000
0000000000
0000000000
0000000000
ENDCHAR
STARTCHAR 2138
ENCODING 8504
SWIDTH 1020 0
DWIDTH 34 0
BBX 34 35 0 -4
BITMAP
0000000000
0000000000
0000000000
00e00f0000
00f00e0000
00c00c0000
00c00c0000
00c00c0000
00c00c0000
00c00c0000
00c00c0000
00c00c0000
00c00c0000
00c00c0000
00c00c0800
40c00c1e00
7ffffffe00
00c00c0000
00c00c0000
00c00c0000
00c00c0000
00c00c0000
00c00c0000
00c00c0000
00c00c0000
00c00c0000
00c00c0000
00c00c0000
00c00c0000
00c00c0000
00c00c0000
0000000000
0000000000
0000000000
0000000000
ENDCHAR
STARTCHAR 2139
ENCODING 8505
SWIDTH 1020 0
DWIDTH 34 0
BBX 34 35 0 -4
BITMAP
0000000000
0000000000
0004000000
000f000000
000c000000
0008000000
0018000000
0018000000
0030018000
003fffc000
006003c000
0060030000
00e0070000
0190060000
0310060000
06180c0000
0c080c0000
1004180000
2004180000
0002300000
0003600000
0001600000
0000c00000
0001e00000
0003300000
000c1c0000
00180e0000
006003c000
01c000f800
0700003e00
1800000c00
6000000000
0000000000
0000000000
0000000000
ENDCHAR
STARTCHAR 213a
ENCODING 8506
SWIDTH 1020 0
DWIDTH 34 0
BBX 34 35 0 -4
BITMAP
0000000000
0000000000
0004000000
000f000000
000c000000
000c000000
0008000000
0018008000
001801c000
00bfffe000
00a0018000
0060010000
0040030000
00e0030000
01a0060000
0310060000
02100c0000
04080c0000
0804180000
1802300000
0003300000
0001600000
0000c00000
0001e00000
0003300000
00061c0000
0018070000
0070038000
01c000f000
0300007e00
1c00001c00
2000000000
0000000000
0000000000
0000000000
ENDCHAR
STARTCHAR 213b
ENCODING 8507
SWIDTH 1020 0
DWIDTH 34 0
BBX 34 35 0 -4
BITMAP
0000000000
0000000000
0000000000
0000000000
0000000000
0000000000
0000000000
0000000000
0001c00000
0001c00000
0001800000
0801800000
0801800c00
0ffffffe00
1800000800
1000001000
3000003000
7000002000
2000000000
0000000000
0000000000
0000000000
0000000000
0000000000
0000000000
0000000000
0000000000
0000000000
0000000000
0000000000
0000000000
0000000000
0000000000
0000000000
0000000000
ENDCHAR
STARTCHAR 213c
ENCODING 8508
SWIDTH 1020 0
DWIDTH 34 0
BBX 34 35 0 -4
BITMAP
0000000000
0000000000
0000000000
0080400000
00e0703800
00c0603c00
0080403000
0080402000
0180c06000
0180c06000
0100804000
030180c000
0201008000
0603018000
0402010000
08040a0000
180c060000
0804060000
0806030000
0402010000
0201008000
030180c000
0100c06000
0180c06000
00c0603000
00c0603800
00e0301800
0060301800
0060301c00
0020100800
0000000000
0000000000
0000000000
0000000000
0000000000
ENDCHAR
STARTCHAR 213d
ENCODING 8509
SWIDTH 1020 0
DWIDTH 34 0
BBX 34 35 0 -4
BITMAP
0000000000
0000000000
0000000000
0001800000
0003c00000
0003000000
0003000000
0006000000
0006000000
0004030000
000c078000
0218060000
0190060000
00e00c0000
0060080000
0030180000
0018300000
001c300000
000c600000
000e400000
0006840000
0001820000
0003030000
0006018000
000c00c000
0018004000
0030006000
0061ffb000
0fffe03000
07c0001000
0400001000
0000000000
0000000000
0000000000
0000000000
ENDCHAR
STARTCHAR 213e
ENCODING 8510
SWIDTH 1020 0
DWIDTH 34 0
BBX 34 35 0 -4
BITMAP
0000000000
0000000000
0001000000
0001c00000
0001800000
0801801800
0ffffffc00
0c00000000
0c00000000
0c00000000
0c00000000
0c00000000
0c00000000
0c00000000
0c00000000
0400000000
0c00000000
0c00000000
0c00000000
0c00000000
0c00000000
0c00000000
0c00000000
0800000000
0800000000
0800000000
0800000000
1800000000
1000000000
2000000000
2000000000
0000000000
0000000000
0000000000
0000000000
ENDCHAR
STARTCHAR 213f
ENCODING 8511
SWIDTH 1020 0
DWIDTH 34 0
BBX 34 35 0 -4
BITMAP
0000000000
0000000000
0000000000
0040000000
3fe0000000
00c0000000
0180000000
0180000000
0100000000
0300000000
0200000000
0600000000
0420000000
0ff0000000
0860000000
1860000000
0040000000
0040000000
0040000000
10c0000000
0880000000
0880000000
0580000000
0700000000
0300000000
02c0000000
0470000000
0c1e000000
1807f80000
10007ffe00
2000007800
0000000000
0000000000
0000000000
0000000000
ENDCHAR
STARTCHAR 2140
ENCODING 8512
SWIDTH 1020 0
DWIDTH 34 0
BBX 34 35 0 -4
BITMAP
0000000000
0000000000
0000000000
0000000000
0000000000
0000008000
080000c000
07ffffe000
000000c000
000000c000
000000c000
000000c000
000000c000
000000c000
000000c000
000000c000
0fffffc000
000000c000
000000c000
000000c000
000000c000
000000c000
000000c000
000000c000
000000c800
400000dc00
3ffffffe00
0000000000
0000000000
0000000000
0000000000
0000000000
0000000000
0000000000
0000000000
ENDCHAR
STARTCHAR 2141
ENCODING 8513
SWIDTH 1020 0
DWIDTH 34 0
BBX 34 35 0 -4
BITMAP
0000000000
0000000000
0000000000
001e000000
0018000000
0018000000
0010000000
0010000000
0010020000
003fff0000
0030038000
0020020000
0020060000
0020060000
0060060000
0060040000
0040040000
00c00c0000
00c00c0000
00c00c0000
0080080000
01fff80000
0180080000
0180180000
0000180000
0000100000
0000100000
0000301800
4000301c00
3ffffffe00
0000000000
0000000000
0000000000
0000000000
0000000000
ENDCHAR
STARTCHAR 2142
ENCODING 8514
SWIDTH 1020 0
DWIDTH 34 0
BBX 34 35 0 -4
BITMAP
0000000000
0000000000
0000080000
00001e0000
0000380000
0000700000
0000e00000
0001800000
0003000000
000c020000
0078030000
03c0078000
00000c0000
0000180000
0000300000
0000600000
0000c00000
0003008000
000c00c000
007801e000
0380038000
0000030000
00000e0000
00001c0000
0000300000
0000600000
0001800000
0006000000
001c000000
00e0000000
0f00000000
0000000000
0000000000
0000000000
0000000000
ENDCHAR
STARTCHAR 2143
ENCODING 8515
SWIDTH 1020 0
DWIDTH 34 0
BBX 34 35 0 -4
BITMAP
0000000000
0000000000
0010100000
0010180000
001ffc0000
0018100000
0018300000
0018200000
0018200000
0018400000
0018400000
0018800000
0018800000
0019800000
0018400000
0018200000
0018100000
0018180000
0018080000
00180c0000
00180c0000
00180c0000
00180c0000
00180c0000
001a180000
0019f80000
0018600000
0018000000
0018000000
0018000000
0018000000
0000000000
0000000000
0000000000
0000000000
ENDCHAR
STARTCHAR 2144
ENCODING 8516
SWIDTH 1020 0
DWIDTH 34 0
BBX 34 35 0 -4
BITMAP
0000000000
0000000000
0000200000
00003a0000
0000210000
0000208000
000020c000
0000204800
4000201c00
3ffffffe00
0000200000
0000200000
0000200000
0200600000
0100600000
0180600000
0080400000
0040c00000
0020c00000
0020800000
0011800000
0009000000
0007000000
0002000000
0005800000
001c600000
0030380000
00600e0000
018007e000
060001fc00
3800003800
0000000000
0000000000
0000000000
0000000000
ENDCHAR
STARTCHAR 2145
ENCODING 8517
SWIDTH 1020 0
DWIDTH 34 0
BBX 34 35 0 -4
BITMAP
0000000000
0000000000
0080000000
00e0380000
00f0300000
00c0300000
0180300000
0180300000
0100300000
0300300000
420c300000
240f300000
180c300000
0c08300000
0618300000
0718300000
0330300000
0130300000
0020300000
0060300000
00c0300000
0088300000
0184300800
0102300800
0203300800
041f300800
0ff1300800
7f01b00800
3001300c00
20001ffe00
000007e000
0000000000
0000000000
0000000000
0000000000
ENDCHAR
STARTCHAR 2146
ENCODING 8518
SWIDTH 1020 0
DWIDTH 34 0
BBX 34 35 0 -4
BITMAP
0000000000
0000000000
0000400000
0100700000
01c0600000
0180600000
0180600000
0180600000
0180600000
2190600000
398e600000
318c600000
318c600000
318c600000
318c600000
318c600000
318c600000
318c600000
318c600000
318c600000
318c600000
318c600000
318c600000
318c600400
318c600400
3ffc600400
3008600400
3008600400
3000600400
20003ffe00
00000ff800
0000000000
0000000000
0000000000
0000000000
ENDCHAR
STARTCHAR 2147
ENCODING 8519
SWIDTH 1020 0
DWIDTH 34 0
BBX 34 35 0 -4
BITMAP
0000000000
0000000000
0001000000
0001e00000
0001800000
0001800000
0001800800
4001801e00
3ffffffe00
0030060000
0030060000
0030060000
0030060000
0030060000
0030060000
0030060000
0030060000
0030060000
0020060000
0020060000
0020060000
0060060000
0040060000
0040060000
00c0060000
0080060000
0100060000
0300060000
0600060000
0c00060000
1000040000
2000040000
0000000000
0000000000
0000000000
ENDCHAR
STARTCHAR 2148
ENCODING 8520
SWIDTH 1020 0
DWIDTH 34 0
BBX 34 35 0 -4
BITMAP
0000000000
0000000000
0001000000
0001c00000
0001800000
0001800000
0001800000
1001801000
1ffffffc00
1801803000
1801003000
1803003000
1803003000
1803803000
1802403000
1806603000
1806303000
180c183000
18080c3000
18180e3000
1830063000
1860073000
18c0033000
1900033000
1a00003000
1800003000
1800003000
1800003000
1800003000
180007f000
1800007000
0800000000
0000000000
0000000000
0000000000
ENDCHAR
STARTCHAR 2149
ENCODING 8521
SWIDTH 1020 0
DWIDTH 34 0
BBX 34 35 0 -4
BITMAP
0000000000
0000000000
0080000000
01e0000000
0180000000
0180000000
0100003000
033ffff800
0204003000
0604002000
0604006000
0f04006000
0e02004000
1e0200c000
360200c000
2601008000
4601018000
0600810000
0600830000
0600c20000
0600460000
0600240000
06003c0000
0600180000
06003c0000
0600660000
0600c30000
060101c000
060600f000
0608003c00
0630001c00
0240000000
0000000000
0000000000
0000000000
ENDCHAR
STARTCHAR 214a
ENCODING 8522
SWIDTH 1020 0
DWIDTH 34 0
BBX 34 35 0 -4
BITMAP
0000000000
0000000000
0040000000
0078100000
00601e0000
0040180000
00c0180000
0080100000
0180300000
0100300000
0300200000
0700200000
0780200000
0b00600000
1300400000
2300400000
4300400000
0300810000
0300808000
0300804000
0301002000
0301003000
0301001000
0302001800
0302000c00
0302003c00
03021fce00
033ff80600
033e000600
0310000600
0300000000
0300000000
0000000000
0000000000
0000000000
ENDCHAR
STARTCHAR 214b
ENCODING 8523
SWIDTH 1020 0
DWIDTH 34 0
BBX 34 35 0 -4
BITMAP
0000000000
0000000000
0000000000
00e01c0000
00c0080000
00c0080000
00c0080000
00c0080000
00c0080000
0080180000
0080180000
0080180000
00801c0000
00801c0000
00801c0000
01801c0000
0180120000
0180120000
0140320000
0120310000
0310210000
0218618000
020c408000
040cc0c000
0404804000
0801806000
0803003000
1006001800
200c001c00
4030000f00
40c0000400
0000000000
0000000000
0000000000
0000000000
ENDCHAR
STARTCHAR 214c
ENCODING 8524
SWIDTH 1020 0
DWIDTH 34 0
BBX 34 35 0 -4
BITMAP
0000000000
0000000000
0002000000
0003c00000
0003000000
0003000000
0003000000
0002800000
0006800000
0004400000
000c600000
0018300000
00301c0000
0060070000
018003e000
070200fe00
1803c01800
6003000000
0003000000
0003000000
0003000000
0006800000
0006800000
000c400000
0018200000
0010300000
00200c0000
00c0070000
018003c000
0e0000fe00
3000003800
4000000000
0000000000
0000000000
0000000000
ENDCHAR
STARTCHAR 214d
ENCODING 8525
SWIDTH 1020 0
DWIDTH 34 0
BBX 34 35 0 -4
BITMAP
0000000000
0000000000
0000000000
0100008000
01ffffc000
018001c000
0180018000
0180018000
0180018000
0180018000
0180019000
318001bc00
1ffffffc00
0180018000
0180018000
0180018000
0180018000
0180018c00
7ffffffe00
4180018000
0180018000
0180018000
0180018000
0180018000
0180018000
0180018000
0180018000
0180018000
01807f8000
01800f0000
0180020000
0000000000
0000000000
0000000000
0000000000
ENDCHAR
STARTCHAR 214e
ENCODING 8526
SWIDTH 1020 0
DWIDTH 34 0
BBX 34 35 0 -4
BITMAP
0000000000
0000000000
0000000000
0400002000
07fffff000
0601806000
0601806000
0601806000
0601806000
0601806000
0601806000
0601806000
0601806000
0601806000
0601806000
0601806000
07ffffe000
0600006000
0600006000
0600006000
0600006000
0600006000
0600006000
0600006000
0600006000
0600006000
0600006000
0600006000
0600106000
06000fe000
060001c000
0200000000
0000000000
0000000000
0000000000
ENDCHAR
STARTCHAR 214f
ENCODING 8527
SWIDTH 1020 0
DWIDTH 34 0
BBX 34 35 0 -4
BITMAP
0000000000
0000000000
0000000000
0400000800
0400000c00
03fffffe00
0400001800
0400001000
0c00002000
1800004000
1000000000
0030100000
00381c0000
0030180000
0010180000
0030180000
0030180000
0030180000
0030180000
0030180000
0020180000
0020180000
0060180400
0060180400
00c0180400
0080180400
0180180400
0300180400
0c001e3e00
30000ffc00
4000000000
0000000000
0000000000
0000000000
0000000000
ENDCHAR
STARTCHAR 2150
ENCODING 8528
SWIDTH 1020 0
DWIDTH 34 0
BBX 34 35 0 -4
BITMAP
0000000000
0000000000
0000000000
1000000800
1800001c00
043ffffe00
02000c0000
03000c0000
01000c0000
00200c0000
00400c0000
00400c0000
00800c0000
00800c0000
00800c0000
01000c0000
01000c0000
02000c0000
02000c0000
06000c0000
04000c0000
0c000c0000
7c000c0000
0c000c0000
0c000c0000
0c000c0000
0c000c0000
0c000c0000
0c060c0000
0401fc0000
0000380000
0000000000
0000000000
0000000000
0000000000
ENDCHAR
STARTCHAR 2151
ENCODING 8529
SWIDTH 1020 0
DWIDTH 34 0
BBX 34 35 0 -4
BITMAP
0000000000
0000000000
0000008000
080000c000
0fffffe000
0c0000c000
0c00008000
0c00008000
0c00088000
0cfffc8000
0ca00e8000
0c20188000
0c10188000
0c1010c000
0c1030c000
0c1030c000
0c0820c000
0c0860c000
0c04404000
0c06c04000
0802804000
0801804000
0803806200
0806c02200
180c702200
1810383200
10600f1200
108007de00
2300018e00
2000000e00
4000000600
0000000000
0000000000
0000000000
0000000000
ENDCHAR
STARTCHAR 2152
ENCODING 8530
SWIDTH 1020 0
DWIDTH 34 0
BBX 34 35 0 -4
BITMAP
0000000000
0000000000
0000000000
0000008000
0fffffc000
000c018000
000c018000
000c018000
000c018000
000c018000
0c0c018000
020c01c000
010c01a000
0088019000
00c8019800
0068010c00
0038010c00
0018010400
0010010000
0010010000
0030030000
0020030000
0040030000
0040030000
0080020000
0100060000
0300060000
04000e0000
080fbc0000
1000780000
6000200000
0000000000
0000000000
0000000000
0000000000
ENDCHAR
STARTCHAR 2153
ENCODING 8531
SWIDTH 1020 0
DWIDTH 34 0
BBX 34 35 0 -4
BITMAP
0000000000
0000000000
0006000000
0007000000
0006000000
0006000000
0006000000
0006000000
0006004000
1fffffe000
000600e000
000600c000
000600c000
000400c000
000400c000
008400e000
008400d000
010c00d800
030c00cc00
0e0800cc00
1c1800c600
0018008000
0030008000
0020008000
0060008000
00c0008000
0180018000
0100010000
0601c30000
0c003f0000
10000c0000
0000000000
0000000000
0000000000
0000000000
ENDCHAR
STARTCHAR 2154
ENCODING 8532
SWIDTH 1020 0
DWIDTH 34 0
BBX 34 35 0 -4
BITMAP
0000000000
0000000000
0000080000
00000e0000
000c080000
3ffc080000
1008080000
0818080000
0818080000
0818080c00
0819fffe00
0818080c00
0810080c00
0810080c00
0410080c00
0430080c00
0430180800
0420180800
0220180800
0260100800
0360100800
0140300800
01c0200800
00c0200800
01c0601800
0360c01800
0238801800
0419001000
0803043000
100403f000
601800c000
0010000000
0000000000
0000000000
0000000000
ENDCHAR
STARTCHAR 2155
ENCODING 8533
SWIDTH 1020 0
DWIDTH 34 0
BBX 34 35 0 -4
BITMAP
0000000000
0000000000
00c0000000
00f0000000
00c0000000
00c0000000
0180000000
0180000c00
01fffffe00
0300000c00
0207000c00
0606000800
0406000800
0806000800
1806000800
3006000800
2006000800
400e000800
000d000800
000d000800
0019800800
0018c01800
0030601800
0030701800
0040381000
00801f9000
0300063000
0600003000
1800006000
00003fe000
000003c000
0000000000
0000000000
0000000000
0000000000
ENDCHAR
STARTCHAR 2156
ENCODING 8534
SWIDTH 1020 0
DWIDTH 34 0
BBX 34 35 0 -4
BITMAP
0000000000
0000000000
0040000000
00f0000000
00c0000000
00c0000000
0080000000
0180000c00
01fffffe00
0300000800
0200000800
0600000800
0440000800
0838000800
1807000800
1001e00800
2000780800
4000380800
0000000800
0000001800
0000061800
0000781800
000fc01800
07fc001000
03c0001000
0200003000
0000003000
0000003000
0000006000
00007fe000
000007c000
0000000000
0000000000
0000000000
0000000000
ENDCHAR
STARTCHAR 2157
ENCODING 8535
SWIDTH 1020 0
DWIDTH 34 0
BBX 34 35 0 -4
BITMAP
0000000000
0000000000
0000000000
0000000800
0000001c00
7ffffffe00
0c00000000
0c00020000
0c00018000
0c0003c000
0c80030000
0c40060000
0c30040000
0c080c0000
0c06180000
0c03180000
0c00f00000
0c00600000
0c00f00000
0c008c0000
0c01060000
0c02030000
0c0c018000
0c1800c000
0c6000e000
0d80004000
0c00000000
0c00000000
07e0007c00
01fffffc00
0000000000
0000000000
0000000000
0000000000
0000000000
ENDCHAR
STARTCHAR 2158
ENCODING 8536
SWIDTH 1020 0
DWIDTH 34 0
BBX 34 35 0 -4
BITMAP
0000000000
0000000000
0400380000
0780300000
0600300000
0600300000
0600300000
0600300e00
0607fffe00
0620300c00
4630300c00
7ff8300c00
0600300c00
0600300c00
0600200c00
0600200c00
0600200c00
0600200c00
0600600800
0600400800
0600400800
0600c00800
0600c00800
0601800800
0601001800
0603001800
0602001800
0604001000
0608083000
061007f000
062000c000
0240000000
0000000000
0000000000
0000000000
ENDCHAR
STARTCHAR 2159
ENCODING 8537
SWIDTH 1020 0
DWIDTH 34 0
BBX 34 35 0 -4
BITMAP
0000000000
0000000000
000e000000
000c000000
000c000000
000c080000
200c0c0000
1ffffc0000
000c180000
0008180000
0018180000
0018180400
0030180400
0020180400
0060180400
01801c0e00
070207fc00
1c03800000
6003000000
0003000800
0003001c00
7ffffffe00
0003000000
0003000000
0003000000
0003000000
0003000000
0003000000
0003000000
0003000000
0003000000
0001000000
0000000000
0000000000
0000000000
ENDCHAR
STARTCHAR 215a
ENCODING 8538
SWIDTH 1020 0
DWIDTH 34 0
BBX 34 35 0 -4
BITMAP
0000000000
0000000000
0000000000
001e1c0000
001c1c0000
0018180000
0018180000
0018180000
0018180000
0018180000
0018180000
0018180000
0018180000
0018181000
0018181800
3ff81ffc00
0018180000
0018180000
0018180000
0018180000
0018180000
0018180000
0018180000
0018180000
0018180000
0018180000
0018180000
0018180000
0018180000
0008180000
0018180000
0000000000
0000000000
0000000000
0000000000
ENDCHAR
STARTCHAR 215b
ENCODING 8539
SWIDTH 1020 0
DWIDTH 34 0
BBX 34 35 0 -4
BITMAP
0000000000
0000000000
0000000000
0000001000
0800003c00
0ffffffc00
0800000000
0800c00000
0800e00000
0800c00000
0800c00000
0800c00000
0800c01000
08fffff800
0800c03000
0800803000
0800803000
0801803000
0801803000
0801003000
0803003000
1802003000
1802003000
1806002000
180c002000
1008002000
1010006000
1030006000
206030c000
20800fc000
4100030000
0000000000
0000000000
0000000000
0000000000
ENDCHAR
STARTCHAR 215c
ENCODING 8540
SWIDTH 1020 0
DWIDTH 34 0
BBX 34 35 0 -4
BITMAP
0000000000
0000000000
0004000000
000f000000
000c000000
000c000000
000c000000
000c000800
0008001c00
3ffffffe00
0018000000
0018000000
0010000000
0010300000
0030780000
0030600000
0020600000
0060400000
0040c00000
0040c00000
00c0800000
0081800000
0081008000
0103004000
0302002000
0206003000
0404001800
0c0801f800
181bff0c00
10ff800c00
2040000400
0040000000
0000000000
0000000000
0000000000
ENDCHAR
STARTCHAR 215d
ENCODING 8541
SWIDTH 1020 0
DWIDTH 34 0
BBX 34 35 0 -4
BITMAP
0000000000
0000000000
0000000000
0003000000
0003800000
0006000000
0004000000
000c000000
0018000000
0010060000
0020010000
004000c000
0040006000
00807ff000
1fffc01800
0f00001c00
0800000c00
0002000000
0007800000
0006000000
0004000000
0008000000
0018000000
0010040000
0020020000
0020018000
0040004000
00800ff000
00fff03800
1ff0001c00
0800000c00
0000000000
0000000000
0000000000
0000000000
ENDCHAR
STARTCHAR 215e
ENCODING 8542
SWIDTH 1020 0
DWIDTH 34 0
BBX 34 35 0 -4
BITMAP
0000000000
0000000000
0000000000
0000001000
0008001800
7ffdfffc00
001c403000
0018403000
0018403000
0018403000
1018403000
0810202000
0610206000
0330206000
01b0104000
00e010c000
006010c000
0070188000
0058098000
00dc0d0000
008c070000
0184060000
03060f0000
02001b0000
0600318000
0c0060c000
1800c07000
3001003c00
4006001e00
0038000c00
0040000000
0000000000
0000000000
0000000000
0000000000
ENDCHAR
STARTCHAR 215f
ENCODING 8543
SWIDTH 1020 0
DWIDTH 34 0
BBX 34 35 0 -4
BITMAP
0000000000
0000000000
0000010000
0fffffc000
004003c000
0020030000
0020060000
00100c0000
0008180000
0006300000
0003600000
0001c00000
000e780000
00701f8000
078003f800
1800003000
0000010000
0fffff8000
0040038000
0040060000
0020060000
00100c0000
0008180000
000c300000
0006600000
0001c00000
0003e00000
000e3c0000
00300f8000
01c001fe00
3e00001c00
0000000000
0000000000
0000000000
0000000000
ENDCHAR
STARTCHAR 2160
ENCODING 8544
SWIDTH 1020 0
DWIDTH 34 0
BBX 34 35 0 -4
BITMAP
0000000000
0000000000
0040000000
0038000000
2030001000
1c37fffc00
1830803800
1830803000
1830403000
1830403000
1830403000
1830402000
1830402000
1830206000
1830206000
1830206000
1830104000
183010c000
183010c000
1830098000
1830098000
18f0070000
1f30070000
7c30060000
30300f0000
2030198000
003030c000
0030606000
0030c03800
0023001e00
002c000c00
0020000000
0000000000
0000000000
0000000000
ENDCHAR
STARTCHAR 2161
ENCODING 8545
SWIDTH 1020 0
DWIDTH 34 0
BBX 34 35 0 -4
BITMAP
0000000000
0000000000
0000000000
0001000000
0001c00000
0001800000
0001800000
0001800000
0001800000
0001800000
0001800000
0001800000
0001800000
0001806000
1ffffff800
0801800000
0001800000
0001800000
0001880000
0001860000
0001830000
0001818000
0001818000
000180c000
0001804000
0001804000
0001800000
0001801800
7ffffffe00
0000000000
0000000000
0000000000
0000000000
0000000000
0000000000
ENDCHAR
STARTCHAR 2162
ENCODING 8546
SWIDTH 1020 0
DWIDTH 34 0
BBX 34 35 0 -4
BITMAP
0000000000
0000000000
0000000000
0800008000
070180f000
0601c0c000
060180c000
060180c000
060180c000
060180c000
060180c000
060180c000
060180c000
060180c000
060180c000
060180c000
060180c000
07ffffc000
060180c000
060180c000
0401804000
0001800000
0001800000
0001800000
0001800000
0001800000
0001800000
0001801800
2001803e00
1ffffffc00
0000000000
0000000000
0000000000
0000000000
0000000000
ENDCHAR
STARTCHAR 2163
ENCODING 8547
SWIDTH 1020 0
DWIDTH 34 0
BBX 34 35 0 -4
BITMAP
0000000000
0000000000
0000000000
0000001c00
7ffffffe00
0001800000
0001800000
0001800000
0001800000
0001800000
0801802000
0ffffff000
0c01806000
0c01806000
0c01806000
0c01806000
0c01806000
0c01806000
0c01806000
0c01806000
0c01806000
0c01806000
0c01806000
0c01806000
0c01806000
0c01986000
0c0187e000
0c0181c000
0c01800000
0001800000
0001000000
0001000000
0000000000
0000000000
0000000000
ENDCHAR
STARTCHAR 2164
ENCODING 8548
SWIDTH 1020 0
DWIDTH 34 0
BBX 34 35 0 -4
BITMAP
0000000000
0000000000
0000380000
0000118000
0000106000
0000107000
0000102000
0000101000
4000101800
3ffffffc00
0000100000
0000100000
0000100000
0000180000
0000180000
0000180000
0000080000
0003080000
3fffc80000
20000c0000
00000c0000
0000040000
0000060200
0000060200
0000030400
0000010400
0000018400
000000c400
0000006c00
0000003c00
0000001c00
0000000600
0000000000
0000000000
0000000000
ENDCHAR
STARTCHAR 2165
ENCODING 8549
SWIDTH 1020 0
DWIDTH 34 0
BBX 34 35 0 -4
BITMAP
0000000000
0000000000
0000000000
0020000000
0018000000
0006000000
0003000000
0001c00000
0000c00000
0200603000
03fffff800
0200003000
0200003000
0200003000
0200003000
0200003000
0200003000
0200003000
03fffff000
0200003000
0200001000
0200000000
0600000000
0600000000
0600000000
0400000000
0400000000
0c00000000
0800000000
1000000000
3000000000
4000000000
0000000000
0000000000
0000000000
ENDCHAR
STARTCHAR 2166
ENCODING 8550
SWIDTH 1020 0
DWIDTH 34 0
BBX 34 35 0 -4
BITMAP
0000000000
0000000000
0000000000
0000002000
0000007000
0ffffff800
0000000000
0000000000
0000000000
0000002000
0200003000
03fffff800
0200003000
0200003000
0200003000
0200003000
0200003000
0200003000
03fffff000
0200003000
0200001000
0200000000
0600000000
0600000000
0600000000
0400000000
0400000000
0c00000000
0800000000
1000000000
3000000000
4000000000
0000000000
0000000000
0000000000
ENDCHAR
STARTCHAR 2167
ENCODING 8551
SWIDTH 1020 0
DWIDTH 34 0
BBX 34 35 0 -4
BITMAP
0000000000
0000000000
0001000000
0001e00000
0001800000
0001800000
0001802000
0001807000
0001fff800
0001800000
0001800000
0001800000
0001800000
0001818000
0fffffc000
004001c000
0020030000
0020070000
0010060000
00080c0000
000c0c0000
0006180000
0003300000
0001e00000
0000c00000
0001f00000
00071c0000
001c0f0000
007003c000
01c000fc00
0e00003000
3000000000
0000000000
0000000000
0000000000
ENDCHAR
STARTCHAR 2168
ENCODING 8552
SWIDTH 1020 0
DWIDTH 34 0
BBX 34 35 0 -4
BITMAP
0000000000
0000000000
0010000000
001c000000
0018000000
0010000000
0030000000
0020000000
0060003000
007ffffc00
00c0020000
00c0060000
01a0060000
0120040000
02100c0000
06100c0000
0c10180000
0808180000
1004100000
0004300000
0002600000
0001400000
0001c00000
0001c00000
0003700000
0006180000
00080e0000
0030038000
00c001f000
0180003e00
0e00000c00
1000000000
0000000000
0000000000
0000000000
ENDCHAR
STARTCHAR 2169
ENCODING 8553
SWIDTH 1020 0
DWIDTH 34 0
BBX 34 35 0 -4
BITMAP
0000000000
0000000000
0000000000
0000002000
0000007000
0ffffff800
0003000000
0003000000
0003000000
0003000000
0003000000
0003000000
0003001800
3ffffffc00
2002c00000
0002c00000
0006c00000
0006c00000
0004c00000
000cc00000
0008c00000
0018c00000
0010c00400
0030c00400
0060c00400
00c0c00400
0080c00c00
0300c00c00
0600e07e00
18007ffc00
6000000000
0000000000
0000000000
0000000000
0000000000
ENDCHAR
STARTCHAR 216a
ENCODING 8554
SWIDTH 1020 0
DWIDTH 34 0
BBX 34 35 0 -4
BITMAP
0000000000
0000000000
0000002000
0c00007000
0ffffff800
0c00300000
0c00300000
0c00300000
0c00300000
0c00300000
0c00300000
0c00300000
0c00303000
0ffffffc00
0c00300000
0c00300000
0480300000
00c0300000
0020300000
0010300000
0008300000
0006300000
0001b00000
0000f00000
0000380000
00003e0000
000037c000
000031fe00
0000303800
000ff00000
0000e00000
0000800000
0000000000
0000000000
0000000000
ENDCHAR
STARTCHAR 216b
ENCODING 8555
SWIDTH 1020 0
DWIDTH 34 0
BBX 34 35 0 -4
BITMAP
0000000000
0000000000
0080000000
00e0000000
0180000000
0180000000
0100002000
0300003800
03fffffc00
0200c00000
0600c00000
0400c00000
0c00c00000
0800c00000
1000c00000
3000c00000
2000c06000
01fffff800
0100c00000
0000c00000
0000c00000
0000c60000
0000c10000
0000c18000
0000c0c000
0000c04000
0000c04000
0000c00800
0000c00c00
3ffffffe00
0000000000
0000000000
0000000000
0000000000
0000000000
ENDCHAR
STARTCHAR 216c
ENCODING 8556
SWIDTH 1020 0
DWIDTH 34 0
BBX 34 35 0 -4
BITMAP
0000000000
0000000000
0001000000
1001c00000
1c01803800
1801803000
1801803000
1801803000
1801803000
1801803000
1801803000
1801803000
1ffffff000
1800003000
0800003000
0800000000
0000000000
0000000000
0000008000
000001c000
0fffffe000
0000000000
0000000000
0000000000
0000000000
0000000000
0000000000
0000001800
4000001c00
3ffffffe00
0000000000
0000000000
0000000000
0000000000
0000000000
ENDCHAR
STARTCHAR 216d
ENCODING 8557
SWIDTH 1020 0
DWIDTH 34 0
BBX 34 35 0 -4
BITMAP
0000000000
0000000000
0040000000
0070001000
00c8001800
00c7fffc00
00800c0000
01800c0000
01000c0000
03000c0000
03000c0000
07800c0000
07000c0000
0f000c0800
0b000c1c00
131ffffe00
23000c0000
43000c0000
03000c0000
03000c0000
03000c0000
03000c0000
03000c0000
03000c0000
03000c0000
03000c0000
03000c0000
03000c0000
03000c0000
03000c0000
03000c0000
0300080000
0000000000
0000000000
0000000000
ENDCHAR
STARTCHAR 216e
ENCODING 8558
SWIDTH 1020 0
DWIDTH 34 0
BBX 34 35 0 -4
BITMAP
0000000000
0000000000
0080200000
00e0380000
0080300000
0180300000
0180300000
0100300000
0300300000
0200300000
0600301800
0640301c00
0f3ffffe00
0e00300000
1600300000
3600280000
2600280000
4600280000
06006c0000
0600440000
0600460000
0600c20000
0600830000
0601810000
0603018000
060200c000
0604006000
0608007000
0610003c00
0660001e00
06c0000800
0200000000
0000000000
0000000000
0000000000
ENDCHAR
STARTCHAR 216f
ENCODING 8559
SWIDTH 1020 0
DWIDTH 34 0
BBX 34 35 0 -4
BITMAP
0000000000
0000000000
0080000000
00e2008000
0083ffc000
018201c000
0182018000
0102018000
0302018000
0202018000
0602018000
0602018000
0f02418000
0e02218000
1602118000
3602198000
26020d8000
46020d8000
0602058000
0602018000
0606018000
0606018000
0604018000
0604018800
0604018800
0608018800
0608018800
0618018800
0610018c00
062001fc00
0640000000
0280000000
0000000000
0000000000
0000000000
ENDCHAR
STARTCHAR 2170
ENCODING 8560
SWIDTH 1020 0
DWIDTH 34 0
BBX 34 35 0 -4
BITMAP
0000000000
0000000000
0004000000
0007800000
0006000000
0006000000
000600c000
000600e000
0007fff000
0006000000
0006000000
0006000000
0006000800
0006001c00
7ffffffe00
0000000000
0000000000
0003c00000
0001000000
0003000000
0003000000
0003800000
0003800000
0006400000
0006600000
000c300000
00181c0000
0030070000
00c003c000
038001fc00
1c00007e00
6000000800
0000000000
0000000000
0000000000
ENDCHAR
STARTCHAR 2171
ENCODING 8561
SWIDTH 1020 0
DWIDTH 34 0
BBX 34 35 0 -4
BITMAP
0000000000
0000000000
0080000000
00e0000800
0180001c00
019ffffe00
0100c18000
0300c18000
0300c18000
0200c18000
0600c18000
0700c18000
0e00c18000
0e00c18000
1600c18000
3600c18000
2600c18000
4600c18000
0600c18000
0600c18000
0600818000
0600818000
0601818000
0601018000
0601018400
0602018400
0606018400
0604018400
0608018600
061001fe00
0620007c00
0200000000
0000000000
0000000000
0000000000
ENDCHAR
STARTCHAR 2172
ENCODING 8562
SWIDTH 1020 0
DWIDTH 34 0
BBX 34 35 0 -4
BITMAP
0000000000
0000000000
0080100000
00e01e0000
0180180000
0180180000
0100180000
0300180000
0300180000
0200180000
0606180000
0407988000
0f06184000
0e06186000
1604182000
360c181000
260c181800
4608180800
0618180c00
0610180c00
0630180600
0620180600
0640180600
0640180200
0680180000
0600180000
0600180000
0600180000
0600180000
0603f80000
0600780000
0400200000
0000000000
0000000000
0000000000
ENDCHAR
STARTCHAR 2173
ENCODING 8563
SWIDTH 1020 0
DWIDTH 34 0
BBX 34 35 0 -4
BITMAP
0000000000
0000000000
0080200000
00e03c0000
0080380000
0180300000
0180600000
0100600c00
0300fffe00
0200801c00
0601801800
0603001800
0f02003000
0e07003000
160c802000
3618606000
2630304000
462018c000
060018c000
0600098000
0600010000
0600030000
0600060000
06000c0000
0600180000
0600300000
0600600000
0601800000
0602000000
061c000000
0660000000
0200000000
0000000000
0000000000
0000000000
ENDCHAR
STARTCHAR 2174
ENCODING 8564
SWIDTH 1020 0
DWIDTH 34 0
BBX 34 35 0 -4
BITMAP
0000000000
0000000000
0040300000
00703c0000
0060300000
00c0200000
00c0200000
0080600000
0180600000
0100400800
0300400c00
033ffffe00
0780c03000
0700803000
0b01802000
1301802000
3301006000
2303006000
4303006000
030200c000
030600c000
0307808000
030c618000
03041d0000
0300070000
030007c000
03000ce000
0300307000
0300601800
0303800c00
033e000400
0100000000
0000000000
0000000000
0000000000
ENDCHAR
STARTCHAR 2175
ENCODING 8565
SWIDTH 1020 0
DWIDTH 34 0
BBX 34 35 0 -4
BITMAP
0000000000
0000000000
0001000000
0001c00000
0003800000
0006400000
0006200000
000c100000
00180c0000
0060060000
00c0038000
0180c0e000
0600e07c00
1801801e00
2007000000
000e000000
00380c0000
03e01e0000
0000380000
0000600000
0001c00000
0007008000
001c01e000
05f0038000
0200070000
00001c0000
0000780000
0001e00000
000f000000
0078000000
1f80000000
0000000000
0000000000
0000000000
0000000000
ENDCHAR
STARTCHAR 2176
ENCODING 8566
SWIDTH 1020 0
DWIDTH 34 0
BBX 34 35 0 -4
BITMAP
0000000000
0000000000
0001000000
0003c00000
0003800000
0006400000
0006400000
000c200000
0018100000
0010180000
00300c0000
0060060000
00c0030000
018001c000
020000e000
0c00047c00
10000e1e00
61ffff0000
0001800000
0001800000
0001800000
0001800000
0001800000
0001800000
0001800000
0001800000
0001800000
0001800000
0001801800
3ffffffc00
2000000000
0000000000
0000000000
0000000000
0000000000
ENDCHAR
STARTCHAR 2177
ENCODING 8567
SWIDTH 1020 0
DWIDTH 34 0
BBX 34 35 0 -4
BITMAP
0000000000
0000000000
0000000000
1800001800
1ffffff800
1800003000
1800003000
1800003000
1800003000
18400c3000
187ffc3000
1860183000
1860183000
1860183000
1860183000
1860183000
187ff83000
1860083000
1860003000
1860003000
1860023000
1860023000
1860023000
1860033000
18780f3000
181ffe3000
1800003000
1800003000
1800003000
18000ff000
180000e000
0000000000
0000000000
0000000000
0000000000
ENDCHAR
STARTCHAR 2178
ENCODING 8568
SWIDTH 1020 0
DWIDTH 34 0
BBX 34 35 0 -4
BITMAP
0000000000
0000000000
0000000000
0800001800
0ffffff800
0c00003000
0c00003000
0c00003000
0c00003000
0c00003000
0c30083000
0c3ffc3000
0c300c3000
0c300c3000
0c300c3000
0c300c3000
0c300c3000
0c300c3000
0c300c3000
0c300c3000
0c300c3000
0c300c3000
0c3ffc3000
0c30083000
0c10003000
0c00003000
0c00003000
0c00003000
0c00003000
0c000ff000
0c0000e000
0400000000
0000000000
0000000000
0000000000
ENDCHAR
STARTCHAR 2179
ENCODING 8569
SWIDTH 1020 0
DWIDTH 34 0
BBX 34 35 0 -4
BITMAP
0000000000
0000000000
0000000000
0c06406000
0fff7ff000
0c06606000
0c06606000
0c06606000
0c06606000
0c06606000
0c06606000
0c06606000
0c06606000
0c06606000
0c06606800
4c06607c00
7ffffffe00
0c06606000
0c06606000
0c06606000
0c06606000
0c06606000
0c06606000
0c06606000
0c06606000
0c06606000
0c06606000
0c06606000
0c06606000
047e67e000
041c60c000
0410208000
0000000000
0000000000
0000000000
ENDCHAR
STARTCHAR 217a
ENCODING 8570
SWIDTH 1020 0
DWIDTH 34 0
BBX 34 35 0 -4
BITMAP
0000000000
0000000000
0000000000
0800000800
0800000c00
0ffffffe00
0800001800
1800001000
30f0002000
30c0000000
00c0008000
008001e000
01ffffe000
0180000000
0180000000
0100000000
0300010000
03ffffc000
020001c000
0600018000
0000018000
0000019000
0000013800
3ffffffc00
0000030000
0000030000
0000020000
0000060000
0002060000
0001fc0000
0000380000
0000000000
0000000000
0000000000
0000000000
ENDCHAR
STARTCHAR 217b
ENCODING 8571
SWIDTH 1020 0
DWIDTH 34 0
BBX 34 35 0 -4
BITMAP
0000000000
0000000000
0000000000
0400003000
07fffff800
0400006000
0400006000
0400006000
0400006000
0400006000
07ffffe000
0400002000
0400002000
0420040000
041ffe0000
04100e0000
04100c0000
04100c0000
04100c0000
04100c0000
04100c0000
0c300c0000
0c300c0000
0c300c0000
08200c0000
08200c0400
18400c0400
10c00c0400
10800c0400
230007fe00
440001f800
0800000000
0000000000
0000000000
0000000000
ENDCHAR
STARTCHAR 217c
ENCODING 8572
SWIDTH 1020 0
DWIDTH 34 0
BBX 34 35 0 -4
BITMAP
0000000000
0000000000
0000000000
0400000000
0780000400
0607fffe00
0600180c00
0600100c00
0600100c00
0600100c00
0640100c00
4670100c00
3ff0100c00
0600100c00
0600300c00
0600300c00
0600300c00
0600200800
0600200800
0600600800
0600400800
0630c00800
0640c00800
0780801800
1e01001800
7c03001800
3002001000
2004003000
0008103000
00301fe000
004001c000
0080000000
0000000000
0000000000
0000000000
ENDCHAR
STARTCHAR 217d
ENCODING 8573
SWIDTH 1020 0
DWIDTH 34 0
BBX 34 35 0 -4
BITMAP
0000000000
0000000000
0001001000
0003c00e00
001f600c00
01f8070c00
1e30078c00
0030060c00
0030060c00
0030060c00
0030060c00
0030060c00
0030060c00
0030060c00
0030660c00
7ffff60c00
4020060c00
0060060c00
0060060c00
0060060c00
0040060c00
0040060c00
0040060c00
00c0060c00
0080060c00
0100000c00
0300000c00
0200000c00
0400000c00
080003fc00
3000003800
0000000000
0000000000
0000000000
0000000000
ENDCHAR
STARTCHAR 217e
ENCODING 8574
SWIDTH 1020 0
DWIDTH 34 0
BBX 34 35 0 -4
BITMAP
0000000000
0000000000
0040000000
0070000000
0060000000
00c0000800
00c1000e00
0080fffe00
0180040c00
0100040c00
0210040c00
440e040c00
3818040c00
0818040800
0c100c0800
06300c0800
03200c0800
01600c0800
0040080800
00c0080800
0080080800
0110180800
0308180800
0204101800
0406101800
09fa201800
7f82201800
7002401000
2000c03000
000087f000
000301e000
0000008000
0000000000
0000000000
0000000000
ENDCHAR
STARTCHAR 2221
ENCODING 8737
SWIDTH 1020 0
DWIDTH 34 0
BBX 34 35 0 -4
BITMAP
0000000000
0000000000
0000000000
1000000800
1ffffffc00
1800001800
1802001800
1801801800
1801001800
1801001800
1801011800
19ffff9800
190101d800
1803011800
1803011800
1802011800
1802011800
1802011800
1806011800
1804031800
1804031800
1808031800
1818031800
1830021800
1860021800
18c0fe1800
19001c1800
1800001800
1800001800
1ffffff800
1000000800
0000000000
0000000000
0000000000
0000000000
ENDCHAR
STARTCHAR 2222
ENCODING 8738
SWIDTH 1020 0
DWIDTH 34 0
BBX 34 35 0 -4
BITMAP
0000000000
0000000000
00c0000000
00e0000000
00c0000000
0180000000
0180000c00
01fffffc00
0300001800
0200001800
0601801800
0401c01800
0c01801800
0801821800
1001839800
23ffffd800
4060001800
0060001000
0060001000
0060001000
0060001000
0060001000
0060001000
0040003000
0078073000
001fff3000
0000002000
0000002000
0000006000
000070c000
00000fc000
0000020000
0000000000
0000000000
0000000000
ENDCHAR
STARTCHAR 2223
ENCODING 8739
SWIDTH 1020 0
DWIDTH 34 0
BBX 34 35 0 -4
BITMAP
0000000000
0000000000
0080000000
00f0000000
00c0000000
0180000000
0180000c00
03fffffe00
0300000800
0600000800
0400c00800
0800e00800
1a00c00800
2380800800
4301800800
0301800800
0303800800
0303600800
0306300800
03040c0800
03080e0800
0318061800
0320021800
0340001800
0300001800
0380021000
01ffff1000
0000003000
0000083000
00000e6000
000001c000
0000010000
0000000000
0000000000
0000000000
ENDCHAR
STARTCHAR 2224
ENCODING 8740
SWIDTH 1020 0
DWIDTH 34 0
BBX 34 35 0 -4
BITMAP
0000000000
0000000000
00c0000000
00e0000000
00c0000000
0180000000
0180000c00
01fffffe00
0300000800
0210000800
061c000800
0418040800
0c300e0800
083fff0800
10600c0800
20400c0800
4080180800
0180180800
0340300800
0230600800
0418601800
180cc01800
0007801800
0003001800
0006001000
000c001000
0018003000
0070003000
01c0003000
0700386000
000007c000
0000010000
0000000000
0000000000
0000000000
ENDCHAR
STARTCHAR 2225
ENCODING 8741
SWIDTH 1020 0
DWIDTH 34 0
BBX 34 35 0 -4
BITMAP
0000000000
0000000000
0060000000
0078000000
0060000000
0040000000
00c0000000
0080000800
01fffffe00
0103060c00
0302060c00
0206040800
0406040800
0c8c0c0800
184c080800
3038081800
6010181800
4038101800
0064301800
00c2201000
0181c01000
0300c03000
0600b03000
08011c3000
10020f2000
000403e000
000801f800
0010007c00
006000c800
00807f8000
01000e0000
0000000000
0000000000
0000000000
0000000000
ENDCHAR
STARTCHAR 2226
ENCODING 8742
SWIDTH 1020 0
DWIDTH 34 0
BBX 34 35 0 -4
BITMAP
0000000000
0000000000
0000000000
2000001000
3000003c00
3ffffffc00
3000000000
3000000000
3000010000
3080018000
307fffc000
3000c00000
3000c00000
3000c00000
3000c00000
3000c00000
3000c00000
3000c00000
3000c00000
3000c00000
3000c00000
3000c00000
3000c00000
3000c06000
31fffff000
3000000000
3000000000
3000001000
3000003800
3ffffffc00
3000000000
0000000000
0000000000
0000000000
0000000000
ENDCHAR
STARTCHAR 2227
ENCODING 8743
SWIDTH 1020 0
DWIDTH 34 0
BBX 34 35 0 -4
BITMAP
0000000000
0000000000
0000100000
00001e0000
0000180000
2010180000
3018180000
3ffc180000
3018180000
3018180000
3018180000
3018180000
3018180000
30181e0000
30181b0000
301818c000
3018186000
3018183000
3018181800
3018181c00
3018180c00
3018180000
3ff8180000
3018180000
3018180000
3000180000
3000180000
0000180000
0000180000
0000180000
0000180000
0000180000
0000000000
0000000000
0000000000
ENDCHAR
STARTCHAR 2228
ENCODING 8744
SWIDTH 1020 0
DWIDTH 34 0
BBX 34 35 0 -4
BITMAP
0000000000
0000000000
0000000000
0000400c00
00087ffe00
400e601800
3ffe601800
0180601800
0180601800
0180601800
0180601800
0180601800
0180601800
0180601800
0180601800
0180601800
0180601800
0180601800
0183601800
018c601800
01b0601800
01e0601800
0f80601800
7c00601800
300063f800
2000603800
0000602000
0000600000
0000600000
0000600000
0000600000
0000600000
0000000000
0000000000
0000000000
ENDCHAR
STARTCHAR 2229
ENCODING 8745
SWIDTH 1020 0
DWIDTH 34 0
BBX 34 35 0 -4
BITMAP
0000000000
0000000000
0000000000
0800000c00
0ffffffe00
0c00000000
0c00000000
0c00000000
0c00001000
0500001800
0cfffffc00
0c03000000
0c03000000
0c03000000
0c03002000
0c03003000
0c03fff800
0c02002000
0c02002000
0c06002000
0c06002000
0804002000
080c006000
080c006000
1808006000
1010004000
1030004000
306000c000
20c000c000
21007f8000
42000f0000
4000000000
0000000000
0000000000
0000000000
ENDCHAR
STARTCHAR 222a
ENCODING 8746
SWIDTH 1020 0
DWIDTH 34 0
BBX 34 35 0 -4
BITMAP
0000000000
0000000000
0002000000
0003800000
0003000000
0003000000
0002000000
0006001000
4006003800
3ffffffc00
000c200000
000c200000
0018100000
0010180000
00300c0000
0024040000
0067020000
00c6010000
0084018000
030c00e000
0608007000
0c08083c00
1810041e00
6010020400
0020010000
0020018000
004001c000
0047fec000
07ff006000
0780006000
0200002000
0000000000
0000000000
0000000000
0000000000
ENDCHAR
STARTCHAR 222b
ENCODING 8747
SWIDTH 1020 0
DWIDTH 34 0
BBX 34 35 0 -4
BITMAP
0000000000
0000000000
0000008000
000007e000
00003f0000
0007f00000
1ffe000000
0006000000
0006000000
0004001000
400c001800
3ffffffc00
000c000000
0008000000
0018000000
0018008000
003fffe000
003801c000
0028038000
0064030000
0044070000
00c2060000
01830c0000
0101980000
0200f00000
0600700000
0c01f80000
18030f0000
200c03e000
407000fe00
0380001c00
0c00000000
0000000000
0000000000
0000000000
ENDCHAR
STARTCHAR 222c
ENCODING 8748
SWIDTH 1020 0
DWIDTH 34 0
BBX 34 35 0 -4
BITMAP
0000000000
0000000000
0000300000
0000380000
0000300000
2040300000
3060300000
3ff0300000
3060200000
3060200000
3060300000
3060300000
3060700000
3060700000
3060700000
3060780000
3060480000
3060c80000
3060c80000
3060840000
3061840000
3061860000
3fe3020000
3063030000
3066018000
300400c000
100c00c000
0018006000
0030003800
0060001e00
0080000800
0000000000
0000000000
0000000000
0000000000
ENDCHAR
STARTCHAR 222d
ENCODING 8749
SWIDTH 1020 0
DWIDTH 34 0
BBX 34 35 0 -4
BITMAP
0000000000
0000000000
0000100000
00001e0000
0000180000
2040180000
20e0180000
3fe0180000
30c0180000
30c0180000
30c0180000
30c0181800
30dffffe00
30c0180000
30c0180000
30c0180000
30c0180000
30c0180000
30c0180000
30c0180000
30c0180000
30c0180000
3fc0180000
30c0180000
30c0180000
3000180000
2000180000
0000180000
0000180000
0000080000
0000180000
0000080000
0000000000
0000000000
0000000000
ENDCHAR
STARTCHAR 222e
ENCODING 8750
SWIDTH 1020 0
DWIDTH 34 0
BBX 34 35 0 -4
BITMAP
0000000000
0000000000
0200010000
0200018000
03ffffc000
0300018000
0300018000
0300018000
0300018000
0300018000
03ffff8000
0300018000
0200010000
0000000800
4000001c00
3ffffffe00
0060000000
0040000000
00c0000000
0080008000
01ffffe000
030000c000
0300008000
0600018000
0000018000
0000018000
0000010000
0000030000
0004070000
0003fe0000
00003c0000
0000000000
0000000000
0000000000
0000000000
ENDCHAR
STARTCHAR 222f
ENCODING 8751
SWIDTH 1020 0
DWIDTH 34 0
BBX 34 35 0 -4
BITMAP
0000000000
0000000000
0000000000
0000000000
0000000000
2040001000
3067fffc00
3ff1003800
30c1003000
30c0803000
30c0803000
30c0803000
30c0802000
30c0802000
30c0c06000
30c0406000
30c040c000
30c020c000
30c0208000
30c0118000
30c0110000
30c00b0000
3fc00e0000
30400e0000
10401b0000
1000338000
100061c000
0000c0f000
0003003c00
000c001e00
0030000800
0040000000
0000000000
0000000000
0000000000
ENDCHAR
STARTCHAR 2230
ENCODING 8752
SWIDTH 1020 0
DWIDTH 34 0
BBX 34 35 0 -4
BITMAP
0000000000
0000000000
0000400000
0000700000
0000600000
2040600000
20e0600000
3fe0600000
30c0600000
30c0600000
30c0618000
30cfffc000
30c0618000
30c0418000
30c0418000
30c0418000
30c0418000
30c0418000
30c0c18000
30c0818000
30c0818000
30c0818000
3fc1818000
30c1018400
30c3018400
3002018400
2004018400
000c018400
0008018400
001001fe00
0060007800
0000000000
0000000000
0000000000
0000000000
ENDCHAR
STARTCHAR 2231
ENCODING 8753
SWIDTH 1020 0
DWIDTH 34 0
BBX 34 35 0 -4
BITMAP
0000000000
0000000000
001c000000
0018000000
0018000000
0010000000
0010080000
3ffffc0000
0010180000
0030180000
0020180400
0020180400
0060180400
00c0180400
0180180400
03001ffe00
060007f800
1a00008000
630000c000
03ffffe000
030000c000
030000c000
030000c000
030000c000
030000c000
030000c000
030000c000
030000c000
03ffffc000
030000c000
010000c000
0000000000
0000000000
0000000000
0000000000
ENDCHAR
STARTCHAR 2232
ENCODING 8754
SWIDTH 1020 0
DWIDTH 34 0
BBX 34 35 0 -4
BITMAP
0000000000
0000000000
0000000000
1000000800
1ffffffc00
1800001800
1800001800
1800001800
1800061800
19ffff9800
1820071800
18100c1800
18100c1800
18181c1800
1808181800
180c101800
1806301800
1802601800
1801401800
1801c01800
1801e01800
1806701800
180c1c1800
18300f1800
18c003f800
1b00019800
1800001800
1800001800
1800001800
1ffffff800
1000000800
0000000000
0000000000
0000000000
0000000000
ENDCHAR
STARTCHAR 2233
ENCODING 8755
SWIDTH 1020 0
DWIDTH 34 0
BBX 34 35 0 -4
BITMAP
0000000000
0000000000
00001c0000
0780180000
0700180000
0600180000
0600180000
0600180c00
0607fffe00
0600180c00
0620180c00
4670180c00
7ff0180c00
0600180c00
0600100c00
0600100800
0600300800
0600300800
0600200800
0600200800
0610600800
0660400800
07c0c00800
0f00800800
7c01801800
7003001800
2002001000
0004001000
0008083000
003007f000
004000e000
0000000000
0000000000
0000000000
0000000000
ENDCHAR
STARTCHAR 2234
ENCODING 8756
SWIDTH 1020 0
DWIDTH 34 0
BBX 34 35 0 -4
BITMAP
0000000000
0000000000
00003c0000
0180380000
01c0300000
0180300000
0180300000
0180300000
0180300000
0180300000
0190300000
8198300000
7ffc300000
01803c0000
0180330000
0180318000
018030e000
0180303000
0180301800
0180300c00
0184300600
019c300000
01f0300000
03c0300000
3e00300000
7800300000
2000300000
0000300000
0000300000
0000300000
0000300000
0000100000
0000000000
0000000000
0000000000
ENDCHAR
STARTCHAR 2235
ENCODING 8757
SWIDTH 1020 0
DWIDTH 34 0
BBX 34 35 0 -4
BITMAP
0000000000
0000000000
0100000000
01c0000000
01000e0000
0100080000
0100080000
0300080000
030c080000
03fe080000
020c180000
0608180000
0408180000
0408180000
0c181e0000
0a18130000
1a10318000
121030c000
3230206000
2120607000
4120c03000
40c0801800
00c1001800
00c2000800
01e4000000
0330000000
0618000000
0c0e000000
1803f9fe00
3000fffc00
4000000000
0000000000
0000000000
0000000000
0000000000
ENDCHAR
STARTCHAR 2236
ENCODING 8758
SWIDTH 1020 0
DWIDTH 34 0
BBX 34 35 0 -4
BITMAP
0000000000
0000000000
0000000000
01c0000000
0100201000
0102101800
03ff1ffc00
0303181800
0206181800
0206181800
0606181800
0406181800
0c06181800
0c04181800
0b04181800
118c181800
308c181800
20c8181800
4048181800
0018181800
0010181800
0030181800
0020181800
00601a1800
00c019f800
0180183000
0100180000
0200180000
0c00180000
3000180000
2000180000
0000000000
0000000000
0000000000
0000000000
ENDCHAR
STARTCHAR 2237
ENCODING 8759
SWIDTH 1020 0
DWIDTH 34 0
BBX 34 35 0 -4
BITMAP
0000000000
0000000000
0001800000
0001c00000
0001000000
0003000000
0003000000
0002001800
3ffffffc00
0004400000
0004200000
000c200000
0008100000
0018100000
0011080000
0021c40000
0061820000
0041830000
0081818000
010180c000
0201807000
0c01803c00
1801811e00
6001818400
43ffffc000
0001800000
0001800000
0001800000
0001800000
0001800000
0001800000
0001000000
0000000000
0000000000
0000000000
ENDCHAR
STARTCHAR 2238
ENCODING 8760
SWIDTH 1020 0
DWIDTH 34 0
BBX 34 35 0 -4
BITMAP
0000000000
0000000000
0002000000
0001c00000
0001800000
0003000000
0003000000
0006001000
2006003c00
3ffffffc00
0008200000
0010300000
00200c0000
0040060000
0180038000
030000e000
0c40087c00
30380e1e00
40300c0000
00200c0000
00200c0000
00200c0000
00200c0000
00200c0000
00600c0000
00400c0000
00c00c0000
00800c0000
01800c0000
02000c0000
0c000c0000
1000000000
0000000000
0000000000
0000000000
ENDCHAR
STARTCHAR 2239
ENCODING 8761
SWIDTH 1020 0
DWIDTH 34 0
BBX 34 35 0 -4
BITMAP
0000000000
0000000000
0000000000
0001c00000
0001800000
0601800000
0181800000
00e1800000
0031800000
0011800000
0801800000
0701800000
01c1800000
00e1800000
0021800000
0001800000
0001800800
6001801e00
3ffffffe00
0001800000
0003400000
0002400000
0006200000
0004100000
000c180000
00180e0000
0030070000
006001c000
018000f800
0600003e00
7800000800
0000000000
0000000000
0000000000
0000000000
ENDCHAR
STARTCHAR 223a
ENCODING 8762
SWIDTH 1020 0
DWIDTH 34 0
BBX 34 35 0 -4
BITMAP
0000000000
0000000000
0003000000
0003800000
0003000000
0002000000
0006001000
0006001800
3ffffffc00
000c200000
0008200000
0018100000
0010080000
0030080000
0020040000
0060020000
00c0010000
018001c000
030000e000
060001f000
0f8001fe00
1300018c00
6300018000
0300018000
0300018000
0300018000
0300018000
0300018000
0300018000
03ffff8000
0300018000
0100008000
0000000000
0000000000
0000000000
ENDCHAR
STARTCHAR 223b
ENCODING 8763
SWIDTH 1020 0
DWIDTH 34 0
BBX 34 35 0 -4
BITMAP
0000000000
0000000000
0200000000
0380000800
0200000c00
060ffffe00
0600030000
0400030000
0400030000
7ff8030000
4c18030000
0830030000
0830030000
0830030000
1830030000
1020030000
1020030000
3020030000
3060030000
2040030000
7040030000
6c80030000
4680030000
0180030000
01c0030000
02e0030000
0670030000
0c30030000
1800030000
30007f0000
6000060000
0000000000
0000000000
0000000000
0000000000
ENDCHAR
STARTCHAR 223c
ENCODING 8764
SWIDTH 1020 0
DWIDTH 34 0
BBX 34 35 0 -4
BITMAP
0000000000
0000000000
0001000000
0001e00000
0001800000
0001800000
0801800800
0ffffffc00
0800001c00
1000001000
1000002000
3000002000
2000008000
0000018000
07ffffc000
0040038000
0040030000
0020060000
0030060000
00100c0000
0008180000
0004180000
0002300000
0003600000
0001c00000
0003e00000
0006380000
00380e0000
00e007c000
070000fc00
3800003000
0000000000
0000000000
0000000000
0000000000
ENDCHAR
STARTCHAR 223d
ENCODING 8765
SWIDTH 1020 0
DWIDTH 34 0
BBX 34 35 0 -4
BITMAP
0000000000
0000000000
0001000000
0001c00000
0001800000
0801801000
0ffffff800
0800001c00
0800003000
1000002000
3000004000
6030100000
00381c0000
0030180000
0010180000
0030180000
0030180000
0030180000
0030180000
0030180000
0030180000
0020180000
0020180400
0060180400
0040180800
00c0180800
0080180800
0180180800
0200180c00
0c001ffe00
300001f000
0000000000
0000000000
0000000000
0000000000
ENDCHAR
STARTCHAR 223e
ENCODING 8766
SWIDTH 1020 0
DWIDTH 34 0
BBX 34 35 0 -4
BITMAP
0000000000
0000000000
0000004000
0000007800
0000006000
0000006000
000c006000
7ffe006000
100c006000
1008006800
0808006c00
0809fffe00
0808006000
0418006000
0418006000
0418806000
0210406000
0210206000
0330106000
0120186000
01a0086000
00e0086000
00c0006000
00e0006000
01b0006000
0138006000
021c006000
040e006000
0c07006000
10021fe000
600000c000
0000000000
0000000000
0000000000
0000000000
ENDCHAR
STARTCHAR 223f
ENCODING 8767
SWIDTH 1020 0
DWIDTH 34 0
BBX 34 35 0 -4
BITMAP
0000000000
0000000000
0040000000
0070000000
0060000000
00c0000000
00c0000000
0180000000
0180000c00
03fffffe00
0600c00800
0400c01000
0800c02000
1000c04000
2000c00000
00c0c20000
00e0c10000
0180c08000
0180c0c000
0300c04000
0200c02000
0600c03000
0400c01800
0800c01800
1800c01c00
3000c00c00
6000c00c00
0000c00000
0000c00000
007fc00000
0003800000
0002000000
0000000000
0000000000
0000000000
ENDCHAR
STARTCHAR 2240
ENCODING 8768
SWIDTH 1020 0
DWIDTH 34 0
BBX 34 35 0 -4
BITMAP
0000000000
0000000000
0000000000
0400003000
07fffff800
0400003000
0400003000
0400003000
0400003000
0400003000
07fffff000
0400003000
0400002000
0400000000
0400004000
04fffff000
040800e000
0408018000
0408018000
0404030000
0406030000
0c02060000
0c010c0000
0c00880000
0800d80000
0800700000
1800dc0000
10018f0000
100603e000
203800fe00
40e0001c00
0700000000
0000000000
0000000000
0000000000
ENDCHAR
STARTCHAR 2241
ENCODING 8769
SWIDTH 1020 0
DWIDTH 34 0
BBX 34 35 0 -4
BITMAP
0000000000
0000000000
0000000000
0301010000
0381ff8000
0301830000
0301830000
0301830000
7361830000
7371830000
6361830000
6361030000
6361030000
6361030000
6361030000
6361030000
6361030000
6361030000
6361030000
6363030000
6363030000
6362030000
6362030000
6366030400
7fe4030400
6064030400
2028030400
2018030400
0010030600
002001fe00
0040000000
0000000000
0000000000
0000000000
0000000000
ENDCHAR
STARTCHAR 2242
ENCODING 8770
SWIDTH 1020 0
DWIDTH 34 0
BBX 34 35 0 -4
BITMAP
0000000000
0000000000
0001000000
0001e00000
1c01801800
1e01801c00
1801801800
1801801800
1801801800
1801801800
1801801800
1801801800
1ffffff800
0800001800
1801001000
0001c00000
0001800000
0001800000
0001800000
0001800000
0003400000
0002400000
0006200000
0004300000
000c180000
00180c0000
0030060000
00c0038000
018001f000
0600007e00
3800001c00
4000000000
0000000000
0000000000
0000000000
ENDCHAR
STARTCHAR 2243
ENCODING 8771
SWIDTH 1020 0
DWIDTH 34 0
BBX 34 35 0 -4
BITMAP
0000000000
0000000000
0001000000
0001e00000
1c01801800
1e01801c00
1801801800
1801801800
1801801800
1801801800
1801801800
1801801800
0ffffff800
0800001800
1800001000
0000800000
01ffc00000
0001800000
0001800000
0003400000
0003400000
0006200000
000c300000
0018180000
00100c0000
0030060000
00c0038000
018001c000
0300007800
0c00003e00
3000000800
0000000000
0000000000
0000000000
0000000000
ENDCHAR
STARTCHAR 2244
ENCODING 8772
SWIDTH 1020 0
DWIDTH 34 0
BBX 34 35 0 -4
BITMAP
0000000000
0000000000
0001800000
0801c02000
0e01803800
0c01803000
0c01803000
0c01803000
0c01803000
0ffffff000
0c00003000
0800001000
0000000000
0000020000
0fffff0000
0018060000
0010040000
00100c0000
00100c0000
0030181800
00301ffc00
0020301800
0060001800
0040001800
00c0001000
0080003000
0180003000
0300003000
0600206000
18001fc000
3000038000
0000000000
0000000000
0000000000
0000000000
ENDCHAR
STARTCHAR 2245
ENCODING 8773
SWIDTH 1020 0
DWIDTH 34 0
BBX 34 35 0 -4
BITMAP
0000000000
0000000000
0000000000
0000004000
0fffffe000
000000c000
000000c000
000000c000
000000c000
000000c000
000000c000
040000c000
07ffffc000
0600004000
0600000000
0600000000
0600000000
0600002000
0600003000
07fffff800
0600006000
0600006000
0600006000
0600006000
0600006000
0600006000
0600006000
0600006000
07ffffe000
0600002000
0600002000
0000000000
0000000000
0000000000
0000000000
ENDCHAR
STARTCHAR 2246
ENCODING 8774
SWIDTH 1020 0
DWIDTH 34 0
BBX 34 35 0 -4
BITMAP
0000000000
0000000000
0200c00000
03c0f00000
0300c00000
0300c00000
0300c00000
4310c00000
7ffcc00000
631cc00000
6318c00000
6318c00000
6318c00000
6318c03000
6318fffc00
6318c00000
6318c00000
6318c00000
6318c00000
6318c00000
6318c00000
6318c00000
23f8c00400
2330c00400
2320c00400
0300c00400
0300c00400
0300c00400
0300c00e00
03007ffe00
03001fe000
0200000000
0000000000
0000000000
0000000000
ENDCHAR
STARTCHAR 2247
ENCODING 8775
SWIDTH 1020 0
DWIDTH 34 0
BBX 34 35 0 -4
BITMAP
0000000000
0000000000
0001000000
0001e00000
0001801000
0801803800
0ffffffc00
0c00000000
0c00000000
0c00000000
0c00000000
0400001000
0d00003c00
0cfffffc00
0c00300000
0c00300000
0c00300000
0c00300000
0c00300000
0c00300000
0c00300000
0c00300000
0c00300000
0800300000
0800300000
1800300000
1000300000
1000300000
300e300000
2001f00000
4000600000
4000000000
0000000000
0000000000
0000000000
ENDCHAR
STARTCHAR 2248
ENCODING 8776
SWIDTH 1020 0
DWIDTH 34 0
BBX 34 35 0 -4
BITMAP
0000000000
0000000000
0000800000
0000e00000
0000c01000
0800c01800
0ffffffc00
0c00000000
0c00000000
0c00000000
0c00c00000
0400f00000
0c00c00000
0c00c00000
0c01800000
0c01800000
0c01000000
0c03000000
0c02000000
0c02020000
0806010000
0804008000
080c004000
0808006000
0818003000
181007f000
1013fc1800
13ff801800
31c0001800
2100000800
4000000000
4000000000
0000000000
0000000000
0000000000
ENDCHAR
STARTCHAR 2249
ENCODING 8777
SWIDTH 1020 0
DWIDTH 34 0
BBX 34 35 0 -4
BITMAP
0000000000
0000000000
0000200000
0000190000
000010c000
0000106000
0000102000
0000100800
4000100c00
3ffffffe00
0000100000
0000100000
0000100000
0000100000
0000180000
0004180000
0006180000
0fff080000
00000c0000
00000c0000
00000c0000
0000040000
0000060200
0000020200
0001030400
2001818400
1fffc0c400
0000006400
0000007400
0000001c00
0000000e00
0000000000
0000000000
0000000000
0000000000
ENDCHAR
STARTCHAR 224a
ENCODING 8778
SWIDTH 1020 0
DWIDTH 34 0
BBX 34 35 0 -4
BITMAP
0000000000
0000000000
0000000000
01c0000000
0180000000
0180000000
0180001000
0188001800
4187fff000
2180003000
1180003000
1980003000
0980003000
0d80003000
0d80003000
0580003000
019ffff000
0180003000
0100003000
0100003000
0100003000
0300003000
0300003000
0200003000
0200003000
040ffff000
0400001000
0800000000
1800000000
3000000000
2000000000
0000000000
0000000000
0000000000
0000000000
ENDCHAR
STARTCHAR 224b
ENCODING 8779
SWIDTH 1020 0
DWIDTH 34 0
BBX 34 35 0 -4
BITMAP
0000000000
0000000000
0080000000
00f0000000
00c0000800
0188000c00
0307fffe00
0600030000
0c40030000
1878030000
6070030000
0060030000
00c0030000
0180030000
0180030000
0300030000
0700030000
0f00030000
1300030000
6300030000
0300030000
0300030000
0300030000
0300030000
0300030000
0300030000
0300030000
0300030000
0300030000
0301ff0000
03000e0000
03000c0000
0000000000
0000000000
0000000000
ENDCHAR
STARTCHAR 224c
ENCODING 8780
SWIDTH 1020 0
DWIDTH 34 0
BBX 34 35 0 -4
BITMAP
0000000000
0000000000
0400000000
0380000000
0300000800
0308000c00
0307fffe00
0300030000
0300030000
0380030000
1340030000
1360030000
1320030000
3320030000
2320030000
6300030000
6300030000
0300030000
0300030000
0300030000
0300030000
0300030000
0300030000
0300030000
0300030000
0300030000
0300030000
0300030000
0300030000
0201ff0000
02000e0000
02000c0000
0000000000
0000000000
0000000000
ENDCHAR
STARTCHAR 224d
ENCODING 8781
SWIDTH 1020 0
DWIDTH 34 0
BBX 34 35 0 -4
BITMAP
0000000000
0000000000
0400200000
0380180000
0300100000
0300100000
0300100000
0300100000
0300100800
0388100c00
1347fffe00
1360100800
1320100800
3330300800
2330300800
6320300800
6300300800
0300200800
0300200800
0300200800
0300600800
0300601800
0300401800
0300c01800
0300801800
0301801000
0301001000
0302003000
0306083000
020807e000
021001c000
0220000000
0000000000
0000000000
0000000000
ENDCHAR
STARTCHAR 224e
ENCODING 8782
SWIDTH 1020 0
DWIDTH 34 0
BBX 34 35 0 -4
BITMAP
0000000000
0000000000
000001c000
00001ff000
0ffff80000
0c00000000
0c00001000
0c00001800
0ffffffc00
0c00001800
0c00001800
0c00001800
0c00001800
07fffff800
0c00001800
0c00000800
0c00010000
0c7fff8000
0c0003c000
0c000e0000
0c00180000
0c00700000
0800c00000
0803000000
080e000000
0818000400
1830000400
1060000c00
1060000c00
307e00fe00
201ffff800
4000000000
0000000000
0000000000
0000000000
ENDCHAR
STARTCHAR 224f
ENCODING 8783
SWIDTH 1020 0
DWIDTH 34 0
BBX 34 35 0 -4
BITMAP
0000000000
0000000000
0400000000
0780000000
0600000800
060ffffe00
0600180c00
0600100800
0640100800
4670100800
7ff0100800
0600100800
0600100800
0600100800
0600100800
0600300800
0630301800
07c0301800
0f00201800
7e00201800
6600601800
2600601800
0600401000
0600c01000
0600801000
0601803000
0601003000
0602003000
06041c6000
7e0803c000
0c30018000
0000000000
0000000000
0000000000
0000000000
ENDCHAR
STARTCHAR 2250
ENCODING 8784
SWIDTH 1020 0
DWIDTH 34 0
BBX 34 35 0 -4
BITMAP
0000000000
0000000000
0400400000
0780700000
0600400000
0600400000
0600400000
0600400000
0640400000
7fe0400000
0600408000
060fffc000
0600418000
0600418000
0600418000
0620418000
06c0c18000
0780c18000
1e00818000
7e00818000
2600818000
2601818000
0601018000
0603018400
0602018400
0606018400
0604018400
0608018400
4618018600
3e2000fe00
0c40007800
0000000000
0000000000
0000000000
0000000000
ENDCHAR
STARTCHAR 2251
ENCODING 8785
SWIDTH 1020 0
DWIDTH 34 0
BBX 34 35 0 -4
BITMAP
0000000000
0000000000
0000000000
0800000000
0f08001800
0c0ffffc00
0c0c003000
0c0c003000
0c0c003000
0c0c003000
0c0c003000
0c0c003000
0c0c003000
0c0c003000
0c0c003000
0c0c003000
0c0ffff000
0c0c003000
0c0c003000
0c0c003000
0c0c003000
0c0c003000
0c0c003000
0c0c003000
0c0c003000
0c0c003000
0c0c003000
0c0ffff000
0c0c001000
0c0c001000
0c00000000
0000000000
0000000000
0000000000
0000000000
ENDCHAR
STARTCHAR 2252
ENCODING 8786
SWIDTH 1020 0
DWIDTH 34 0
BBX 34 35 0 -4
BITMAP
0000000000
0000000000
0001000000
0001c80000
0001860000
0001830000
0001818000
000180c000
0001801000
2001801c00
1ffffffc00
0003c00000
0003c00000
0007a00000
0005a00000
000d900000
0009900000
0019880000
0031840000
0021860000
0061820000
00c1810000
0181818000
030180c000
0601806000
0c01803800
1801801e00
2001800c00
4001800000
0001800000
0000800000
0000800000
0000000000
0000000000
0000000000
ENDCHAR
STARTCHAR 2253
ENCODING 8787
SWIDTH 1020 0
DWIDTH 34 0
BBX 34 35 0 -4
BITMAP
0000000000
0000000000
0001000000
0000e00000
0000c00000
0000c04000
0000c0e000
0000fff000
0000c00000
003cc00000
0030c02000
0030c07000
007ffff800
0060006000
00c000c000
018000c000
0300018000
0660030000
0c10030000
100c060000
00060c0000
0003180000
0003300000
0001600000
0000c00000
0003800000
000e000000
0038000000
00e0000000
0700000000
3800000000
0000000000
0000000000
0000000000
0000000000
ENDCHAR
STARTCHAR 2254
ENCODING 8788
SWIDTH 1020 0
DWIDTH 34 0
BBX 34 35 0 -4
BITMAP
0000000000
0000000000
0000080000
00000f0000
00060c0000
3fff0c0000
000f8c0000
00080c0000
00182c0800
0037fe1e00
00306e3000
00606e2000
00604dc000
00c04d0000
00c0cd8000
01808c8000
03018cc000
03010c6000
06030c3000
06020c3800
04040c1e00
0c080c0e00
08100c0000
1800cc0000
18003c0400
1000180400
1000000c00
1800000c00
0f80007e00
03fffff000
0000000000
0000000000
0000000000
0000000000
0000000000
ENDCHAR
STARTCHAR 2255
ENCODING 8789
SWIDTH 1020 0
DWIDTH 34 0
BBX 34 35 0 -4
BITMAP
0000000000
0000000000
0000000000
1807800000
0606000000
0306000000
0306000000
0006000000
0026000000
0026001000
4046003c00
6046006000
184601c000
0c86030000
0c860c0000
0086100000
0106e00000
0107000000
0306000000
0206000000
0206000000
0606000000
0406000400
7c06000400
0c06000400
0406000400
0406000400
0406000400
0406000400
0607001e00
0403fffe00
0000000000
0000000000
0000000000
0000000000
ENDCHAR
STARTCHAR 2256
ENCODING 8790
SWIDTH 1020 0
DWIDTH 34 0
BBX 34 35 0 -4
BITMAP
0000000000
0000000000
0000000000
1804010000
0607ff8000
030601c000
0306018000
0006018000
0026018000
0026018000
4046018000
6046018000
1846018000
0c86018000
0c86018000
0086018000
0106018000
0106018000
0306018000
0204018000
0204018000
0604018000
040c018200
7c0c018400
0c08018400
0408018400
0418018400
0410018400
0420018c00
064001fe00
048000f800
0000000000
0000000000
0000000000
0000000000
ENDCHAR
STARTCHAR 2257
ENCODING 8791
SWIDTH 1020 0
DWIDTH 34 0
BBX 34 35 0 -4
BITMAP
0000000000
0000000000
0001800000
0001e00000
0001800000
0401800000
0301c00000
0181c00000
00e1c03000
0061c03800
0021a06000
0001a0c000
0011a18000
2019960000
3ffd9c0000
0031880000
0021880000
0061840000
0041860000
00c1820000
0081830000
0101818000
030180c000
0601806000
0c01803800
1801801c00
3001800e00
4001800000
0001800000
007f800000
0007000000
0002000000
0000000000
0000000000
0000000000
ENDCHAR
STARTCHAR 2258
ENCODING 8792
SWIDTH 1020 0
DWIDTH 34 0
BBX 34 35 0 -4
BITMAP
0000000000
0000000000
0000300000
1800380000
0600300000
0300300000
0300300000
0000300000
0020200000
0020200000
4040300000
6040300000
1840300000
0c80700000
0c80700000
0080780000
0100480000
0100c80000
0300c80000
0200c40000
0200840000
0601860000
0401020000
7c03030000
0c02018000
040600c000
040c00c000
0408006000
0410003800
0620001e00
04c0000800
0000000000
0000000000
0000000000
0000000000
ENDCHAR
STARTCHAR 2259
ENCODING 8793
SWIDTH 1020 0
DWIDTH 34 0
BBX 34 35 0 -4
BITMAP
0000000000
0000000000
0000000000
1800000800
0400001c00
073ffffe00
0300c00000
0000800000
0041800000
0041800000
4041000000
6081000000
1083000000
1883001800
0903fff800
0106003000
0106003000
020c003000
0200003000
0200003000
0600003000
0400002000
0400002000
7c00006000
0c00006000
0c00006000
0c00004000
0c0000c000
0c00c0c000
0c003f8000
0400070000
0000000000
0000000000
0000000000
0000000000
ENDCHAR
STARTCHAR 225a
ENCODING 8794
SWIDTH 1020 0
DWIDTH 34 0
BBX 34 35 0 -4
BITMAP
0000000000
0000000000
0000000000
0010f00000
4038c00000
3ffcc00000
0300c00000
0300c00000
0300c00000
0300c00000
0300c00000
0300c00000
0310c00000
4338c00000
3ffcc00000
0300c00000
0300c00000
0300c00000
0300c00000
0300c00000
0300c00000
0304c00000
0318c00000
03e0c00400
0f80c00400
7e00c00400
3000c00400
2000c00400
0000c00c00
00007ffe00
00000ff000
0000000000
0000000000
0000000000
0000000000
ENDCHAR
STARTCHAR 225b
ENCODING 8795
SWIDTH 1020 0
DWIDTH 34 0
BBX 34 35 0 -4
BITMAP
0000000000
0000000000
0000800000
0000700000
0000600000
0000600800
0200601c00
03fffffe00
0200000000
4200000000
2200000000
1200000000
1200000000
1a00000000
1200000000
0200000000
0200000000
0200000000
0e00000000
3a00000000
6200000000
2600000000
0600000000
0400000000
0400000000
0400000000
0800000000
0800000000
1000000000
3000000000
2000000000
0000000000
0000000000
0000000000
0000000000
ENDCHAR
STARTCHAR 225c
ENCODING 8796
SWIDTH 1020 0
DWIDTH 34 0
BBX 34 35 0 -4
BITMAP
0000000000
0000000000
0000000000
0000000000
0002000000
1003010000
0fff838000
000387c000
0806440000
060c781000
0318303c00
01b0186000
01600c8000
00c0070000
0180038000
030000e000
0c00007800
3000001e00
4000000800
0000000000
0000000000
0000000000
0000000000
0000000000
0000000000
0000000000
0000000000
0000000000
0000000000
0000000000
0000000000
0000000000
0000000000
0000000000
0000000000
ENDCHAR
STARTCHAR 225d
ENCODING 8797
SWIDTH 1020 0
DWIDTH 34 0
BBX 34 35 0 -4
BITMAP
0000000000
0000000000
0000200000
0000300c00
40023ffe00
3fff301800
0807301000
0806303000
0806302000
0806304000
0406304000
0404308000
0404308000
040c310000
040c308000
020c304000
0208302000
0218301000
0318300800
0110300800
01b0300c00
00a0300400
00e0300400
0040300400
00e0300c00
01b031bc00
0318307800
060c302000
0807300000
3003300000
4000300000
0000100000
0000000000
0000000000
0000000000
ENDCHAR
STARTCHAR 225e
ENCODING 8798
SWIDTH 1020 0
DWIDTH 34 0
BBX 34 35 0 -4
BITMAP
0000000000
0000000000
0000200000
0000300c00
00033ffe00
7fffb01800
0060301000
0060303000
0060302000
0060304000
0060304000
0060308000
0060308000
0060310000
0060308000
0060304000
0060302000
0060301000
0060300800
0060300800
0060300c00
0060300400
0060300400
0060300400
0060300c00
006031bc00
0060307800
0060302000
0060300000
0fe0300000
01c0300000
0100100000
0000000000
0000000000
0000000000
ENDCHAR
STARTCHAR 225f
ENCODING 8799
SWIDTH 1020 0
DWIDTH 34 0
BBX 34 35 0 -4
BITMAP
0000000000
0000000000
0000000000
0404101000
07fe1ffc00
060e181c00
060c181000
060c183000
060c182000
060c182000
060c184000
060c184000
060c184000
060c188000
060c184000
060c182000
040c181000
040c181800
040c180800
040c180c00
040c180400
040c180400
040c180400
0c0c580c00
080c580c00
080c59f800
080c583000
100cd80000
100cd80000
200fe80000
4007c80000
4000080000
0000000000
0000000000
0000000000
ENDCHAR
STARTCHAR 2260
ENCODING 8800
SWIDTH 1020 0
DWIDTH 34 0
BBX 34 35 0 -4
BITMAP
0000000000
0000000000
0000000000
3020000000
3ff0000800
3066001e00
3043fffe00
30c0030000
3080030000
3080030000
3100030000
3100030000
3200030000
3100030000
3080030000
3040030000
3040030000
3020030000
3020030000
3020030000
3030030000
3030030000
3020030000
37e0030000
30c0030000
3000030000
3000030000
3000030000
3000830000
10007f0000
10000e0000
0000000000
0000000000
0000000000
0000000000
ENDCHAR
STARTCHAR 2261
ENCODING 8801
SWIDTH 1020 0
DWIDTH 34 0
BBX 34 35 0 -4
BITMAP
0000000000
0000000000
0000000000
0000000800
4000001c00
3ffffffe00
0001800000
0001800000
0001800000
0801801000
0ffffff800
0c01803000
0c01803000
0c01803000
0c41843000
0c71873000
0c61863000
0c61863000
0c61863000
0c61863000
0c61863000
0c61863000
0c61863000
0c7ffe3000
0c60063000
0c60063000
0c20003000
0c00003000
0c00003000
0c0007f000
0c00006000
0c00000000
0000000000
0000000000
0000000000
ENDCHAR
STARTCHAR 2262
ENCODING 8802
SWIDTH 1020 0
DWIDTH 34 0
BBX 34 35 0 -4
BITMAP
0000000000
0000000000
0000000000
0038380000
003c300000
0030300000
0030300000
0030300000
0030300000
0030301000
7ff0303800
40303ffc00
0030300000
0030300000
0030300000
0030300000
0030300000
0030300000
0070300800
07b0300800
7e30300800
7030300800
2030300c00
00101ffc00
0030000000
0000000000
0000000000
0000001800
4000001c00
3ffffffe00
0000000000
0000000000
0000000000
0000000000
0000000000
ENDCHAR
STARTCHAR 2263
ENCODING 8803
SWIDTH 1020 0
DWIDTH 34 0
BBX 34 35 0 -4
BITMAP
0000000000
0000000000
0000000000
000003e000
0001fff000
1fffc00000
0001800000
0001800000
0001800000
0001808000
000180e000
07fffff000
0001800000
0001800000
0001800000
0001800800
0001801c00
3ffffffe00
0003000000
0002000000
0006000000
0004100000
000c0c0000
0008020000
0010010000
0030008000
002000c000
0060ff6000
17ffc03000
0fe0003000
0800001000
0000000000
0000000000
0000000000
0000000000
ENDCHAR
STARTCHAR 2264
ENCODING 8804
SWIDTH 1020 0
DWIDTH 34 0
BBX 34 35 0 -4
BITMAP
0000000000
0000000000
0080000000
00e0380000
0080380000
0180300000
0100300000
0300300000
0210300000
0208300000
040c300000
0404300000
0802300000
1007300000
7ffdb00000
7801b00000
4001b00000
0000300000
3006300000
3fff300000
3006300000
3006300000
3006300000
3006300400
3006300400
3006300400
3006300400
3006300400
3ffe300600
30061ffe00
300607f800
0000000000
0000000000
0000000000
0000000000
ENDCHAR
STARTCHAR 2265
ENCODING 8805
SWIDTH 1020 0
DWIDTH 34 0
BBX 34 35 0 -4
BITMAP
0000000000
0000000000
0038000000
003c000000
0030080000
007ffc0000
00c03c0000
0180200000
0300400000
0600804000
0fffffe000
100300c000
600300c000
000300c000
000300c800
400300cc00
3ffffffe00
000300c000
000300c000
000300c000
000300c000
07ffffc000
0003004000
0003004000
0003000000
0003000000
0003000000
0003000000
0003000000
00ff000000
000f000000
0004000000
0000000000
0000000000
0000000000
ENDCHAR
STARTCHAR 2266
ENCODING 8806
SWIDTH 1020 0
DWIDTH 34 0
BBX 34 35 0 -4
BITMAP
0000000000
0000000000
0000000000
0000001800
3ffffffc00
0000000000
0000000000
0000000000
0000000000
0100018000
01ffffc000
0180018000
0180018000
0180018000
0180018000
0180018000
01ffff8000
0180018000
0180018000
0180018000
0180018000
0180018000
01ffff8000
0180018000
0180010000
0000000000
0000000000
0000001800
7ffffffc00
0000000000
0000000000
0000000000
0000000000
0000000000
0000000000
ENDCHAR
STARTCHAR 2267
ENCODING 8807
SWIDTH 1020 0
DWIDTH 34 0
BBX 34 35 0 -4
BITMAP
0000000000
0000000000
0080200000
00e03c0000
0180300000
0180300000
0180304000
0110307000
031ffff000
0200300000
0600300000
0400300000
0f00301000
0e40303800
1e3ffff800
3600300000
2600300000
4600300000
0600300000
0600300c00
06fffffe00
0600300000
0600300000
0600300000
0600300000
0600300000
0600300000
0600300000
0600300000
0600300000
0600300000
0600000000
0000000000
0000000000
0000000000
ENDCHAR
STARTCHAR 2268
ENCODING 8808
SWIDTH 1020 0
DWIDTH 34 0
BBX 34 35 0 -4
BITMAP
0000000000
0000000000
0080080000
01e00f0000
01800c0000
01800c0000
01000c0000
03000c0000
03020c0000
0203cc4000
06038c2000
07030c1800
0e020c0c00
0e060c0600
16060c0600
36040c0200
260c0c0000
46080c1800
06180c1c00
06100c3000
0621fc3000
0600386000
060010c000
060001c000
0600038000
0600070000
06000c0000
0600180000
0600600000
0601800000
060e000000
0270000000
0000000000
0000000000
0000000000
ENDCHAR
STARTCHAR 2269
ENCODING 8809
SWIDTH 1020 0
DWIDTH 34 0
BBX 34 35 0 -4
BITMAP
0000000000
0000000000
0080080000
01e11c0000
0181f80000
0180080000
0100080000
0300080000
0310080400
0218080e00
061ffffe00
0718080c00
0e180c0c00
0e180c0c00
1618140c00
3618160c00
2618320c00
4618230c00
0618610c00
0618418c00
061880cc00
0619006c00
061a000c00
0618000c00
0618000c00
0618000c00
0618000c00
0618000c00
0618020c00
061801fc00
0618003800
0208000000
0000000000
0000000000
0000000000
ENDCHAR
STARTCHAR 226a
ENCODING 8810
SWIDTH 1020 0
DWIDTH 34 0
BBX 34 35 0 -4
BITMAP
0000000000
0000000000
0080108000
01e038e000
018074c000
0180c0c000
010380c000
030f80c000
033180c000
020180c000
060180c000
070180c000
0e0180c000
0e0180c800
168180dc00
367ffffe00
260180c000
460100c000
060100c000
060100c000
060100c000
060100c000
060300c000
060200c000
060200c000
060400c000
060400c000
060800c000
061800c000
063000c000
0660008000
0240008000
0000000000
0000000000
0000000000
ENDCHAR
STARTCHAR 226b
ENCODING 8811
SWIDTH 1020 0
DWIDTH 34 0
BBX 34 35 0 -4
BITMAP
0000000000
0000000000
0080000000
01e0006000
018001f000
0180078000
01003e0000
0303f80000
030c180000
0200180000
0600180000
0700180000
0e00180000
0e00180800
1600101c00
363ffffe00
2600180000
4600340000
0600340000
0600240000
0600220000
0600620000
0600430000
0600c10000
0600818000
060100c000
060300c000
0606006000
060c003800
0610001e00
06e0000c00
0280000000
0000000000
0000000000
0000000000
ENDCHAR
STARTCHAR 226c
ENCODING 8812
SWIDTH 1020 0
DWIDTH 34 0
BBX 34 35 0 -4
BITMAP
0000000000
0000000000
0081000000
01e1c00000
0181000000
0183000000
0103000000
0302000c00
0307fffe00
0204218c00
060c218c00
0708610c00
0e18610c00
0e10430c00
1620c20c00
3640820800
2601860800
4601040800
0603040800
06020c0800
0604080800
060c181800
0618101800
0630201800
0620601800
0600401800
0600801000
0601003000
0602103000
06041fe000
060801e000
0200010000
0000000000
0000000000
0000000000
ENDCHAR
STARTCHAR 226d
ENCODING 8813
SWIDTH 1020 0
DWIDTH 34 0
BBX 34 35 0 -4
BITMAP
0000000000
0000000000
0080000000
00e0002000
00effff000
0080007800
018000e000
0100018000
0300810000
0300460000
0200380000
07001c0000
0f800c0000
0b00040c00
1b3ffffe00
33000c0c00
23000c1800
43000c3000
03000c6000
03000c0000
03000c0000
03000c0000
03000c0000
03000c0000
03000c0000
03000c0000
03000c0000
03000c0000
03000c0000
0301fc0000
0300380000
0200100000
0000000000
0000000000
0000000000
ENDCHAR
STARTCHAR 226e
ENCODING 8814
SWIDTH 1020 0
DWIDTH 34 0
BBX 34 35 0 -4
BITMAP
0000000000
0000000000
0080000000
01e0000000
0180001000
01a0001800
011ffffc00
0300300000
0300300000
0200300000
0600300000
0700300000
0e00300000
0e00300000
1600300000
3600302000
2610307000
460ffff800
0600300000
0600300000
0600300000
0600300000
0600300000
0600300000
0600300000
0600300000
0600300000
0600300800
0680301c00
067ffffe00
0600000000
0200000000
0000000000
0000000000
0000000000
ENDCHAR
STARTCHAR 226f
ENCODING 8815
SWIDTH 1020 0
DWIDTH 34 0
BBX 34 35 0 -4
BITMAP
0000000000
0000000000
0080000000
01e0000800
0184001c00
0187fffe00
0106000000
0306000000
0306000000
0206000000
0606001000
0707fff800
0e04803c00
0e04803000
1604406000
3604406000
2604406000
460420c000
060420c000
060c108000
060c118000
06081b0000
06080b0000
06080e0000
06180e0000
06101b0000
061031c000
062060e000
0621807800
0646001e00
0698000400
0200000000
0000000000
0000000000
0000000000
ENDCHAR
STARTCHAR 2270
ENCODING 8816
SWIDTH 1020 0
DWIDTH 34 0
BBX 34 35 0 -4
BITMAP
0000000000
0000000000
0080400000
01e0300000
0180600000
0180600000
0100600000
0300600c00
033ffffe00
0200400000
0600400000
0700c00000
0e00c03000
0e00fff800
1600c06000
3601c06000
2601204000
460320c000
0603208000
0606118000
0604110000
060c0b0000
06080e0000
0610060000
06300e0000
06401b0000
0680318000
060060e000
0601807000
0603001e00
061c000c00
0200000000
0000000000
0000000000
0000000000
ENDCHAR
STARTCHAR 2271
ENCODING 8817
SWIDTH 1020 0
DWIDTH 34 0
BBX 34 35 0 -4
BITMAP
0000000000
0000000000
0082000000
01e3c00000
0183000000
0182001000
0106001800
0307fffc00
030c000000
0208000000
0610004000
072600f000
0e43fff000
0e00000000
1600008000
360001c000
263fffe000
4600008000
0600008000
0600008000
0600008000
0600008000
0600008000
060000c200
0600004200
0600006200
0600006200
0600003400
0600003c00
0600001e00
0600000e00
0200000000
0000000000
0000000000
0000000000
ENDCHAR
STARTCHAR 2272
ENCODING 8818
SWIDTH 1020 0
DWIDTH 34 0
BBX 34 35 0 -4
BITMAP
0000000000
0000000000
0080800000
01e0e00000
0180800000
0181800000
0101000000
0303000400
0303fffe00
0206000c00
0604000c00
070c000c00
0e18000c00
0e10000c00
1620020c00
3608078c00
2607ff8c00
4600000800
0600000800
0600000800
0600010800
0610038800
060fff8800
0600001800
0600001800
0600001800
0600001000
0600003000
0600003000
06003ff000
060001c000
0200010000
0000000000
0000000000
0000000000
ENDCHAR
STARTCHAR 2273
ENCODING 8819
SWIDTH 1020 0
DWIDTH 34 0
BBX 34 35 0 -4
BITMAP
0000000000
0000000000
0201000000
01c1c00000
0181800000
0301800000
0301810000
027fff8000
0601030000
0601030000
0403030000
0c03030400
0c02030400
1e06030400
1c0c030600
2c1841fe00
6c30380000
4cc0300000
0c00300000
0c00300000
0c00301800
0dfffffe00
0d00300000
0c00300000
0c00300000
0c00300000
0c00300000
0c00300000
0c00300000
0c00300000
0c00200000
0400200000
0000000000
0000000000
0000000000
ENDCHAR
STARTCHAR 2274
ENCODING 8820
SWIDTH 1020 0
DWIDTH 34 0
BBX 34 35 0 -4
BITMAP
0000000000
0000000000
0080000000
01e1010000
0181ff8000
0181030000
0101030000
0301030000
0301030400
0203030400
0602030400
0706030400
0e04038e00
0e0c01fc00
1610000000
3620000000
2610006000
460ffff000
060200e000
060100c000
0601018000
0600818000
0600c30000
0600460000
0600260000
06001c0000
06003c0000
0600670000
060181e000
0606007e00
0638001c00
0240000000
0000000000
0000000000
0000000000
ENDCHAR
STARTCHAR 2275
ENCODING 8821
SWIDTH 1020 0
DWIDTH 34 0
BBX 34 35 0 -4
BITMAP
0000000000
0000000000
0001800000
0001c00000
0003400000
0006200000
000c300000
0018180000
00300c0000
0060060000
00c0018000
030000e000
0600047800
18ffff1e00
6080000400
0000000000
0000000000
0000002000
2000003000
1ffffffc00
000c000000
0018000000
0018040000
0010040000
0030030000
0020018000
004000c000
00403fe000
0fffe03000
0fe0003000
0400001000
0000000000
0000000000
0000000000
0000000000
ENDCHAR
STARTCHAR 2276
ENCODING 8822
SWIDTH 1020 0
DWIDTH 34 0
BBX 34 35 0 -4
BITMAP
0000000000
0000000000
0001800000
0003c00000
0003800000
0006400000
000c200000
0008100000
00100c0000
0020060000
00c0038000
018001e000
0300007800
0c80011e00
3040038400
407fffc000
0060000000
0060000000
0060000000
0060040000
0060060000
007fff0000
0060000000
0060000000
0060000000
0060000000
0060000000
0060004000
006000e000
007ffff000
0040000000
0040000000
0000000000
0000000000
0000000000
ENDCHAR
STARTCHAR 2277
ENCODING 8823
SWIDTH 1020 0
DWIDTH 34 0
BBX 34 35 0 -4
BITMAP
0000000000
0000000000
0003c00000
0003000000
0003000000
0003000000
0003000000
0007000000
0006800000
0004c00000
000c600000
0018300000
00301c0000
0060070000
018003e000
060000fe00
3870101800
60400c0000
0040180000
0040180000
00401c0000
00c01c0000
00c0140000
00a0320000
0190230000
0198610000
030c418000
060480c000
0c05007000
1802003c00
200c000e00
4010000000
0000000000
0000000000
0000000000
ENDCHAR
STARTCHAR 2278
ENCODING 8824
SWIDTH 1020 0
DWIDTH 34 0
BBX 34 35 0 -4
BITMAP
0000000000
0000000000
00000c0000
0063fc0000
0070080000
00c0040000
0180020000
0300018000
060600e000
0c0f007e00
180c001c00
6018100000
00180c0000
0030030000
0060018000
00c3ffe000
1fff307000
0c18303000
0818301000
0010300000
0010300000
0010300000
0010300400
0030300400
0020300400
0060300400
0040300400
0080300c00
0100300c00
06003ffe00
180007e000
6000000000
0000000000
0000000000
0000000000
ENDCHAR
STARTCHAR 2279
ENCODING 8825
SWIDTH 1020 0
DWIDTH 34 0
BBX 34 35 0 -4
BITMAP
0000000000
0000000000
0000800000
07ffc00000
0401c00000
0003800000
0003c00000
0006400000
000c200000
0018100000
0030080000
0060060000
00c0038000
010001e000
0600007e00
1c00005c00
6600006000
07fffff000
0600006000
0600006000
0600006000
0600006000
0600006000
07ffffe000
0600006000
0600006000
0600006000
0600006000
0600006000
07ffffe000
0600006000
0200004000
0000000000
0000000000
0000000000
ENDCHAR
STARTCHAR 227a
ENCODING 8826
SWIDTH 1020 0
DWIDTH 34 0
BBX 34 35 0 -4
BITMAP
0000000000
0000000000
0000002000
2000003800
1ffffff800
0001800000
0001800000
0001804000
0801806000
07fffff000
0001800000
0001800000
0001800000
0001801800
7ffffffc00
0000000000
0000000000
0000100000
0002380000
0001fc0000
003c080000
0030080000
0060040000
0060060000
00c0020000
0180010000
0100018000
020000e000
0c00007000
1800003e00
2000001e00
4000000800
0000000000
0000000000
0000000000
ENDCHAR
STARTCHAR 227b
ENCODING 8827
SWIDTH 1020 0
DWIDTH 34 0
BBX 34 35 0 -4
BITMAP
0000000000
0000000000
0000000000
0000000800
4000001c00
3ffffffe00
0001800000
0001800000
0401804000
07ffffe000
060180c000
060180c000
060180c000
060180c000
060180d800
3ffffffe00
060180c000
060180c000
060180c000
060180c800
060180dc00
7ffffffe00
060000c000
060000c000
060000c000
060000c000
060000c000
060000c000
060018c000
060007c000
0600018000
0000000000
0000000000
0000000000
0000000000
ENDCHAR
STARTCHAR 227c
ENCODING 8828
SWIDTH 1020 0
DWIDTH 34 0
BBX 34 35 0 -4
BITMAP
0000000000
0000000000
0000000000
2000001800
300ffffc00
1800030000
0c04030000
0607830000
0606030000
0046030000
0086030000
0084030000
0084030800
010c031c00
010ffffe00
0208070000
02080f0000
06000b0000
04001b0000
0c00330000
0800630000
7800c30000
0801030000
0806030000
080c030000
0830030000
0840030000
0d80030000
0800630000
08001f0000
0000060000
0000000000
0000000000
0000000000
0000000000
ENDCHAR
STARTCHAR 227d
ENCODING 8829
SWIDTH 1020 0
DWIDTH 34 0
BBX 34 35 0 -4
BITMAP
0000000000
0000000000
0000400000
0000700000
2000600000
3000600000
1800600000
0c00604000
0610606000
04dffff000
0080606000
0080606000
0100606000
0100606000
0100606000
0200606000
0200606000
0400606800
04fffffe00
0c80500000
0800500000
7800d80000
1800880000
08018c0000
0801860000
0803020000
0802018000
080400c000
0808007000
0830003e00
00c0000c00
0100000000
0000000000
0000000000
0000000000
ENDCHAR
STARTCHAR 227e
ENCODING 8830
SWIDTH 1020 0
DWIDTH 34 0
BBX 34 35 0 -4
BITMAP
0000000000
0000000000
0000100000
00001e0000
2000180000
1000180000
0c00180000
0600180000
0610180c00
001ffffe00
0098180c00
0098180c00
0118180c00
0118180c00
0118180c00
0218180c00
0218180c00
0218180c00
0418180c00
041ffffc00
0c10180c00
7c10180c00
0800180000
0800180000
0c00180000
0c00180000
0c00180000
0c00180000
0c00180000
0000180000
0000180000
0000180000
0000000000
0000000000
0000000000
ENDCHAR
STARTCHAR 2321
ENCODING 8993
SWIDTH 1020 0
DWIDTH 34 0
BBX 34 35 0 -4
BITMAP
0000000000
0000000000
0000000000
0000006000
200001f800
10000f8000
0801f80000
0c3e100000
0600100000
0240300000
0080300000
0080300000
0080300000
0100300800
0100301c00
017ffffe00
0200300000
0200280000
0600680000
0400480000
0c00c40000
0c00c40000
7800820000
0801030000
0803010000
0806018000
0c0400c000
0c08007000
0c30003800
08c0001e00
0180000800
0000000000
0000000000
0000000000
0000000000
ENDCHAR
STARTCHAR 2322
ENCODING 8994
SWIDTH 1020 0
DWIDTH 34 0
BBX 34 35 0 -4
BITMAP
0000000000
0000000000
0000000000
080000c000
0fffffe000
080000e000
0800008000
0800008000
0800008000
0800308000
08fff88000
0840008000
0800008000
0800008000
080000c000
080008c000
08000cc000
09fffec000
080c004000
080c004000
0808004000
0808204000
0818106000
1810086200
18300c2200
1020043200
1021fe1200
13fe061600
21c0020e00
2100000e00
4000000600
0000000000
0000000000
0000000000
0000000000
ENDCHAR
STARTCHAR 2323
ENCODING 8995
SWIDTH 1020 0
DWIDTH 34 0
BBX 34 35 0 -4
BITMAP
0000000000
0000000000
0001000000
0001c00000
0001800800
4001801c00
3ffffffe00
0000000000
0000040000
0c00073800
0e00063800
0c400c3000
0c20083000
0c18183000
0c0c103000
0c02303000
0c01e03000
0c00c03000
0c01e03000
0c03303000
0c06183000
0c080c3000
0c30063000
0cc0023000
0d00003000
0c00003000
0c00003000
0ffffff000
0800003000
0800003000
0800001000
0000000000
0000000000
0000000000
0000000000
ENDCHAR
STARTCHAR 2324
ENCODING 8996
SWIDTH 1020 0
DWIDTH 34 0
BBX 34 35 0 -4
BITMAP
0000000000
0000000000
0080001000
00e0001e00
00c0001800
00c0001800
00c0039800
00c1031800
20c1831800
1fffc31800
00c1831800
00c1831800
00c1831800
00c1831800
00c1831800
00c1831800
00c1b31800
7ffffb1800
00c0031800
0080031800
00c0031800
01a0031800
0198031800
010c031800
0306001800
0203001800
0601801800
0401c01800
0800c01800
100003f800
6000007000
0000002000
0000000000
0000000000
0000000000
ENDCHAR
STARTCHAR 2325
ENCODING 8997
SWIDTH 1020 0
DWIDTH 34 0
BBX 34 35 0 -4
BITMAP
0000000000
0000000000
0200001000
0380001e00
0200001800
0600621800
07fff39800
0c00031800
0800031800
1800831800
1401c31800
23ffc31800
4000031800
0000031800
0000831800
1fffc31800
0001e31800
0003031800
0006031800
001c031800
0038031800
0060031800
00c0031800
0180021800
0300101800
0600101800
0c00201800
0800301800
0c00301800
0ffff1f800
01ff803000
0000000000
0000000000
0000000000
0000000000
ENDCHAR
STARTCHAR 2326
ENCODING 8998
SWIDTH 1020 0
DWIDTH 34 0
BBX 34 35 0 -4
BITMAP
0000000000
0000000000
0000000000
0000002000
0ffffff800
0006007000
0006006000
0006006000
0004006000
000c006000
0018006000
0030004000
006040c000
00c07fc000
0700078000
1800040000
0000000000
2002000c00
1fff7ffe00
0106060c00
0106060800
0106040800
0306040800
02060c1800
02060c1800
0604081800
0404181000
0c0c301000
090c623000
30f8c1e000
603180c000
0000000000
0000000000
0000000000
0000000000
ENDCHAR
STARTCHAR 2327
ENCODING 8999
SWIDTH 1020 0
DWIDTH 34 0
BBX 34 35 0 -4
BITMAP
0000000000
0000000000
0040001000
0078001e00
0060001800
0060001800
0060061800
0060c79800
7ffff61800
0403061800
0403061800
0402061800
0202061800
0202061800
0206061800
0206061800
0104061800
0104061800
018c061800
0088061800
00d8061800
0050061800
0070061800
0030061800
0078001800
00cc001800
0186001800
0303801800
0601e01800
0800f3f800
3000003800
0000002000
0000000000
0000000000
0000000000
ENDCHAR
STARTCHAR 2328
ENCODING 9000
SWIDTH 1020 0
DWIDTH 34 0
BBX 34 35 0 -4
BITMAP
0000000000
0000000000
0000080000
0000070000
0000060000
0008060000
201c060000
1ffe060000
0000060400
0000fffe00
0000060e00
0000040c00
0000040c00
0006040c00
7fff040c00
4180040c00
0300040c00
03000c0c00
03000c0800
02000c0800
0208080800
0404080800
0406180800
0402100800
081f101800
09e1301800
7f01601800
3800403000
2000883000
000107f000
000600c000
0000000000
0000000000
0000000000
0000000000
ENDCHAR
STARTCHAR 2329
ENCODING 9001
SWIDTH 1020 0
DWIDTH 34 0
BBX 34 35 0 -4
BITMAP
0000000000
0000000000
0001000000
0001c00000
0001800000
0001800000
0001802000
1001807800
1ffffff800
0001800000
0001800000
0001800000
00e181c000
00c1818000
00c1818000
00c0018000
00c0018000
00c0018000
00c4018800
20c6419c00
3fff3ffe00
0080018000
0080018000
0080018000
0180018000
0100018000
0300018000
0200018000
0400018000
0c00010000
1000010000
2000000000
0000000000
0000000000
0000000000
ENDCHAR
STARTCHAR 232a
ENCODING 9002
SWIDTH 1020 0
DWIDTH 34 0
BBX 34 35 0 -4
BITMAP
0000000000
0000000000
0001000000
0001c00000
0001800000
0001800000
0001802000
1001807000
1ffffff800
0001800000
0001800000
0081820000
00e1838000
00c1830000
00c1830000
00c0030000
00c0030800
00c0031c00
7ffffffe00
00c0030000
00c0030000
00c0030000
00c0030000
00c0030000
00c0030000
00c0030000
00c0030000
00c0030000
00ffff0000
00c0030000
0080030000
0080020000
0000000000
0000000000
0000000000
ENDCHAR
STARTCHAR 232b
ENCODING 9003
SWIDTH 1020 0
DWIDTH 34 0
BBX 34 35 0 -4
BITMAP
0000000000
0000000000
0400300000
0700380000
0600300000
0600300000
0600300000
0600300000
0608303000
0647fff800
4660303000
3ff0303000
0600303000
0600303000
0600303000
0602303000
0602202800
0606202c00
0604202400
060c602600
0618602200
0610402000
0600402000
0600c06000
0600806000
0601006000
0601004000
0602004000
060400c000
06083f8000
0630038000
0400000000
0000000000
0000000000
0000000000
ENDCHAR
STARTCHAR 232c
ENCODING 9004
SWIDTH 1020 0
DWIDTH 34 0
BBX 34 35 0 -4
BITMAP
0000000000
0000000000
0000002000
0000003000
3ffffffc00
0001800000
0003800000
0007c00000
000fec0000
0019838000
007180c000
00c1807000
0701803800
3c01801800
0001800000
0001800000
0000000000
0001000000
0001e00000
0001800000
0001801000
0001801800
3ffffffc00
0001800000
0001800000
0001800000
0001800000
0001800000
0001800000
0001800000
0001800000
0001800000
0000000000
0000000000
0000000000
ENDCHAR
STARTCHAR 232d
ENCODING 9005
SWIDTH 1020 0
DWIDTH 34 0
BBX 34 35 0 -4
BITMAP
0000000000
0000000000
0000000000
0001003000
1c01fff800
1c01800000
1801800000
1801800000
1801800000
1801800000
1801800000
1801800000
1801800000
1801800000
1801800000
1801801800
1ffffffc00
1801801800
1801801800
0001801800
0001801800
0001801800
0001801800
0001801800
0001801800
0001801800
0001801800
0001801800
0001801800
1fff801800
0001801800
0000000000
0000000000
0000000000
0000000000
ENDCHAR
STARTCHAR 232e
ENCODING 9006
SWIDTH 1020 0
DWIDTH 34 0
BBX 34 35 0 -4
BITMAP
0000000000
0000000000
0000000000
1000001800
0ffffffc00
0800000000
0800000000
0800000000
0800001000
0900003800
08fffffc00
0800c00000
0801800000
0801800000
0801020000
0802038000
0846030000
0834060000
0818040000
080c0c0000
0806180000
1803100000
1802300000
1800608000
1000c08000
1000804000
1001002000
3006003000
200fffd800
21ffc01800
4080000800
4080000000
0000000000
0000000000
0000000000
ENDCHAR
STARTCHAR 232f
ENCODING 9007
SWIDTH 1020 0
DWIDTH 34 0
BBX 34 35 0 -4
BITMAP
0000000000
0000000000
0000000000
1000001000
0800003800
0ffffffc00
0800000000
0800000000
0800700000
0800700000
0800600000
0800600000
0800600000
0800600000
0800600000
0800606000
08fffff800
0800600000
0800600000
0800600000
0800600000
0800610000
1800608000
180060c000
1800606000
1000602000
1000600000
1000600800
2000601800
23fffffe00
4000000000
4000000000
0000000000
0000000000
0000000000
ENDCHAR
STARTCHAR 2330
ENCODING 9008
SWIDTH 1020 0
DWIDTH 34 0
BBX 34 35 0 -4
BITMAP
0000000000
0000000000
0000000000
1000001800
0ffffffc00
0800000000
0800000000
0800600000
0800f00000
0800d00000
0801880000
08030c0000
0806060000
080c018000
081800c000
0830067800
084fff3e00
0980000800
0a00000000
0800000000
0880004000
187fffe000
180000e000
1800018000
1000018000
1000030000
1000060000
1000060000
20000c0000
2000180000
4000100000
0000200000
0000000000
0000000000
0000000000
ENDCHAR
STARTCHAR 2331
ENCODING 9009
SWIDTH 1020 0
DWIDTH 34 0
BBX 34 35 0 -4
BITMAP
0000000000
0000000000
0000000000
0000008000
3fffffc000
000000e000
0000008000
000e008000
000c008000
000c008000
000c008000
000c188000
1ffffc8000
000c00c000
000c00c000
000c004200
000c004200
000c046400
000c062400
3fffff3400
0018001c00
0030001c00
0030000e00
0020200000
0040100000
00c0080000
0080040000
01003e0000
01ffc30000
3ff0030000
1000010000
1000000000
0000000000
0000000000
0000000000
ENDCHAR
STARTCHAR 2332
ENCODING 9010
SWIDTH 1020 0
DWIDTH 34 0
BBX 34 35 0 -4
BITMAP
0000000000
0000000000
0001000000
0001c00000
0001800000
0801806000
0ffffff000
0c01806000
0c01806000
0c01806000
0c01806000
0c01806000
0c01806000
0fffffe000
0c01006000
0001000000
0001000000
000000c000
1fffffe000
010000c000
0080018000
0040030000
0020060000
00180c0000
000c380000
0003600000
0001e00000
00077c0000
00380fc000
00e001fe00
0f00003000
3000000000
0000000000
0000000000
0000000000
ENDCHAR
STARTCHAR 2333
ENCODING 9011
SWIDTH 1020 0
DWIDTH 34 0
BBX 34 35 0 -4
BITMAP
0000000000
0000000000
0000008000
1000018000
0fffffc000
00c0018000
0060030000
0030060000
00180c0000
000c180000
0003300000
0001e00000
0003f00000
001c3e0000
00f00ff000
1f0001c000
0000000000
4004001800
3ffffffc00
080e103800
040c103000
0418102000
0218086000
0210084000
013004c000
00e0068000
00e0030000
00f803c000
031f0c7000
0407303e00
1801e00c00
6000000000
0000000000
0000000000
0000000000
ENDCHAR
STARTCHAR 2334
ENCODING 9012
SWIDTH 1020 0
DWIDTH 34 0
BBX 34 35 0 -4
BITMAP
0000000000
0000000000
0000000000
0020001800
0018001c00
000c003000
2026002000
1033006000
1ff980c000
1860c18000
1860c30000
1860440000
1860380000
1860380000
1860300000
1860300000
1860300000
1860300000
1860300000
1860300000
1860300000
1860300000
1fe0300000
1020300000
1020300000
1000300000
0000300000
0000300000
0000300000
0000300000
0000100000
0000100000
0000000000
0000000000
0000000000
ENDCHAR
STARTCHAR 2335
ENCODING 9013
SWIDTH 1020 0
DWIDTH 34 0
BBX 34 35 0 -4
BITMAP
0000000000
0000000000
0000000000
0000000000
0000001000
3068003800
3ff7fffc00
3060180000
3060180000
3060180000
3060180000
3060180000
3060180000
3060180000
3060180000
3060180000
3060180000
3060180000
3060180000
3060180000
3060180000
3060180000
3fe0180000
3060180000
3040180000
3000180000
0000180000
0000180800
0000181c00
007ffffe00
0000000000
0000000000
0000000000
0000000000
0000000000
ENDCHAR
STARTCHAR 2336
ENCODING 9014
SWIDTH 1020 0
DWIDTH 34 0
BBX 34 35 0 -4
BITMAP
0000000000
0000000000
0000000000
0004001000
0006001800
3067fffc00
3ff2001800
30c2001800
30c2001800
30c2001800
30c2001800
30c2001800
30c2001800
30c6001800
30c6001800
30c7fff800
30c6001800
30c6001800
30c6000000
30c6000000
30c4000000
3fc4000000
3044000000
304c000000
300c000000
0008000000
0018000000
0010000000
0030000000
0020000000
0040000000
0080000000
0000000000
0000000000
0000000000
ENDCHAR
STARTCHAR 2337
ENCODING 9015
SWIDTH 1020 0
DWIDTH 34 0
BBX 34 35 0 -4
BITMAP
0000000000
0000000000
0000002000
000000f800
000007c000
2041fc0000
3fef0c0000
30c00c0000
30c00c0000
30c00c0000
30c00c0000
30c00c0000
30c00c0000
30c00c0000
30c00c0800
30c00c1c00
30dffffe00
30c00c0000
30c00c0000
30c00c0000
30c00c0000
30c00c0000
30c00c0000
3fc00c0000
30400c0000
30000c0000
30000c0000
30000c0000
00000c0000
0000080000
0000080000
0000000000
0000000000
0000000000
0000000000
ENDCHAR
STARTCHAR 2338
ENCODING 9016
SWIDTH 1020 0
DWIDTH 34 0
BBX 34 35 0 -4
BITMAP
0000000000
0000000000
0000000000
0400004000
0400006000
07fffff000
0600006000
0600006000
0600006000
0600006000
0600006000
0600006000
0600006000
07ffffe000
0600006000
0602004000
0001c00000
0001000000
0003000800
4003001e00
3ffffffe00
0003800000
0006400000
0006200000
000c300000
00181c0000
00300e0000
00e003c000
018000f000
0600007e00
3800000800
4000000000
0000000000
0000000000
0000000000
ENDCHAR
STARTCHAR 2339
ENCODING 9017
SWIDTH 1020 0
DWIDTH 34 0
BBX 34 35 0 -4
BITMAP
0000000000
0000000000
0000000000
1004400800
180e401c00
1ffe7ffc00
180c601800
180c601800
180c601800
180c601800
180c601800
180c601800
180c601800
180c601800
180c601800
180c601800
180c601800
180c601800
180c601800
180c601800
180c601800
180c601800
180c601800
180c601800
180c601800
180c601800
180c601800
1ffc7ff800
180c601800
180c601800
1808400800
0000000000
0000000000
0000000000
0000000000
ENDCHAR
STARTCHAR 233a
ENCODING 9018
SWIDTH 1020 0
DWIDTH 34 0
BBX 34 35 0 -4
BITMAP
0000000000
0000000000
0000000000
0000000800
0000001c00
205ffffe00
30e0180000
3fe0180000
30c0180000
30c0180000
30c0180000
30c0180000
30c01c0000
30c01a0000
30c0198000
30c018c000
30c0187000
30c0183800
30c0181c00
30c0180c00
30c0180000
30c0180000
3fc0180000
3040180000
3040180000
3000180000
0000180000
0000180000
0000180000
0000180000
0000180000
0000000000
0000000000
0000000000
0000000000
ENDCHAR
STARTCHAR 233b
ENCODING 9019
SWIDTH 1020 0
DWIDTH 34 0
BBX 34 35 0 -4
BITMAP
0000000000
0000000000
0000000000
0100008000
01ffffc000
018001c000
0180018000
0180018000
0180018000
0180018000
0180018000
0180018000
0180018000
01ffff8000
0180008000
0180008000
0000000000
0800002000
0c00003000
0ffffff800
0c00003000
0c00003000
0c00003000
0c00003000
0c00003000
0c00003000
0c00003000
0c00003000
0ffffff000
0c00003000
0c00003000
0000000000
0000000000
0000000000
0000000000
ENDCHAR
STARTCHAR 233c
ENCODING 9020
SWIDTH 1020 0
DWIDTH 34 0
BBX 34 35 0 -4
BITMAP
0000000000
0000000000
0000000000
0000080000
00001e0000
0000180000
3060180000
3ff0100000
3060300000
3060300000
3060200000
3060600000
3060418000
3060c1c000
3060830000
3061830000
3061030000
3061060000
3062060000
30660c0000
30640c0000
3068180000
3070104000
3fe0302000
3060201000
3040401800
3000800c00
0001003c00
00027fc600
001ff00600
0018000600
0008000000
0000000000
0000000000
0000000000
ENDCHAR
STARTCHAR 233d
ENCODING 9021
SWIDTH 1020 0
DWIDTH 34 0
BBX 34 35 0 -4
BITMAP
0000000000
0000000000
0000000000
1000001800
1ffffffc00
1800001800
1810001800
180e1c1800
180c181800
180c181800
180c181800
180c181800
180c181800
180c191800
180c199800
1bffffd800
1808181800
1808181800
1808181800
1818181800
1818181800
1810181800
1810181800
1820181800
1860181800
18c0181800
1980181800
1800001800
1800001800
1ffffff800
1800001800
1000000800
0000000000
0000000000
0000000000
ENDCHAR
STARTCHAR 233e
ENCODING 9022
SWIDTH 1020 0
DWIDTH 34 0
BBX 34 35 0 -4
BITMAP
0000000000
0000000000
0000000000
1800001800
1ffffffc00
1800001800
1800181800
18001c1800
1800181800
1800181800
1800189800
1a0019d800
19fffff800
1800181800
1800181800
1820181800
1810181800
1818181800
180c181800
1804181800
1804181800
1800181800
1800181800
1800181800
1803f81800
1800701800
1800201800
1800001800
1800001800
1ffffff800
1800001800
0800001000
0000000000
0000000000
0000000000
ENDCHAR
STARTCHAR 233f
ENCODING 9023
SWIDTH 1020 0
DWIDTH 34 0
BBX 34 35 0 -4
BITMAP
0000000000
0000000000
0000800000
0300700000
0380600000
0300600000
0300600000
0300600000
0300600000
0300600000
0300600000
0320600000
3ff8601000
0300603800
03007ffc00
0300600000
0300600000
0300600000
0300600000
0300600000
0300600000
0300600000
0308600000
0330600000
0360600000
0380600000
1e00600000
7c00600000
2000600800
2060601c00
003ffffe00
0000000000
0000000000
0000000000
0000000000
ENDCHAR
STARTCHAR 2340
ENCODING 9024
SWIDTH 1020 0
DWIDTH 34 0
BBX 34 35 0 -4
BITMAP
0000000000
0000000000
0001000000
0003c00000
0003000000
0003000000
0006001800
2006003c00
3ffffffc00
0008100000
0018180000
00300c0000
0060060000
00c0030000
0180018000
0301c0e000
0601807800
0c01801e00
7001800800
4001808000
000181c000
03ffffe000
0001800000
0001800000
0001800000
0001800000
0001800000
0001801000
0001801800
3ffffffc00
0000000000
0000000000
0000000000
0000000000
0000000000
ENDCHAR
STARTCHAR 2341
ENCODING 9025
SWIDTH 1020 0
DWIDTH 34 0
BBX 34 35 0 -4
BITMAP
0000000000
0000000000
0000000000
00180c0000
007c0f0000
03e00c0000
3f800c0000
01800c0000
01800c0000
01800c0000
01800c0000
01800c0000
01800c1800
0183fffc00
018a0c0000
218c0c0000
3ffe0c0000
01800c0000
01000c0000
01000c0000
01000c0000
01000c0000
03000c0000
03000c0000
02000c0000
02000c0000
04000c0000
04000c0800
08000c1c00
100ffffe00
1000000000
0000000000
0000000000
0000000000
0000000000
ENDCHAR
STARTCHAR 2342
ENCODING 9026
SWIDTH 1020 0
DWIDTH 34 0
BBX 34 35 0 -4
BITMAP
0000000000
0000000000
0000002000
038000f000
038003c800
03003e0000
030fec0000
03000c0000
03000c0000
03000c0000
03200c0000
43300c0000
3ff80c0000
03000c0000
03000c0800
03100c1c00
030ffffe00
03000c0000
03000c0000
03000c0000
03000c0000
03000c0000
03180c0000
03600c0000
03800c0000
3e000c0000
78000c0000
20000c0000
00000c0000
00000c0000
00000c0000
0000000000
0000000000
0000000000
0000000000
ENDCHAR
STARTCHAR 2343
ENCODING 9027
SWIDTH 1020 0
DWIDTH 34 0
BBX 34 35 0 -4
BITMAP
0000000000
0000000000
0000000000
00700f0000
00600c0000
00600c0000
20600c0000
18600c0000
0c600c0000
06600c0000
03600c0000
01600c0000
00600c1800
0067fffe00
00640c0000
00600c0000
00600c0000
00600c0000
00600c0000
00e00c0000
01600c0000
06600c0000
1c600c0000
38600c0000
10600c0000
10600c0000
00600c0000
00600c1000
00600c1800
0067fffc00
0060000000
0020000000
0000000000
0000000000
0000000000
ENDCHAR
STARTCHAR 2344
ENCODING 9028
SWIDTH 1020 0
DWIDTH 34 0
BBX 34 35 0 -4
BITMAP
0000000000
0000000000
0020000000
003c000000
0060030000
007fffc000
00c0038000
01e0060000
06300c0000
0808380000
1006700000
0003c00000
0007f00000
003c1f0000
01e003f800
1e01c07e00
6001800000
0001808000
040181c000
07ffffe000
0601800000
0601800000
0601800000
0601802000
0601807000
07fffff800
0601800000
0601800000
0001800000
0001800000
0001800000
0001800000
0000000000
0000000000
0000000000
ENDCHAR
STARTCHAR 2345
ENCODING 9029
SWIDTH 1020 0
DWIDTH 34 0
BBX 34 35 0 -4
BITMAP
0000000000
0000000000
0000010000
00000f8000
0000fe4000
003fc00000
0fc3000000
0003000000
0003000000
0006001800
7ffffffe00
000c200000
0018100000
0030080000
0060040000
00c0030000
01c0098000
03380ee000
0c300c7800
18300c3e00
20200c0c00
00200c0000
00200c0000
00200c0000
00600c0000
00600c0000
00c00c0000
00800c0000
01800c0000
03000c0000
0c000c0000
1800000000
0000000000
0000000000
0000000000
ENDCHAR
STARTCHAR 2346
ENCODING 9030
SWIDTH 1020 0
DWIDTH 34 0
BBX 34 35 0 -4
BITMAP
0000000000
0000000000
0001000000
0003c00000
0003000000
0006001000
0006003800
7ffffffc00
000c200000
0018100000
00300c0000
0060060000
00c0030000
018001c000
06780f7800
0c600e3e00
30600c0800
40600c0000
00600c0000
00600c1c00
7ffffffe00
00600c0000
00600c0000
00400c0000
00c00c0000
00800c0000
01800c0000
01000c0000
02000c0000
04000c0000
08000c0000
1000040000
0000000000
0000000000
0000000000
ENDCHAR
STARTCHAR 2347
ENCODING 9031
SWIDTH 1020 0
DWIDTH 34 0
BBX 34 35 0 -4
BITMAP
0000000000
0000000000
0100040000
01c0070000
0180020000
0180020000
0180020000
0080020000
0180020000
0180020000
0188020800
218c821c00
3ffe7ffe00
0180060000
0180060000
01c0070000
01c0070000
0140050000
0140050000
0120048000
01200c8000
03300c8000
0210084000
0218084000
060c186000
040c102000
0c07203000
0803601800
1800c01c00
2001800e00
4003000400
0000000000
0000000000
0000000000
0000000000
ENDCHAR
STARTCHAR 2348
ENCODING 9032
SWIDTH 1020 0
DWIDTH 34 0
BBX 34 35 0 -4
BITMAP
0000000000
0000000000
0002000000
0001c00000
0001000000
0003003000
3ffffffc00
2003800000
0006c00000
0006400000
000c200000
0018180000
00300c0000
0060070000
018001e000
0700007e00
3801001800
0001c00000
0001000000
0003001800
3ffffffc00
0003800000
0006c00000
0006400000
000c200000
0018180000
00100c0000
0060070000
008001e000
030000fe00
1c00001800
2000000000
0000000000
0000000000
0000000000
ENDCHAR
STARTCHAR 2349
ENCODING 9033
SWIDTH 1020 0
DWIDTH 34 0
BBX 34 35 0 -4
BITMAP
0000000000
0000000000
0200000000
01c0004000
0107fff000
0300606000
0300606000
0200606000
0210606000
3ff0606000
2638606000
0430606000
0430606000
0c30606000
0c20626000
0828636000
1827ffe000
1860606000
1060606000
3040606000
3840606000
26c0606000
6380606000
01c0606000
01e0606400
0360606400
0630606400
0410606400
0800606400
1000407e00
2000403c00
0000000000
0000000000
0000000000
0000000000
ENDCHAR
STARTCHAR 234a
ENCODING 9034
SWIDTH 1020 0
DWIDTH 34 0
BBX 34 35 0 -4
BITMAP
0000000000
0000000000
0100200000
01c0180000
0300130000
0300118000
020010c000
0200106000
0220100000
7ff0101000
043c101800
0433fffc00
0420180000
0c20180000
0820180000
1860180000
1860080000
1060080000
3040080000
30400c0000
38c00c0000
6480040000
2380060000
0180060400
01c0030400
0260010800
0630018800
0c1000c800
0800007800
1000003c00
2000000c00
0000000000
0000000000
0000000000
0000000000
ENDCHAR
STARTCHAR 234b
ENCODING 9035
SWIDTH 1020 0
DWIDTH 34 0
BBX 34 35 0 -4
BITMAP
0000000000
0000000000
0100400000
01c0780000
0100600000
0100600000
0300408000
0300c1c000
0210ffe000
3ff881c000
0619818000
0411018000
0431010000
0c32030000
0c32030000
0824020000
1820060000
1820060000
1060060000
30400d0000
38400d0000
66c0090000
2180188000
01c0308000
016020c000
0270606000
0630c06000
0401803800
0803001c00
1006000e00
2008000800
0010000000
0000000000
0000000000
0000000000
ENDCHAR
STARTCHAR 234c
ENCODING 9036
SWIDTH 1020 0
DWIDTH 34 0
BBX 34 35 0 -4
BITMAP
0000000000
0000000000
0004000000
0007000000
000c000000
0018001800
3ffffffc00
00300c0000
0060080000
00c0180000
01c0300000
033f600000
0200f00000
00031f0000
001c03c000
1fe200e000
0007800000
0006000800
400c001c00
3ffffffe00
00180c0000
00300c0000
0060180000
00c0180000
01f8300000
0307e00000
0000fc0000
000387c000
000e01f000
0078003800
3f80000c00
0000000000
0000000000
0000000000
0000000000
ENDCHAR
STARTCHAR 234d
ENCODING 9037
SWIDTH 1020 0
DWIDTH 34 0
BBX 34 35 0 -4
BITMAP
0000000000
0000000000
0080100000
00700e0000
0060080000
0060180000
2060180000
1060180000
0860100000
0c60300800
0668301c00
0367fffe00
0260203000
0060602000
0060602000
0060402000
0060c02000
0060c06000
0061804000
00e1804000
036180c000
0663c08000
1c63318000
70620d8000
3060030000
106007c000
00600c6000
0060183800
0060201c00
0061c00c00
004e000400
0040000000
0000000000
0000000000
0000000000
ENDCHAR
STARTCHAR 234e
ENCODING 9038
SWIDTH 1020 0
DWIDTH 34 0
BBX 34 35 0 -4
BITMAP
0000000000
0000000000
0080804000
00e0e07000
018080c000
010180c000
0301018000
0602010000
140c060000
0c04030000
0603018000
030180e000
0181807000
00c0c03000
0000000000
0400020000
03ffff8000
00000c0000
0000180000
0001a00000
0001c00000
0001800800
4001801c00
3ffffffe00
0001800000
0001800000
0001800000
0001800000
0001800000
0031800000
000f800000
0003000000
0000000000
0000000000
0000000000
ENDCHAR
STARTCHAR 234f
ENCODING 9039
SWIDTH 1020 0
DWIDTH 34 0
BBX 34 35 0 -4
BITMAP
0000000000
0000000000
0001c00000
0001c00000
0801800000
0801801800
0ffffffc00
0800001800
1808003000
300f002000
7018004000
0018000000
0018180000
003ffc0000
0020380000
0060300000
00c0200000
0080600000
0100600000
0200e00000
0400a00000
0001900000
0001180000
00020c0000
0006060000
000c030000
0010018000
006000e000
0180007800
0300003e00
1c00000800
2000000000
0000000000
0000000000
0000000000
ENDCHAR
STARTCHAR 2350
ENCODING 9040
SWIDTH 1020 0
DWIDTH 34 0
BBX 34 35 0 -4
BITMAP
0000000000
0000000000
0001c00000
0001c00000
0801800000
0801800800
0ffffffe00
0800001800
1000001000
3000003000
3000002000
040000c000
07ffffe000
000000c000
000000c000
020000c000
030000c000
03ffffc000
030000c000
0600000000
0600000000
0c00001000
0ffffff800
1800003000
0000002000
0000006000
0000006000
0000006000
000000c000
0000ff8000
0000070000
0000040000
0000000000
0000000000
0000000000
ENDCHAR
STARTCHAR 2351
ENCODING 9041
SWIDTH 1020 0
DWIDTH 34 0
BBX 34 35 0 -4
BITMAP
0000000000
0000000000
0001c00000
0001c00000
0001804000
0801807800
0401806000
0201804000
030180c000
0181808000
00c1818000
00c1830000
0041860000
0001801000
1ffffff800
1000003800
0000003000
0000003000
0000003000
0000003000
0000003000
0ffffff000
0800003000
0000003000
0000003000
0000003000
0000003000
0000003000
0000003000
1ffffff000
0000001000
0000000000
0000000000
0000000000
0000000000
ENDCHAR
STARTCHAR 2352
ENCODING 9042
SWIDTH 1020 0
DWIDTH 34 0
BBX 34 35 0 -4
BITMAP
0000000000
0000000000
0001000000
0001e00000
0001800000
0081800000
00f1860000
00c1810000
018180c000
0101806000
0301803000
0601801800
0c01801800
101f800c00
2007800000
0003000000
0000000000
0001800000
0001c00000
0001800000
0001800000
0001806000
0ffffff000
0001800000
0001800000
0001800000
0001800000
0001800000
0001800800
4001801c00
7ffffffe00
0000000000
0000000000
0000000000
0000000000
ENDCHAR
STARTCHAR 2353
ENCODING 9043
SWIDTH 1020 0
DWIDTH 34 0
BBX 34 35 0 -4
BITMAP
0000000000
0000000000
0000000000
0800001000
0ffffff800
0c00003000
0c00003000
0c00003000
0c00003000
0ffffff000
0400001000
0c00000000
0c00004000
0c3fffe000
0c0000f000
0c00030000
0c00060000
0c00780000
0c00380000
0c00300800
0800301c00
09fffffe00
0800300000
0800300000
1800300000
1800300000
1000300000
1000300000
2000300000
2007f00000
4000e00000
0000800000
0000000000
0000000000
0000000000
ENDCHAR
STARTCHAR 2354
ENCODING 9044
SWIDTH 1020 0
DWIDTH 34 0
BBX 34 35 0 -4
BITMAP
0000000000
0000000000
0000000000
020000c000
03ffffe000
020000c000
020000c000
020000c000
020000c000
020000c000
020000c000
03ffffc000
020010c000
0200104000
0200080000
0200080000
02100c0000
020e040000
0603860000
0600e30000
0600718000
0400218000
040000e000
0c20007000
081c001e00
0807000800
1001c00000
1000700000
2000380000
40001c0000
0000040000
0000000000
0000000000
0000000000
0000000000
ENDCHAR
STARTCHAR 2355
ENCODING 9045
SWIDTH 1020 0
DWIDTH 34 0
BBX 34 35 0 -4
BITMAP
0000000000
0000000000
0000000000
03c0001000
0300001800
0307fffc00
03000c0000
03000c0000
3b1c0c0000
33180c0000
33180c0000
33180c0000
33180c0000
33180c0000
33180c0000
33180c0000
33180c0000
33180c0000
33180c0000
33180c0000
33180c0000
33180c0000
33180c0000
33180c0000
3ff80c0000
30100c0000
20100c0000
20000c0800
00000c1c00
001ffffe00
0000000000
0000000000
0000000000
0000000000
0000000000
ENDCHAR
STARTCHAR 2356
ENCODING 9046
SWIDTH 1020 0
DWIDTH 34 0
BBX 34 35 0 -4
BITMAP
0000000000
0000000000
0000000000
03c0000000
0300001800
0307fffc00
0300003000
0300006000
3b1c00c000
3318010000
33180a0000
33180e0000
33180c0000
33180c0000
33180c0000
33180c0800
331c0c1c00
331ffffe00
33180c0000
33180c0000
33180c0000
33180c0000
33180c0000
33180c0000
3ff80c0000
30100c0000
20100c0000
20000c0000
00000c0000
0001fc0000
0000380000
0000000000
0000000000
0000000000
0000000000
ENDCHAR
STARTCHAR 2357
ENCODING 9047
SWIDTH 1020 0
DWIDTH 34 0
BBX 34 35 0 -4
BITMAP
0000000000
0000000000
0001c00000
0003800000
0003000800
0002001c00
7ffffffe00
0006400000
000c200000
0018100000
0030180000
00600c0000
0060060000
0180038000
030000c000
0602007000
0c03c03e00
3003000c00
5003000000
1c03003800
1803003000
1803003000
1803003000
1803003000
1803003000
1803003000
1803003000
1803003000
1803003000
1ffffff000
0800003000
0800000000
0000000000
0000000000
0000000000
ENDCHAR
STARTCHAR 2358
ENCODING 9048
SWIDTH 1020 0
DWIDTH 34 0
BBX 34 35 0 -4
BITMAP
0000000000
0000000000
0000004000
0000006000
1fffffe000
000000c000
000000c000
000000c000
000000c000
0c0000c000
0fffffc000
0c00004000
0c00000800
0c00000800
0c00000800
0c00001800
0780007c00
01ffffe000
0000000000
0001800000
1c01e01c00
1c01801c00
1801801800
1801801800
1801801800
1801801800
1801801800
1801801800
1801801800
1ffffff800
1800000800
0800000000
0000000000
0000000000
0000000000
ENDCHAR
STARTCHAR 2359
ENCODING 9049
SWIDTH 1020 0
DWIDTH 34 0
BBX 34 35 0 -4
BITMAP
0000000000
0000000000
0000000000
03c1801000
0301fffc00
0301803000
0301803000
0301803000
3b1d803000
3319803000
3319803000
3319803000
3319803000
3319803000
3319fff000
3319801000
3319801000
3319801000
3319800000
3319800000
3319800000
3319800000
3319800000
3319800800
3ff9800400
3011800400
2011800400
2001800c00
0001c00e00
0000fffe00
00001fe000
0000000000
0000000000
0000000000
0000000000
ENDCHAR
STARTCHAR 235a
ENCODING 9050
SWIDTH 1020 0
DWIDTH 34 0
BBX 34 35 0 -4
BITMAP
0000000000
0000000000
0001000000
0001e00000
0001800000
0001800000
0e01803c00
0e01803800
0c01803000
0c01803000
0c01803000
0c01803000
0c01803000
0c01803000
0c01803000
0ffffff000
0c00003000
0001800000
0001e00000
0001800000
1e01801c00
1c01801c00
1801801800
1801801800
1801801800
1801801800
1801801800
1801801800
1801801800
1ffffff000
1800001000
1800000000
0000000000
0000000000
0000000000
ENDCHAR
STARTCHAR 235b
ENCODING 9051
SWIDTH 1020 0
DWIDTH 34 0
BBX 34 35 0 -4
BITMAP
0000000000
0000000000
0800000000
0f00800000
0c00e00000
0c00c00000
0c01800000
0c01800000
0c03800000
0c07f00000
0c063c0000
0c1c0f0000
0c30030000
0c40014000
0c00006000
07fffff000
0400000000
01c2020000
01e3c38000
0083030000
0083030000
0183030000
0183030000
0183030000
0183030400
0303030400
0303030400
0603030400
0e01030400
180103fe00
700001fc00
0000000000
0000000000
0000000000
0000000000
ENDCHAR
STARTCHAR 235c
ENCODING 9052
SWIDTH 1020 0
DWIDTH 34 0
BBX 34 35 0 -4
BITMAP
0000000000
0000000000
0100000000
01e0001c00
018ffffe00
01800c0000
01800c0000
01800c0000
01800c0000
41800c0000
218c0c0800
118ffffc00
198c0c1800
0d8c0c1800
0d8c0c1800
058c0c1800
018c0c1800
018c0c1800
018c0c1800
018c0c1800
018c0c1800
018c0c1800
010c0c1800
030c0c1800
030c0c1800
020c0d9800
06040cf800
04040c3000
0c000c0000
18000c0000
30000c0000
4000080000
0000000000
0000000000
0000000000
ENDCHAR
STARTCHAR 235d
ENCODING 9053
SWIDTH 1020 0
DWIDTH 34 0
BBX 34 35 0 -4
BITMAP
0000000000
0000000000
02000c0000
03800e0000
0300080000
0301188000
030190c000
4310ffc000
7ffc818000
6338818000
6330818000
6330818000
6330818000
6330818000
6330818000
6330818000
6330818000
6330818000
6330818000
6330818000
6330818000
6331818000
23f1818000
2371818000
2321018400
0303018400
0302018400
0306018400
0304018c00
030c01fe00
0318007800
0210000000
0000000000
0000000000
0000000000
ENDCHAR
STARTCHAR 235e
ENCODING 9054
SWIDTH 1020 0
DWIDTH 34 0
BBX 34 35 0 -4
BITMAP
0000000000
0000000000
0000800000
0000e00000
0000c00800
0800c01c00
0ffffffe00
0c00000000
0c01800000
0c03c00000
0c03000000
0c03020000
0c06030000
0c07ff8000
0c0c020000
0c08060000
0c18040000
08300c0000
08200c0000
0840180000
0880140000
0800340000
0800620000
0800430000
1800c10000
1801018000
100600c000
100c007000
2030003800
20c0001f00
4700000400
4000000000
0000000000
0000000000
0000000000
ENDCHAR
STARTCHAR 235f
ENCODING 9055
SWIDTH 1020 0
DWIDTH 34 0
BBX 34 35 0 -4
BITMAP
0000000000
0000000000
0000800000
0000e00000
0000c01000
0800c01c00
0ffffffc00
0c00000000
0c00000000
0c00004000
0c3ffff000
0c00300000
0c00300000
0c00300000
0c00300000
0c00300000
0c00300000
0c00301800
0dfffffe00
0c00300000
0800300000
0800300000
0800300000
0800300000
1800300000
1800300000
1000300000
1000300000
2000300000
2007f00000
4000e00000
4000800000
0000000000
0000000000
0000000000
ENDCHAR
STARTCHAR 2360
ENCODING 9056
SWIDTH 1020 0
DWIDTH 34 0
BBX 34 35 0 -4
BITMAP
0000000000
0000000000
0000800000
0000e00000
1000c00800
1800c01c00
1ffffffe00
1800000000
1800008000
180003c000
18001f0000
1803f00000
09ff800000
1801800000
1801800000
1801800000
1801800000
1801801000
1801801800
1bfffffc00
1801800000
1801800000
1801800000
1001800000
1001800400
1001800400
1001800400
2001800400
2001800e00
2000fffe00
4000000000
4000000000
0000000000
0000000000
0000000000
ENDCHAR
STARTCHAR 2361
ENCODING 9057
SWIDTH 1020 0
DWIDTH 34 0
BBX 34 35 0 -4
BITMAP
0000000000
0000000000
0000000000
0081841000
3fc1e70e00
01c1861800
0101041800
0301041000
02030c1000
0602083000
0402082000
0c06186000
0844104000
1ff4a38000
10e8618000
30c8208000
0084104000
0084106000
0082082000
11830c3000
11830c1000
0901061800
0901861800
0701860800
0600820c00
0600000000
0d80000000
08c0000000
107c000e00
200ffff800
40007ff800
0000000000
0000000000
0000000000
0000000000
ENDCHAR
STARTCHAR 2362
ENCODING 9058
SWIDTH 1020 0
DWIDTH 34 0
BBX 34 35 0 -4
BITMAP
0000000000
0000000000
0000200000
00003b0000
000030c000
0000306000
0000302000
0000301800
7ffffffe00
0000300000
0000300000
0000300000
0000100000
0000100000
0002100000
1003100000
1fff980000
0000180000
0000080000
0000080000
00010c0000
3003cc0000
1fff860200
0000060200
0000030400
0000018400
000040c400
4000e06400
3ffff03c00
0000001c00
0000000e00
0000000000
0000000000
0000000000
0000000000
ENDCHAR
STARTCHAR 2363
ENCODING 9059
SWIDTH 1020 0
DWIDTH 34 0
BBX 34 35 0 -4
BITMAP
0000000000
0000000000
0000800000
0020f00000
3ff0e00000
0060c00000
0061800000
0061800800
0061fffc00
0063001800
1862001800
1fe6001800
182c001800
1808001800
1010001800
1000001800
3001801800
3020c01800
3ff0701800
2020381000
6060181000
00600c1000
0060001000
0060003000
0060003000
0040003000
0040003000
00c0006000
20c0006000
1f803fc000
0700078000
0200020000
0000000000
0000000000
0000000000
ENDCHAR
STARTCHAR 2364
ENCODING 9060
SWIDTH 1020 0
DWIDTH 34 0
BBX 34 35 0 -4
BITMAP
0000000000
0000000000
0000000000
0020002000
3ff2007000
0061fff800
0060000000
0060000000
0060000000
0060000000
1860000800
1fe8001c00
1827fffe00
1800400000
1000c00000
1000800000
3000801000
3021fff800
3ff1001c00
2023001000
6062003000
0060003000
0060003000
0060003000
0040003000
0040006000
00c0006000
00c0006000
008080c000
3f807f8000
07000f0000
0400040000
0000000000
0000000000
0000000000
ENDCHAR
STARTCHAR 2365
ENCODING 9061
SWIDTH 1020 0
DWIDTH 34 0
BBX 34 35 0 -4
BITMAP
0000000000
0000000000
0000000000
000001c000
060001c000
0300030000
0080070000
00400e0000
00300c0000
0018380000
0006700000
0003c00000
0003f00000
000e3c0000
00380f8000
01c003fc00
0e00007e00
3006001000
0003000000
0001c00000
0070c04000
0470606000
0460303000
0460201800
0c60010c00
0860010e00
1860010600
3060010600
6060038000
003fff8000
000ffc0000
0000000000
0000000000
0000000000
0000000000
ENDCHAR
STARTCHAR 2366
ENCODING 9062
SWIDTH 1020 0
DWIDTH 34 0
BBX 34 35 0 -4
BITMAP
0000000000
0000000000
0400000000
0780001000
0600003000
0607fffc00
06000c0000
06000c0000
06000c0000
06800c0000
16c00c0000
16400c0000
36600c0000
36200c0000
26200c0800
66000c1c00
261ffffe00
06000c0000
06000c0000
06000c0000
06000c0000
06000c0000
06000c0000
06000c0000
06000c0000
06000c0000
06000c0000
06000c0000
06000c0000
06000c0000
06000c0000
0200080000
0000000000
0000000000
0000000000
ENDCHAR
STARTCHAR 2367
ENCODING 9063
SWIDTH 1020 0
DWIDTH 34 0
BBX 34 35 0 -4
BITMAP
0000000000
0000000000
0400100000
07801c0000
0600180000
0600180000
0600180000
0604180000
0607181000
0686183800
16c618f800
16661b3000
36661c3000
3626783000
2627983000
660e183000
267e183000
0626183000
0606183000
0606182000
0606182000
0606186000
06061be000
060618c000
0606180400
0606000400
0606000400
0606000400
0606000e00
0607fffe00
0600ffc000
0200000000
0000000000
0000000000
0000000000
ENDCHAR
STARTCHAR 2368
ENCODING 9064
SWIDTH 1020 0
DWIDTH 34 0
BBX 34 35 0 -4
BITMAP
0000000000
0000000000
0400000000
0780000000
0600000800
060ffffe00
0608300c00
0600300800
0640300800
1640300800
1620300800
2630300800
2632300800
2621300800
6600f00800
4600601800
0600301800
06003c1800
06006e1800
0600461800
0600431800
0600c11800
0600801000
0600801000
0601001000
0603003000
0602003000
0604003000
0608106000
06100fe000
066003c000
0200000000
0000000000
0000000000
0000000000
ENDCHAR
STARTCHAR 2369
ENCODING 9065
SWIDTH 1020 0
DWIDTH 34 0
BBX 34 35 0 -4
BITMAP
0000000000
0000000000
0400000000
0381004000
0301ffe000
030180e000
030180c000
030180c000
030180c000
038180c000
134180c000
136180c000
1321a0c000
332190c000
232188c000
63018cc000
630184c000
030186c000
030186c000
030100c000
030100c000
030100c000
030300c000
030300c400
030200c400
030600c400
030400c400
030c00c400
030800cc00
021000fe00
0220000000
0240000000
0000000000
0000000000
0000000000
ENDCHAR
STARTCHAR 236a
ENCODING 9066
SWIDTH 1020 0
DWIDTH 34 0
BBX 34 35 0 -4
BITMAP
0000000000
0000000000
0020000000
001e100000
00180e0000
0018070000
0018030000
0008006000
1ffffff800
000c000000
000c000000
000c004000
000400c000
0ffffff000
0006000000
0006000000
0002000000
0003001800
3ffffffc00
2001800000
0001808000
0000c1e000
0000c30000
0000660000
00007c0000
0000300400
0000fc0400
00038e0c00
001c078c00
00f001ec00
2f0000fe00
3000001c00
0000000000
0000000000
0000000000
ENDCHAR
STARTCHAR 236b
ENCODING 9067
SWIDTH 1020 0
DWIDTH 34 0
BBX 34 35 0 -4
BITMAP
0000000000
0000000000
0000080000
00000e0000
00060c8000
3fff0c6000
080c0c2000
080c0c3000
080c0c2000
040c0c0800
040d0c1c00
040dfffe00
04080c0000
0408040000
0218041000
0218043c00
0218043000
0110062000
0130066000
01b0064000
00a002c000
00e0038000
0060038000
00f0030200
01b0038200
011c048400
020e08c400
0607106400
0c02203c00
1000c01c00
6003000e00
0000000000
0000000000
0000000000
0000000000
ENDCHAR
STARTCHAR 236c
ENCODING 9068
SWIDTH 1020 0
DWIDTH 34 0
BBX 34 35 0 -4
BITMAP
0000000000
0000000000
0400000000
0380002000
0300007000
0303fff800
0300000000
0300000000
0320000000
4370000000
3ff0000800
0308001c00
030ffffe00
0300400000
0300c00000
0310c00000
0360800000
0381801800
0701fffc00
7f03001000
7302001000
2300001000
0300003000
0300003000
0300003000
0300002000
0300006000
0300006000
030080c000
3f007f8000
0e000f0000
0800040000
0000000000
0000000000
0000000000
ENDCHAR
STARTCHAR 236d
ENCODING 9069
SWIDTH 1020 0
DWIDTH 34 0
BBX 34 35 0 -4
BITMAP
0000000000
0000000000
0400000000
0780004000
0608007000
060fffe000
0600c06000
0600c06000
0620c06000
4670c06000
7ff8c06000
0600c06000
0600c06000
0600c06000
0600c26000
0610c36000
061fffe000
0620c06000
07c0c06000
0700c06000
3e00c06000
7e00c06000
2600c06000
0600c06000
0600c06400
0600c06400
0600c06400
0600c06400
0600c06400
7e00c07e00
0e00c03c00
0800000000
0000000000
0000000000
0000000000
ENDCHAR
STARTCHAR 236e
ENCODING 9070
SWIDTH 1020 0
DWIDTH 34 0
BBX 34 35 0 -4
BITMAP
0000000000
0000000000
0400400000
0380780000
0300600000
0300600000
0300600000
0300600000
0320604000
437460e000
3ff3ffe000
030020c000
030020c000
030060c000
030060c000
033660c000
036160c000
0380e0c000
030060c000
1f0070c000
7b0058c000
2300ccc000
2300c6c000
030082c000
030180c400
030100c400
030300c400
030600c400
030c00c400
3f1800fe00
0e60007c00
0880000000
0000000000
0000000000
0000000000
ENDCHAR
STARTCHAR 236f
ENCODING 9071
SWIDTH 1020 0
DWIDTH 34 0
BBX 34 35 0 -4
BITMAP
0000000000
0000000000
0200100000
03800e0000
03000c0000
03000c0000
03000c0000
03000c0000
03200c0000
43700c0000
3ff80c0000
03000c0000
03000c1000
03080c3800
0307fffc00
03100c0000
03300c0000
03c00c0000
03800c0000
1f000c0000
7b000c0000
23000c0000
23000c0000
03000c0000
03000c0000
03000c0000
03000c0000
03000c0800
03200c1c00
3f1ffffe00
0e00000000
0400000000
0000000000
0000000000
0000000000
ENDCHAR
STARTCHAR 2370
ENCODING 9072
SWIDTH 1020 0
DWIDTH 34 0
BBX 34 35 0 -4
BITMAP
0000000000
0000000000
0001000000
0001e00000
0001800800
4001801c00
3ffffffe00
0040070000
00200e0000
00100c0000
0008180000
0004700000
0003e00000
0001800000
0007600000
001c1c0000
007007c000
018001fe00
3f00013c00
40e001c000
00c0018000
00c0018000
00c0018000
00c0018000
0080018000
0180018000
0100018000
0300018000
0600018000
0c00018000
1000018000
2000000000
0000000000
0000000000
0000000000
ENDCHAR
STARTCHAR 2371
ENCODING 9073
SWIDTH 1020 0
DWIDTH 34 0
BBX 34 35 0 -4
BITMAP
0000000000
0000000000
0100000000
01e00e0000
01800c0000
01800c0000
01800c0000
01860c0000
7fff0c0000
04000c0000
04000c0000
04000c0000
04000c0000
04180c0000
07fc1c0000
04181c0000
04181a0000
04181a0000
0418120000
0c18330000
0c10310000
0c10210000
0810618000
0810408000
1810c0c000
1830806000
1031806000
3031003000
2822001c00
47e4001e00
41c8000800
0000000000
0000000000
0000000000
0000000000
ENDCHAR
STARTCHAR 2372
ENCODING 9074
SWIDTH 1020 0
DWIDTH 34 0
BBX 34 35 0 -4
BITMAP
0000000000
0000000000
0000000000
0000000000
1020000800
1ff7fffc00
1860301c00
1860301800
1860301800
1860301800
1860301800
1860301800
1860301800
1860301800
1fe0301800
1860301800
1860201800
1860201800
1860201800
1860601800
1860401000
1860401000
1860801000
1860801000
1fe1803000
1021003000
1022003000
1004003000
0008006000
00100fe000
002001c000
0000000000
0000000000
0000000000
0000000000
ENDCHAR
STARTCHAR 2373
ENCODING 9075
SWIDTH 1020 0
DWIDTH 34 0
BBX 34 35 0 -4
BITMAP
0000000000
0000000000
0000100000
00001e0000
0000180000
20c0180000
3fe0180000
30c0180000
30c0180000
30c0180000
30c0180000
30c0180800
30e0181c00
30dffffe00
30c0180000
3fc0180000
30c0180000
30c0180000
30c0180000
30c0180000
30c0180000
30c0180000
30c0180000
30c0180000
3fc0180000
30c0180000
30c0180000
3000180000
0000180000
0000080000
0000180000
0000080000
0000000000
0000000000
0000000000
ENDCHAR
STARTCHAR 2374
ENCODING 9076
SWIDTH 1020 0
DWIDTH 34 0
BBX 34 35 0 -4
BITMAP
0000000000
0000000000
0001000000
0001e00000
0000800000
0000800000
0400803000
07fffff800
0601803000
0601803000
0601803000
0601803000
0601803000
07fffff000
0600803000
0601803000
0601803000
0601803000
07fffff000
0601c03000
0601403000
0403200000
0002300000
0006180000
000c0c0000
0008060000
0030038000
006001c000
00c000f000
0300007e00
3c00001c00
4000000000
0000000000
0000000000
0000000000
ENDCHAR
STARTCHAR 2375
ENCODING 9077
SWIDTH 1020 0
DWIDTH 34 0
BBX 34 35 0 -4
BITMAP
0000000000
0000000000
0200000000
01c0000000
0180000000
0180000c00
0187fffe00
0190300c00
4198300c00
3ffc300c00
0300300800
0700300800
0700300800
0780300800
05c0300800
05b0300800
0db0200800
0998200800
0998200800
1980600800
1180601800
3180401800
2180401800
4180801800
4180801800
0181001800
0182001000
0182003000
0184083000
011807e000
012000c000
0000000000
0000000000
0000000000
0000000000
ENDCHAR
STARTCHAR 2376
ENCODING 9078
SWIDTH 1020 0
DWIDTH 34 0
BBX 34 35 0 -4
BITMAP
0000000000
0000000000
0200000000
01c8004000
0187ffe000
0180c06000
0180c0c000
0190c0c000
4198c0c000
3ffcc08000
0300c08000
0700c18000
0700c18600
0780c1ff00
05c0c18c00
05b0810c00
0db0800c00
0998800c00
0998800c00
1981800c00
1181800800
3181000800
2181000800
4183001800
4182001800
0182001000
0184001000
0184003000
0188386000
011007c000
0120018000
0000000000
0000000000
0000000000
0000000000
ENDCHAR
STARTCHAR 2377
ENCODING 9079
SWIDTH 1020 0
DWIDTH 34 0
BBX 34 35 0 -4
BITMAP
0000000000
0000000000
0300100000
03c01c0000
0300100000
0300100000
0300100000
0300100000
0310100000
4338300000
3ffc300000
0300300000
0300380000
0700380000
0780380000
0740280000
0f20240000
0b30640000
0b10640000
1b18440000
1300c20000
2300c20000
2300810000
4301810000
0301018000
030300c000
030200e000
0304007000
0308003800
0118001e00
0320000800
0100000000
0000000000
0000000000
0000000000
ENDCHAR
STARTCHAR 2378
ENCODING 9080
SWIDTH 1020 0
DWIDTH 34 0
BBX 34 35 0 -4
BITMAP
0000000000
0000000000
0000000000
0800080000
0ffffc0000
0018180000
0010180000
0010100000
0030303000
00203ff800
0020603000
0060003000
00c0002000
0080002000
0300006000
06000c6000
1801c3c000
2001818000
0001801000
2001803800
1ffffffc00
0007c00000
000da00000
0019980000
00318c0000
00c1830000
018181c000
0601807c00
1801801e00
6001800000
0001800000
0001000000
0000000000
0000000000
0000000000
ENDCHAR
STARTCHAR 2379
ENCODING 9081
SWIDTH 1020 0
DWIDTH 34 0
BBX 34 35 0 -4
BITMAP
0000000000
0000000000
0000200000
0000380000
000c380000
3ffe200000
080c600000
080c600000
0808600c00
08187ffe00
0818c01800
0418881800
04188e1000
04198c2000
04190c6000
04120c4000
02320c0000
02340c0000
03300e0000
01601a0000
01e01a0000
01e01b0000
00c0110000
00c0318000
01e0308000
033020c000
023c606000
041ec07000
0c08803800
3001001e00
6002000800
0000000000
0000000000
0000000000
0000000000
ENDCHAR
STARTCHAR 237a
ENCODING 9082
SWIDTH 1020 0
DWIDTH 34 0
BBX 34 35 0 -4
BITMAP
0000000000
0000000000
00c0000000
00e0000000
0180001800
0180001c00
03fffffc00
0300000000
0600000000
0480008000
08ffffe000
188080e000
318080c000
618180c000
018180c000
018180c000
010180c800
410180cc00
3ffffffe00
0301008000
0301008000
0303008000
0203008000
0203018000
0603018000
0603019800
07fffffe00
0c00018000
0c00030000
0000870000
00007e0000
00000c0000
0000000000
0000000000
0000000000
ENDCHAR
STARTCHAR 237b
ENCODING 9083
SWIDTH 1020 0
DWIDTH 34 0
BBX 34 35 0 -4
BITMAP
0000000000
0000000000
0010000000
0038000000
0060008000
01c7ff8000
070441c000
3f00410000
4300410000
0300410000
0310430000
033c430000
0370431800
0f8043fc00
7b00421800
4300c01800
0308c01800
030e801800
031c801000
03e0801000
1f01801000
7301003000
0303003000
0302003400
0304007400
03081fe400
031003c400
0300010400
0300000400
03fffffe00
00fffffc00
0000000000
0000000000
0000000000
0000000000
ENDCHAR
STARTCHAR 237c
ENCODING 9084
SWIDTH 1020 0
DWIDTH 34 0
BBX 34 35 0 -4
BITMAP
0000000000
0000000000
0000002000
180000f800
0c000fc000
0601fc0000
030e0c0000
01000c0000
00000c0000
00000c0000
00200c0000
40400c0000
30400c0000
18800c0000
08800c0800
08800c1c00
011ffffe00
01000c0000
02000c0000
02000c0000
06000c0000
04000c0000
0c000c0000
7c000c0000
08000c0000
08000c0000
0c000c0000
0c000c0000
0c000c0000
0c00080000
0c00080000
0000000000
0000000000
0000000000
0000000000
ENDCHAR
STARTCHAR 237d
ENCODING 9085
SWIDTH 1020 0
DWIDTH 34 0
BBX 34 35 0 -4
BITMAP
0000000000
0000000000
0000004000
100000e000
0c0003d000
06000e0000
0300f00000
0207c00000
0038c00000
0000c00000
0040c00000
4040c00000
3040c00000
1880c01000
0c80c01c00
0900c03e00
0100cfc000
0107f80000
027cc00000
0200c00000
0600c00000
0400c00000
0400c00000
4c00c00000
3c00c00400
0c00c00800
0c00c00800
0c00c00800
0c00c00c00
0c007ffe00
04001ff000
0000000000
0000000000
0000000000
0000000000
ENDCHAR
STARTCHAR 237e
ENCODING 9086
SWIDTH 1020 0
DWIDTH 34 0
BBX 34 35 0 -4
BITMAP
0000000000
0000000000
0001000000
1800e00000
0c01800000
0601800000
0301800000
0101000000
0003002000
0003fff800
0013007800
4023006000
3027006000
184500c000
084c80c000
088880c000
0090818000
0110418000
0120430000
0300230000
0200260000
0600340000
6c001c0000
1c00180000
0c003c0000
0400670000
0400c38000
040301c000
040600f800
0618003e00
0460000c00
0000000000
0000000000
0000000000
0000000000
ENDCHAR
STARTCHAR 2421
ENCODING 9249
SWIDTH 1020 0
DWIDTH 34 0
BBX 34 35 0 -4
BITMAP
0000000000
0000000000
0001000000
0001e00000
0001800000
0001804000
0001806000
0019c0f000
1ffde18000
0019a60000
0031980000
0061880000
00c1860000
0181830000
030181c000
0c0180f800
3001803e00
403f800800
0007000000
0002000000
0000800000
0001e00000
0001800000
0003800000
0006400000
000c300000
0018180000
00300e0000
00c003c000
030000fe00
1c00003800
2000000000
0000000000
0000000000
0000000000
ENDCHAR
STARTCHAR 2422
ENCODING 9250
SWIDTH 1020 0
DWIDTH 34 0
BBX 34 35 0 -4
BITMAP
0000000000
0000000000
0100200000
01e03c0000
01c0300000
0180300000
0100300000
0300300000
0300300000
0200303000
0601303c00
047fb86000
0e41b8c000
0f03398000
1e033a0000
3602340000
2606340000
4604320000
0604320000
060c330000
0608318000
0610318000
061030c000
0620306000
0640307000
06c0303c00
0680301e00
0700300800
0600300000
0607f00000
0600e00000
0000400000
0000000000
0000000000
0000000000
ENDCHAR
STARTCHAR 2423
ENCODING 9251
SWIDTH 1020 0
DWIDTH 34 0
BBX 34 35 0 -4
BITMAP
0000000000
0000000000
0000000000
1800001000
0600003800
071ffffc00
0300600000
0000400000
0040400000
0040c00000
4040800800
60c0800c00
18bffffe00
1881000000
0d01000000
0103000000
0102001000
0203fff800
0206001c00
0204003000
060c003000
0400003000
0c00003000
7c00003000
0c00003000
0c00006000
0c00006000
0c00006000
0c00e0c000
0c001f8000
0400030000
0000000000
0000000000
0000000000
0000000000
ENDCHAR
STARTCHAR 2424
ENCODING 9252
SWIDTH 1020 0
DWIDTH 34 0
BBX 34 35 0 -4
BITMAP
0000000000
0000000000
0000000000
1800003000
061ffff800
0700003000
0300003000
0100003000
0020003000
0020003000
4040003000
6040003000
1840003000
1c90003000
0c88003000
008ffff000
010c003000
010c003000
030c000000
020c000000
020c000000
060c000000
040c000000
7c0c000400
0c0c000400
0c0c000400
040c000400
040c000400
040c000e00
0e07fffe00
0401ffe000
0000000000
0000000000
0000000000
0000000000
ENDCHAR
STARTCHAR 2425
ENCODING 9253
SWIDTH 1020 0
DWIDTH 34 0
BBX 34 35 0 -4
BITMAP
0000000000
0000000000
0000000000
1800000000
0c10001800
070ffffc00
0300003000
0100006000
0000008000
0000010000
0020020000
60401c0000
30401c0000
1880180000
0880180000
0880180800
0100180c00
017ffffe00
0200180000
0200180000
0600180000
0400180000
0c00180000
7c00180000
0800180000
0800180000
0c00180000
0c00180000
0c00180000
0c03f80000
0c00700000
0000000000
0000000000
0000000000
0000000000
ENDCHAR
STARTCHAR 2426
ENCODING 9254
SWIDTH 1020 0
DWIDTH 34 0
BBX 34 35 0 -4
BITMAP
0000000000
0000000000
0200000000
01c0000800
0180000c00
018ffffe00
0180030000
0180030000
0188030000
019e030000
11b0030000
11e0030000
11c0030000
1180030000
3180030000
6180030000
4180030000
0180030000
0100030000
0100030000
0300030000
03c0030000
0260030000
0230030000
0638030000
0418030000
0c10030000
0800030000
1000030000
20007f0000
4000060000
0000000000
0000000000
0000000000
0000000000
ENDCHAR
STARTCHAR 2427
ENCODING 9255
SWIDTH 1020 0
DWIDTH 34 0
BBX 34 35 0 -4
BITMAP
0000000000
0000000000
0080001000
00e0001e00
00c0001800
00c0001800
00c01e1800
00c01c1800
00c3181800
00c3981800
08c6181800
08cc181800
08d0181800
08e0181800
18c0181800
18c0181800
30c0181800
70c0181800
00c0181800
00c0181800
00c0181800
00a0081800
0190181800
010c001800
010e001800
0206001800
0607001800
0403001800
0800081800
100007f800
6000007000
0000000000
0000000000
0000000000
0000000000
ENDCHAR
STARTCHAR 2428
ENCODING 9256
SWIDTH 1020 0
DWIDTH 34 0
BBX 34 35 0 -4
BITMAP
0000000000
0000000000
0001800000
0000e00000
0001800000
0081808000
008180e000
0081018000
0083830000
0183cc0000
0702400000
0206300000
000c180000
00180c0000
0030070000
00c001e000
0300007e00
1c18201800
601c3c0000
0018300000
0010300000
0010300000
0010300000
0030300000
0030300400
0060300400
0060300400
00c0300400
0180300e00
06001ffe00
380007f800
0000000000
0000000000
0000000000
0000000000
ENDCHAR
STARTCHAR 2429
ENCODING 9257
SWIDTH 1020 0
DWIDTH 34 0
BBX 34 35 0 -4
BITMAP
0000000000
0000000000
0000000000
0000000800
0800001c00
0ffffffe00
0c00000000
0c00000000
0c00e00000
0c00400000
0c00400000
0c00400000
0c00404000
0c00406000
0c10407800
0c10c0c000
0c10c08000
0c30c10000
0c20e20000
0c60a40000
08e0900000
0801900000
0801880000
08030c0000
1803060000
1006030000
100c018000
301800c000
2030007000
4040003e00
4380000800
0000000000
0000000000
0000000000
0000000000
ENDCHAR
STARTCHAR 242a
ENCODING 9258
SWIDTH 1020 0
DWIDTH 34 0
BBX 34 35 0 -4
BITMAP
0000000000
0000000000
0000000000
080000c000
0fffffe000
080000e000
080000c000
080380c000
080300c000
080200c000
080200c000
082208c000
08220cc000
08420ec000
084218c000
0843304000
0843204000
08c3404000
0887804000
0986804000
0804804000
0804c04000
080c406000
1808602200
1818302200
1010183200
10301c1200
10600e1400
20c0078c00
210003ce00
4600010600
0000000000
0000000000
0000000000
0000000000
ENDCHAR
STARTCHAR 242b
ENCODING 9259
SWIDTH 1020 0
DWIDTH 34 0
BBX 34 35 0 -4
BITMAP
0000000000
0000000000
0060000000
0070000000
0040000000
00c0000000
00c0000800
00fffffe00
0180000c00
0100000800
0303800800
0201000800
0601000800
0401001800
0841021800
1041031800
2043079800
0083041000
00830c1000
0183903000
0302a62000
0606c1e000
0006404000
000c200000
0008300000
00181c0000
0030060000
00e0038000
018001f000
0e00007e00
7000001800
0000000000
0000000000
0000000000
0000000000
ENDCHAR
STARTCHAR 242c
ENCODING 9260
SWIDTH 1020 0
DWIDTH 34 0
BBX 34 35 0 -4
BITMAP
0000000000
0000000000
0020200000
2038380000
2060200000
1060200000
08c0200000
0580200000
0300204000
0708206000
0d07ffe000
188020c000
208020c000
40c020c000
004020c000
004620c000
00e120c000
01e0e0c000
036060c000
066070c000
0c6058c000
1860dcc000
6060ccc000
006086c000
006180c400
006100c400
006300c400
004200c400
00c400c400
3f8c00cc00
0318007e00
0000000000
0000000000
0000000000
0000000000
ENDCHAR
STARTCHAR 242d
ENCODING 9261
SWIDTH 1020 0
DWIDTH 34 0
BBX 34 35 0 -4
BITMAP
0000000000
0000000000
0020020000
003001c000
1038018000
0860018000
04c0018000
0280018000
0300018000
0300018c00
051ffffe00
1880078000
6080078000
00c0058000
00400d8000
00c0098000
00c0198000
01c0118000
0360318000
0660618000
0c60418000
1860818000
2061818000
4043018000
0046018000
004c018000
0048018000
00c0018000
00c0018000
3f803f8000
0300070000
0000020000
0000000000
0000000000
0000000000
ENDCHAR
STARTCHAR 242e
ENCODING 9262
SWIDTH 1020 0
DWIDTH 34 0
BBX 34 35 0 -4
BITMAP
0000000000
0000000000
0000000000
0000040000
0006078000
3fff060000
00c00c0000
00c00c0000
00c00c0000
00c00c0000
00c00c0000
00c0080000
00c0080000
00cc180000
1ffe180000
00c0180000
00c0100000
00c0308000
00c0308000
00c0204000
00c0202000
00c0602000
00c3601000
00dc401800
00f0c01800
0f80800800
3e00803c00
1001ffcc00
100ff80c00
0006000400
0004000400
0000000000
0000000000
0000000000
0000000000
ENDCHAR
STARTCHAR 242f
ENCODING 9263
SWIDTH 1020 0
DWIDTH 34 0
BBX 34 35 0 -4
BITMAP
0000000000
0000000000
0000100000
00000e0000
000c080000
3ffe080000
0180080000
0180080000
0180080800
0184080c00
0183fffe00
0180080800
0180080800
0198080800
1ffc180800
0180180800
0180180800
0180100800
0180100800
0180100800
0180300800
0180201800
0186601800
019c401800
01e0c01800
0f80801000
3e01801000
1003003000
1006083000
000807e000
007001c000
0040000000
0000000000
0000000000
0000000000
ENDCHAR
STARTCHAR 2430
ENCODING 9264
SWIDTH 1020 0
DWIDTH 34 0
BBX 34 35 0 -4
BITMAP
0000000000
0000000000
0000080000
0000070000
0006060000
3fff860000
00c0060000
00c0060000
00c0060000
00c0460000
00c0660000
00c0260000
00c0160000
00c40e0000
3fff0e0000
00c0060000
00c0070000
00c0078000
00c006e000
00c0067000
00c0063e00
00c0060e00
00c3060000
00cc060000
00f0060000
07c0060000
3e00060000
1000060000
1000060000
0000040000
0000040000
0000040000
0000000000
0000000000
0000000000
ENDCHAR
STARTCHAR 2431
ENCODING 9265
SWIDTH 1020 0
DWIDTH 34 0
BBX 34 35 0 -4
BITMAP
0000000000
0000000000
0000000000
0000001e00
0006001c00
3fff981800
00c01e1800
00c0181800
00c0181800
00c0181800
00c0181800
00c0181800
00c0181800
00c4181800
3fff181800
00c0181800
00c0181800
00c0181800
00c0181800
00c0181800
00c0181800
00c0181800
00c3181800
00cc181800
00f0001800
07c0001800
3e00001800
1000001800
1000001800
000003f800
0000007000
0000000000
0000000000
0000000000
0000000000
ENDCHAR
STARTCHAR 2432
ENCODING 9266
SWIDTH 1020 0
DWIDTH 34 0
BBX 34 35 0 -4
BITMAP
0000000000
0000000000
0000000000
0000000800
0000001c00
7ffffffe00
000c000000
000c000000
0008000000
001c000000
001b000000
0031800000
0030e00000
0060600000
0060200000
00c0003000
00fffff800
01c0006000
03c0006000
02c0006000
04c0006000
08c0006000
30c0006000
60c0006000
40c0006000
00c0006000
00c0006000
00c0006000
00ffffe000
00c0002000
00c0002000
0040000000
0000000000
0000000000
0000000000
ENDCHAR
STARTCHAR 2433
ENCODING 9267
SWIDTH 1020 0
DWIDTH 34 0
BBX 34 35 0 -4
BITMAP
0000000000
0000000000
0100400000
01e0380000
0180300000
0180300000
0180300000
0184300000
3ffe300000
000f300000
000c300000
0018300000
0030300000
0030300000
0060300000
00c0300000
03e0300000
0790300000
199c300000
618c300000
0186300000
0180300000
0180300400
0180300400
0180300800
0180300800
0180300800
0180300800
0180300c00
00803ffe00
018003f000
0080000000
0000000000
0000000000
0000000000
ENDCHAR
STARTCHAR 2434
ENCODING 9268
SWIDTH 1020 0
DWIDTH 34 0
BBX 34 35 0 -4
BITMAP
0000000000
0000000000
0001000000
0001c00000
0001802000
0001807000
1ffffff800
0000020000
0080030000
0040038000
0020060000
0030040000
00300c0000
0010080000
0018180000
0018100800
4008201c00
3ffffffe00
0001800000
0001800000
0001800000
0001800000
0001800000
0001800000
0001800000
0001800000
0001800000
0001800000
0001800000
0001800000
0001800000
0001000000
0000000000
0000000000
0000000000
ENDCHAR
STARTCHAR 2435
ENCODING 9269
SWIDTH 1020 0
DWIDTH 34 0
BBX 34 35 0 -4
BITMAP
0000000000
0000000000
0000000000
0830380000
0ff8300000
0830300000
0830300000
0830300000
0830300000
0830300000
083030c000
0837ffe000
0ff030c000
083030c000
083030c000
083020c000
083020c000
083020c000
083020c000
083060c000
0ff060c000
083040c000
183040c000
1830c0c400
183080c400
103080c400
103100c400
103100c400
31f200c600
207400fe00
402c003800
0000000000
0000000000
0000000000
0000000000
ENDCHAR
STARTCHAR 2436
ENCODING 9270
SWIDTH 1020 0
DWIDTH 34 0
BBX 34 35 0 -4
BITMAP
0000000000
0000000000
0000000000
0800000800
0ffffffe00
0800000e00
1800001800
3000001000
7000002000
030000c000
03ffffe000
030000c000
030000c000
030000c000
030000c000
030000c000
03ffffc000
030000c000
030000c000
030000c000
030000c000
030000c000
03ffffc000
030000c000
030000c000
030000c000
030000c000
030000c000
030000c000
03003fc000
0300038000
0100020000
0000000000
0000000000
0000000000
ENDCHAR
STARTCHAR 2437
ENCODING 9271
SWIDTH 1020 0
DWIDTH 34 0
BBX 34 35 0 -4
BITMAP
0000000000
0000000000
0020080000
00380e0000
00300c0800
40300c1c00
3ffffffe00
00300c0000
00300c0000
00300c0000
0020080000
0000001800
3ffffffe00
0030000000
0020000000
0060000000
0040000000
0040008000
00ffffc000
008000e000
0180008000
0100008000
0000008000
0000018000
0000018000
0000018000
0000010000
0000030000
0000020000
000e0e0000
0001fc0000
0000300000
0000000000
0000000000
0000000000
ENDCHAR
STARTCHAR 2438
ENCODING 9272
SWIDTH 1020 0
DWIDTH 34 0
BBX 34 35 0 -4
BITMAP
0000000000
0000000000
0020080000
00380e0000
00300c0800
00300c1c00
7ffffffe00
00300c0000
00300c0000
00300c0000
0022080000
0001c00000
0001800000
0001000000
0001001800
3ffffffc00
0003001800
0003001800
0002001800
0006001800
0006001000
000c001000
000c001000
0018003000
0010003000
0060003000
00c0002000
0180006000
0300406000
0c003fc000
3000038000
0000020000
0000000000
0000000000
0000000000
ENDCHAR
STARTCHAR 2439
ENCODING 9273
SWIDTH 1020 0
DWIDTH 34 0
BBX 34 35 0 -4
BITMAP
0000000000
0000000000
0040100000
00380e0000
00300c0000
00300c0800
40300c1c00
3ffffffe00
00300c0000
00300c0000
00300c0000
0020000000
0000000000
0000080000
0003fc0000
00020c0000
0040080000
0078080000
0060040000
00c0040000
00c0060000
0180020000
0180030000
0300018000
0200018000
060000c000
0c00006000
0800007800
1000003c00
2000001e00
4000000800
0000000000
0000000000
0000000000
0000000000
ENDCHAR
STARTCHAR 243a
ENCODING 9274
SWIDTH 1020 0
DWIDTH 34 0
BBX 34 35 0 -4
BITMAP
0000000000
0000000000
0001000000
0001c00000
0001800000
0001800000
0001804000
080180e000
0fffffe000
0001800000
0001800000
0001800000
0001800000
0001800c00
7ffffffe00
0000000000
0000010000
010003c000
00c0070000
00600e0000
00301c0000
0010380000
0000e00000
0201800000
0606000000
0618000000
09e0000000
1980000000
3070000100
101ffffe00
08003ffc00
0000000000
0000000000
0000000000
0000000000
ENDCHAR
STARTCHAR 243b
ENCODING 9275
SWIDTH 1020 0
DWIDTH 34 0
BBX 34 35 0 -4
BITMAP
0000000000
0000000000
0000000000
18003c0000
0c00300000
0300300000
0180300000
0100300000
0000300000
4020300c00
301ffffc00
0c00201800
0600601800
0600601800
0000601800
0000401800
0200c01800
8380801000
7f81801000
0301801000
0303003000
0302003000
0304003000
030c002000
0310006000
03201dc000
0500078000
18c0010000
7038000000
600ffffe00
2000fffc00
0000000000
0000000000
0000000000
0000000000
ENDCHAR
STARTCHAR 243c
ENCODING 9276
SWIDTH 1020 0
DWIDTH 34 0
BBX 34 35 0 -4
BITMAP
0000000000
0000000000
0040000000
0060180800
00601ffc00
0060181800
0060181000
0060183000
2062182000
1c61d84000
1861984000
1861988000
1861988000
1861990000
186198c000
1861982000
1861981000
1861981000
1861980800
1861980800
1861980800
1861980c00
1861980c00
1861980800
1861981800
186199f000
1861986000
1fff980000
1801980000
1001180000
1001180000
0000080000
0000000000
0000000000
0000000000
ENDCHAR
STARTCHAR 243d
ENCODING 9277
SWIDTH 1020 0
DWIDTH 34 0
BBX 34 35 0 -4
BITMAP
0000000000
0000000000
0080000000
00e0200800
00803ffc00
0080301800
0180303000
0180302000
0103302000
7fff304000
030630c000
0306308000
0206310000
0206310000
0604308000
0404304000
0c0c303000
0c0c301000
0808300800
1818300c00
1818300400
1c10300400
3330300400
30e0300c00
0070301c00
00f837f800
018c306000
0306300000
0602300000
1802300000
3000300000
4000000000
0000000000
0000000000
0000000000
ENDCHAR
STARTCHAR 243e
ENCODING 9278
SWIDTH 1020 0
DWIDTH 34 0
BBX 34 35 0 -4
BITMAP
0000000000
0000000000
2040000000
3060001000
3ff4001800
3047fffc00
3040003000
3080006000
3080008000
3080010000
31000a0000
31000e0000
31000c0000
31000c0000
31800c0800
30800c1c00
304ffffe00
30600c0000
30200c0000
30200c0000
30200c0000
30200c0000
30600c0000
34e00c0000
33c00c0000
30800c0000
30000c0000
30000c0000
30000c0000
1001fc0000
1000380000
1000000000
0000000000
0000000000
0000000000
ENDCHAR
STARTCHAR 243f
ENCODING 9279
SWIDTH 1020 0
DWIDTH 34 0
BBX 34 35 0 -4
BITMAP
0000000000
0000000000
0000000800
0000001c00
7ffffffe00
0018080000
0018080000
0018080000
1018081000
1818081800
1ffffffc00
1810181800
1810181800
1830181800
1830101800
18281c1800
1824361800
1866231800
1843219800
1882619800
1900c0d800
1a00809800
1801001800
1800001800
1800001800
1800001800
1800001800
1800001800
1800041800
180003f800
1800007000
0800000000
0000000000
0000000000
0000000000
ENDCHAR
STARTCHAR 2440
ENCODING 9280
SWIDTH 1020 0
DWIDTH 34 0
BBX 34 35 0 -4
BITMAP
0000000000
0000000000
0002000000
00071e0000
003e9c0000
07e0180000
78c0180000
00c0180000
00c0180000
00c0180000
00c1180000
40c3980000
7fffd80000
00c0180000
00c0180000
00c0180000
00c0180000
00c0180000
10c2180000
1fff980000
1806180000
1806180000
1806180400
1806180400
1806180400
1806180400
1806180400
1806180400
1ffe1c8e00
18020f7e00
1802000000
0800000000
0000000000
0000000000
0000000000
ENDCHAR
STARTCHAR 2441
ENCODING 9281
SWIDTH 1020 0
DWIDTH 34 0
BBX 34 35 0 -4
BITMAP
0000000000
0000000000
0000000000
0008003000
000ffff800
000c003000
000c003000
008c003000
00cc003000
7fec003000
000c003000
000c003000
000c003000
000c003000
000ffff000
000c463000
000c462000
0000460000
0000460000
0020460000
4070c60000
3ff0c60000
0000860000
0001860000
0001060400
0003060400
0006060400
000c060400
0010060400
006007fe00
038001fc00
0400000000
0000000000
0000000000
0000000000
ENDCHAR
STARTCHAR 2442
ENCODING 9282
SWIDTH 1020 0
DWIDTH 34 0
BBX 34 35 0 -4
BITMAP
0000000000
0000000000
0000000800
0000001c00
7ffffffe00
0018300000
0018300000
0018300000
0018300000
0018300000
0818301000
0818303800
0ffffff800
0c18303000
0c18303000
0c18303000
0c18303000
0c18303000
0c18303000
0c18303000
0ffffff000
0c18303000
0c18301000
0018300000
0018300000
0018300000
0018300000
0018300800
0018301c00
7ffffffe00
0000000000
0000000000
0000000000
0000000000
0000000000
ENDCHAR
STARTCHAR 2443
ENCODING 9283
SWIDTH 1020 0
DWIDTH 34 0
BBX 34 35 0 -4
BITMAP
0000000000
0000000000
0100200000
01e03c0000
0180300000
0180300000
0100300000
0300302000
0320303800
061ffff800
0600300000
0c00300000
0f00300000
1e00300000
1600300800
2600301c00
467ffffe00
c600780000
0600fc0000
0600b40000
0601b20000
0601330000
0603310000
0606308000
060430c000
0608307000
0610303800
0620301e00
0640300c00
0600300000
0600300000
0400100000
0000000000
0000000000
0000000000
ENDCHAR
STARTCHAR 2444
ENCODING 9284
SWIDTH 1020 0
DWIDTH 34 0
BBX 34 35 0 -4
BITMAP
0000000000
0000000000
0100080000
01c00e0000
01e00c0000
01800c0000
01080c0800
030ffffe00
030c0c0e00
020c0c1800
060c0c1000
060c0c2000
0f0c0c2000
0e0c0c0000
160c0c1000
360ffff800
660c803800
460c807000
060c806000
0608406000
060840c000
060820c000
0618218000
0618130000
06181b0000
06180e0000
06100f0000
063033c000
062060f000
0661807e00
06ce000e00
0410000000
0000000000
0000000000
0000000000
ENDCHAR
STARTCHAR 2445
ENCODING 9285
SWIDTH 1020 0
DWIDTH 34 0
BBX 34 35 0 -4
BITMAP
0000000000
0000000000
0100000000
00e4004000
01c7fff000
018600e000
010600c000
030600c000
030600c000
020600c000
060600c000
040600c000
0e0600c000
0f07ffc000
160600c000
360600c000
260600c000
460600c000
060600c000
060600c000
060600c000
0607ffc000
060600c000
060600c000
060600c000
060600c000
060600c000
060600c000
060600c800
068600dc00
067ffffe00
0400000000
0000000000
0000000000
0000000000
ENDCHAR
STARTCHAR 2446
ENCODING 9286
SWIDTH 1020 0
DWIDTH 34 0
BBX 34 35 0 -4
BITMAP
0000000000
0000000000
0080100000
00e01e0000
01e0180000
0180180000
0180180000
0100180000
0300180000
0218180c00
061ffffe00
0418181800
0e18181800
0f18181800
1618181800
3618181800
6618181800
4618181800
0618181800
061ffff800
0618181800
0618181800
0618181800
0618181800
0618181800
0618181800
0618181800
0618181800
061ffff800
0608000800
0608000800
0400000000
0000000000
0000000000
0000000000
ENDCHAR
STARTCHAR 2447
ENCODING 9287
SWIDTH 1020 0
DWIDTH 34 0
BBX 34 35 0 -4
BITMAP
0000000000
0000000000
0080020000
01e181c000
0181c18000
0183018000
0103018000
0302018000
0306018800
0604118c00
060c0ffe00
0708618c00
0e58718c00
0e30410c00
1610c10c00
3618810c00
260c810800
4605810800
0601030800
0603030800
0602c20800
0606420800
0604260800
0608341800
0618fc1800
061f181800
06f8101800
0640301000
0640203000
060047f000
060081e000
0201008000
0000000000
0000000000
0000000000
ENDCHAR
STARTCHAR 2448
ENCODING 9288
SWIDTH 1020 0
DWIDTH 34 0
BBX 34 35 0 -4
BITMAP
0000000000
0000000000
0080000000
01e8001800
018ffffc00
0188001800
0108001800
0308001800
0208001800
0208001800
0608001800
040ffff800
0e08001800
0f08001000
1608e00000
2608c00000
6608c01800
4608c03c00
0608c0e000
0618c38000
0618ce0000
0618f80000
0618c00400
0610c00400
0610c00400
0610c00400
0630c00400
0620c00400
0620c00e00
06407ffe00
06c01ff000
0400000000
0000000000
0000000000
0000000000
ENDCHAR
STARTCHAR 2449
ENCODING 9289
SWIDTH 1020 0
DWIDTH 34 0
BBX 34 35 0 -4
BITMAP
0000000000
0000000000
0080000000
01e0001000
0180001800
019ffffc00
0100180000
0300180000
0200180000
0600180000
0600180000
0700180000
0e07180000
0e07180000
1606180000
2606183000
26061ff800
4606180000
0606180000
0606180000
0606180000
0606180000
0606180000
0606180000
0606180000
0606180000
0606180000
0606180800
0606180c00
067ffffe00
0600000000
0200000000
0000000000
0000000000
0000000000
ENDCHAR
STARTCHAR 244a
ENCODING 9290
SWIDTH 1020 0
DWIDTH 34 0
BBX 34 35 0 -4
BITMAP
0000000000
0000000000
0200000000
01c0000800
0380001c00
033ffffe00
0300180000
0200180000
0600180000
0600180000
0420180800
0c30180c00
0e3ffffe00
1c30100c00
1c30100c00
2c30300c00
4c302c0c00
4c30260c00
0c30430c00
0c30418c00
0c3080cc00
0c31006c00
0c33006c00
0c34002c00
0c30000c00
0c30000c00
0c30000c00
0c30000c00
0c30010c00
0c3000fc00
0430003800
0400000000
0000000000
0000000000
0000000000
ENDCHAR
STARTCHAR 244b
ENCODING 9291
SWIDTH 1020 0
DWIDTH 34 0
BBX 34 35 0 -4
BITMAP
0000000000
0000000000
0080000000
00e780f000
018600e000
018600c000
010600c000
030600c000
030600c800
024600ce00
067ffffe00
070600c000
0e0600c000
0e0600c000
160600c000
260600c000
660600c000
460600c000
0607ffc000
060600c000
060600c000
060600c000
060600c000
060600c000
060600c000
060600c000
060600c000
060600c000
0607ffc000
0606004000
0606004000
0200000000
0000000000
0000000000
0000000000
ENDCHAR
STARTCHAR 244c
ENCODING 9292
SWIDTH 1020 0
DWIDTH 34 0
BBX 34 35 0 -4
BITMAP
0000000000
0000000000
0080000000
00e0000800
0190000c00
018ffffe00
0100200c00
0300600800
0300600800
0200400800
0600c01800
0700c01800
0e01801800
0e01001000
1603083000
260607e000
661800c000
4620000000
0604000800
0607fffc00
0606001800
0606001800
0606001800
0606001800
0606001800
0606001800
0606001800
0606001800
0607fff800
0604000800
0604000800
0204000000
0000000000
0000000000
0000000000
ENDCHAR
STARTCHAR 244d
ENCODING 9293
SWIDTH 1020 0
DWIDTH 34 0
BBX 34 35 0 -4
BITMAP
0000000000
0000000000
0080000000
00e2002000
01c3fff000
0183003000
0182002000
0102202000
0302102000
0302182000
0602086000
07060c6000
0e060c6000
0e06006800
1606006c00
267ffffe00
6606006000
4604406000
0604206000
060c106000
060c184000
060c084000
060c084000
0608084000
060800dc00
061ffffe00
061800c000
0618008000
0610018000
06003f8000
0200070000
0200000000
0000000000
0000000000
0000000000
ENDCHAR
STARTCHAR 244e
ENCODING 9294
SWIDTH 1020 0
DWIDTH 34 0
BBX 34 35 0 -4
BITMAP
0000000000
0000000000
0080000000
00e4001000
00c4001800
0187fffc00
0186001800
0106001800
0306001800
0306001800
0606001800
0706001800
0f06001800
0e07fff800
1e06001800
3606001000
2606000000
4606000000
0606000800
0607fffc00
0606001c00
0606001800
0606001800
0606001800
0606001800
0606001800
0606001800
0606001800
0607fff800
0606000800
0206000800
0204000000
0000000000
0000000000
0000000000
ENDCHAR
STARTCHAR 244f
ENCODING 9295
SWIDTH 1020 0
DWIDTH 34 0
BBX 34 35 0 -4
BITMAP
0000000000
0000000000
0080000000
00e0000000
0080000000
0188000c00
018ffffe00
010c630c00
030c630c00
020c630c00
060c630c00
060c630c00
0f0c630c00
0e0c630c00
160c630c00
260c630c00
660c630c00
460c430c00
060c432c00
060cc32c00
060c832c00
060c83fc00
060d01cc00
060e000c00
060e000c00
060c000c00
060c000c00
060c000c00
060ffffc00
0608000c00
0608000c00
0000000000
0000000000
0000000000
0000000000
ENDCHAR
STARTCHAR 2450
ENCODING 9296
SWIDTH 1020 0
DWIDTH 34 0
BBX 34 35 0 -4
BITMAP
0000000000
0000000000
0080200000
00e03c0000
00c0380000
0080280000
0180640000
0100c20000
0300830000
0301818000
060300c000
0606107000
0c0c1e3800
0f18181e00
1e60180400
3600180000
2604180000
4603188000
0607984000
0606182000
0604183000
060c181000
060c181800
0608181800
0610180c00
0610180c00
0620180c00
0640180400
0600180000
0603f80000
0600300000
0400200000
0000000000
0000000000
0000000000
ENDCHAR
STARTCHAR 2451
ENCODING 9297
SWIDTH 1020 0
DWIDTH 34 0
BBX 34 35 0 -4
BITMAP
0000000000
0000000000
0000020000
0180038000
0060060000
0030060000
00180c0000
0018180000
000c100000
030020c000
03ffffe000
030000c000
030000c000
030000c000
030000c000
030000c000
030000c000
030000c000
030000c000
03ffffc000
030830c000
0118308000
0018300000
0018300000
0018300400
0030300400
0020300400
00c0300400
0180300400
06003ffe00
38000ff800
4000000000
0000000000
0000000000
0000000000
ENDCHAR
STARTCHAR 2452
ENCODING 9298
SWIDTH 1020 0
DWIDTH 34 0
BBX 34 35 0 -4
BITMAP
0000000000
0000000000
0000000000
0000006000
0fffffe000
0006004000
000c00c000
000800c000
001800c000
0030218000
00c01f8000
0300020000
3e00002000
07fffff000
0601006000
0601006000
0601006000
0601006000
0601006000
0601006000
07ffffe000
0603602000
0002600000
0006600000
000c600400
0008600400
0030600400
0060600400
0080600400
03007ffe00
1c001ff800
2000000000
0000000000
0000000000
0000000000
ENDCHAR
STARTCHAR 2453
ENCODING 9299
SWIDTH 1020 0
DWIDTH 34 0
BBX 34 35 0 -4
BITMAP
0000000000
0000000000
0008002000
0f0c006000
0c0ffff000
0c0c006000
0c0c006000
0c0c006000
0c0c006000
0c0c006000
0c0fffe000
0c0c006000
0c0c006000
0c0c006000
0c0c006000
0c0c006000
0c0c006000
0c07ffe000
0c04006000
0420600000
0038780000
0020600000
0060600000
0060600400
0040600400
00c0600400
0080600400
0100600400
0200600c00
0c003ffe00
3000000000
4000000000
0000000000
0000000000
0000000000
ENDCHAR
STARTCHAR 2454
ENCODING 9300
SWIDTH 1020 0
DWIDTH 34 0
BBX 34 35 0 -4
BITMAP
0000000000
0000000000
0000000000
000003c000
00003fe000
000ff00000
07f1800000
0001800000
0001800000
0401804000
07ffffe000
060180c000
060180c000
060180c000
060180c000
060100c000
060100c000
07ffffc000
0603604000
0603604000
0402600000
0006600000
0006670000
000461c400
000c60e400
0018602400
0030600400
00e0600400
0180600e00
06003ffe00
7800000000
0000000000
0000000000
0000000000
0000000000
ENDCHAR
STARTCHAR 2455
ENCODING 9301
SWIDTH 1020 0
DWIDTH 34 0
BBX 34 35 0 -4
BITMAP
0000000000
0000000000
0000000000
0000000000
1000000800
1ffffffc00
1801801800
1801801800
1801801800
1801801800
1821821800
1bf1bf1800
1821821800
1821861800
1821861800
1831861800
1871861800
18518f1800
18d1891800
1899891800
1989919800
190d90d800
1a0fa0f800
1e05c05800
1801801800
1801801800
1801801800
1801801800
1801861800
180181f800
1801007000
0000000000
0000000000
0000000000
0000000000
ENDCHAR
STARTCHAR 2456
ENCODING 9302
SWIDTH 1020 0
DWIDTH 34 0
BBX 34 35 0 -4
BITMAP
0000000000
0000000000
0000000000
0400002000
07fffff000
0600007000
0601806000
0601c06000
0601806000
0601806000
0601006000
0603006000
0603006000
0607806000
0606406000
0604306000
060c186000
06180c6000
0630066000
0660036000
06c0036000
0680006c00
7ffffffe00
0000000000
0018000000
003c1c0000
0060070000
00c001c000
0380007000
0600003800
3800001800
0000000000
0000000000
0000000000
0000000000
ENDCHAR
STARTCHAR 2457
ENCODING 9303
SWIDTH 1020 0
DWIDTH 34 0
BBX 34 35 0 -4
BITMAP
0000000000
0000000000
0000000000
0800000000
0800001800
0ffffffc00
0800001800
1000001000
1000002000
3100026000
2080030000
00ffff8000
00c0030000
00c0030000
00c0030000
00c0030000
00c0030000
00ffff0000
00c0030000
00c0030000
00c0030000
00c0030000
00c0030000
00ffff0000
00c0030000
00c0030000
00c0030000
00c0030800
00c0031c00
7ffffffe00
0000000000
0000000000
0000000000
0000000000
0000000000
ENDCHAR
STARTCHAR 2458
ENCODING 9304
SWIDTH 1020 0
DWIDTH 34 0
BBX 34 35 0 -4
BITMAP
0000000000
0000000000
0000000000
0000000800
3000000c00
083ffffe00
0c00600000
0600400000
0600c00000
0240c00000
0040800000
0081800000
0081800000
0081000000
0103000000
0102000800
0307fffc00
020f001800
020b001800
061b001800
0433001800
0c23001800
0c43001800
7883001800
0803001800
0803001800
0c03001800
0c03001800
0c03fff800
0c03000800
0c03000800
0000000000
0000000000
0000000000
0000000000
ENDCHAR
STARTCHAR 2459
ENCODING 9305
SWIDTH 1020 0
DWIDTH 34 0
BBX 34 35 0 -4
BITMAP
0000000000
0000000000
0000000000
0008003000
300ffff800
080c003000
0c0c003000
060c003000
060c003000
024c003000
004c003000
004c003000
008c003000
008c003000
010ffff000
010c463000
020c462000
0200460000
0600460000
0400460000
0c00c60000
0800c60000
7800860000
1800860000
0801860400
0801060400
0802060400
0804060400
0c08060600
083007fe00
00c001f800
0100000000
0000000000
0000000000
0000000000
ENDCHAR
STARTCHAR 245a
ENCODING 9306
SWIDTH 1020 0
DWIDTH 34 0
BBX 34 35 0 -4
BITMAP
0000000000
0000000000
0000100000
00001c0000
2000180000
3001990000
1803d88000
0c03186000
0606183000
04c4181800
008c180c00
0088184c00
0090186400
0127fff000
0140180000
0100180000
0200180000
0200180000
0600180000
0400180800
047ffffe00
7c00180000
1c00180000
0800180000
0c00180000
0c00180000
0c00180000
0c00180000
0c00180000
0400180000
0000180000
0000000000
0000000000
0000000000
0000000000
ENDCHAR
STARTCHAR 245b
ENCODING 9307
SWIDTH 1020 0
DWIDTH 34 0
BBX 34 35 0 -4
BITMAP
0000000000
0000000000
0000000000
080000c000
0fffffe000
080000e000
080000c000
080000c000
080008c000
0a001cc000
09fffec000
080000c000
080000c000
080000c000
08c008c000
08fffc4000
08c0184000
08c0184000
08c0184000
08c0184000
08fff84000
08c0186000
08c0186000
18c0182200
18c0182200
10fff83200
10c0081200
10c0081600
2040000e00
2000000e00
4000000600
0000000000
0000000000
0000000000
0000000000
ENDCHAR
STARTCHAR 245c
ENCODING 9308
SWIDTH 1020 0
DWIDTH 34 0
BBX 34 35 0 -4
BITMAP
0000000000
0000000000
0040001000
0070001e00
00c0001800
00c0001800
0080079800
0184071800
0102061800
0301061800
0201861800
0400c61800
0c03e61800
3ffc661800
7e00661800
2000261800
0000061800
1000861800
1fffc61800
1801c61800
1801861800
1801861800
1801861800
1801861800
1801801800
1801801800
1801801800
1801801800
1fff801800
180083f800
1800807800
0800002000
0000000000
0000000000
0000000000
ENDCHAR
STARTCHAR 245d
ENCODING 9309
SWIDTH 1020 0
DWIDTH 34 0
BBX 34 35 0 -4
BITMAP
0000000000
0000000000
00c0000000
00f0000000
00c0000c00
00c0fffe00
00c0060c00
00c2060c00
00c7060c00
3fff860c00
00c0060c00
00c0060c00
00c0040c00
00c0040c00
00c1040800
00c1840800
7fffcc0800
00c00c0800
01c00c0800
0180080800
0188080800
0304180800
0206100800
0202101800
0407201800
0479601800
7fc1401800
3c00801000
2001883000
000307f000
000400e000
0008000000
0000000000
0000000000
0000000000
ENDCHAR
STARTCHAR 245e
ENCODING 9310
SWIDTH 1020 0
DWIDTH 34 0
BBX 34 35 0 -4
BITMAP
0000000000
0000000000
0080001000
0070000e00
0060000c00
0060000c00
0060070c00
0060070c00
0061860c00
3fffc60c00
0060060c00
0060060c00
0060060c00
0060060c00
0060060c00
0060c60c00
7fffe60c00
00c0060c00
00c0060c00
0180060c00
0180060c00
0108060c00
0304060c00
0202040c00
0203000c00
0401800c00
043f800c00
7fe0800c00
3c00800c00
200003fc00
0000003800
0000002000
0000000000
0000000000
0000000000
ENDCHAR
STARTCHAR 245f
ENCODING 9311
SWIDTH 1020 0
DWIDTH 34 0
BBX 34 35 0 -4
BITMAP
0000000000
0000000000
0000001000
0000600e00
7ffff00c00
0080400c00
0080438c00
0080430c00
0180c30c00
0100c30c00
0100c30c00
0300c30c00
0200c30c00
0400830c00
083f830c00
1007830c00
6004030c00
0000430c00
1000430c00
1fffe30c00
1800c30c00
1800c30c00
1800c20c00
1800c20c00
1800c20c00
1800c00c00
1800c00c00
1800c00c00
1fffc00c00
1800c3fc00
1800c07800
1000002000
0000000000
0000000000
0000000000
ENDCHAR
STARTCHAR 2460
ENCODING 9312
SWIDTH 1020 0
DWIDTH 34 0
BBX 34 35 0 -4
BITMAP
0000000000
0000000000
0000001000
1001000e00
1fffc00c00
1803040c00
1803078c00
1803060c00
1803060c00
1803060c00
1803060c00
1803060c00
1fff060c00
1981060c00
0180060c00
0180060c00
0180860c00
4181c60c00
3fffc60c00
0101860c00
0101860c00
0301860c00
0201860c00
0201800c00
0601800c00
0401800c00
0c01000c00
0801000c00
1003061c00
207f01f800
400e003000
0000000000
0000000000
0000000000
0000000000
ENDCHAR
STARTCHAR 2461
ENCODING 9313
SWIDTH 1020 0
DWIDTH 34 0
BBX 34 35 0 -4
BITMAP
0000000000
0000000000
0000000000
1048200e00
186c300c00
1ffff90c00
186c61cc00
186c618c00
186c618c00
186c618c00
186c618c00
186c618c00
186c618c00
186c618c00
186c698c00
586c7d8c00
7fffff8c00
186c618c00
186c618c00
186c618c00
186c618c00
186c618c00
186c618c00
186c608c00
186c600c00
186c600c00
186c600c00
186c600c00
1bede10c00
19cce0fc00
1884803800
0000000000
0000000000
0000000000
0000000000
ENDCHAR
STARTCHAR 2462
ENCODING 9314
SWIDTH 1020 0
DWIDTH 34 0
BBX 34 35 0 -4
BITMAP
0000000000
0000000000
0004008000
030300e000
008180e000
00c0818000
0060c10000
0060c30000
0820020400
0800040c00
0ffffffe00
0800000800
1006001800
3007001000
3002002000
6006000000
0006004000
0ffffff000
0006006000
000600c000
000400c000
000c00c000
000800c000
001800c000
001800c000
0030008000
0060018000
00c0018000
0181030000
0600ff0000
18000e0000
6000000000
0000000000
0000000000
0000000000
ENDCHAR
STARTCHAR 2463
ENCODING 9315
SWIDTH 1020 0
DWIDTH 34 0
BBX 34 35 0 -4
BITMAP
0000000000
0000000000
0020080000
00380e0000
00300c0800
40300c1c00
3ffffffe00
00300c0000
00300c0000
00300c0000
0000000000
1000000c00
1ffffffe00
1000000800
1002001800
3003801000
6002002000
4006004000
1006006000
0ffffff000
0006004000
000400c000
000c00c000
000800c000
001800c000
0030008000
0060018000
00c0018000
0100030000
0600ff0000
38000e0000
4000000000
0000000000
0000000000
0000000000
ENDCHAR
STARTCHAR 2464
ENCODING 9316
SWIDTH 1020 0
DWIDTH 34 0
BBX 34 35 0 -4
BITMAP
0000000000
0000000000
0040020000
0070038000
0060030000
3863030000
3c63c30000
3063030000
3063030000
3063430400
30633fff00
3063030600
3063030400
3063030400
3fff030400
1061030400
1061020c00
0060020c00
0060060c00
3063860c00
3863c60c00
3063040c00
3063040c00
30630c0c00
3063080800
3063180800
3063100800
3063301800
3fff201800
100143f000
1000806000
0001800000
0000000000
0000000000
0000000000
ENDCHAR
STARTCHAR 2465
ENCODING 9317
SWIDTH 1020 0
DWIDTH 34 0
BBX 34 35 0 -4
BITMAP
0000000000
0000000000
0000000800
4000001c00
3ffffffe00
1801000000
1801c00000
1803000000
1803060000
1806010000
180c00c000
181800e000
187fff3000
19fe001800
18880f0800
180e0e0000
180c0c0000
180c0c1000
180c0c3800
1bfffffc00
180c0c0000
18080c0000
18180c0000
18100c0000
18300c0000
18600c0000
18c00c0000
1900040800
1800000c00
1ffffffe00
1800000000
1000000000
0000000000
0000000000
0000000000
ENDCHAR
STARTCHAR 2466
ENCODING 9318
SWIDTH 1020 0
DWIDTH 34 0
BBX 34 35 0 -4
BITMAP
0000000000
0000000000
0000001000
4000001c00
3ffffffc00
1808000000
180e000000
180c000000
1818008000
181801c000
183fffe000
1820400000
1840400000
1880400000
1900400000
1800403000
1bfffffc00
1800c00000
1800c00000
1800b00000
18018c0000
1803060000
1802030000
180401c000
181800c000
1860006000
1980000000
1800000000
0f80001c00
03fffffe00
0000000000
0000000000
0000000000
0000000000
0000000000
ENDCHAR
STARTCHAR 2467
ENCODING 9319
SWIDTH 1020 0
DWIDTH 34 0
BBX 34 35 0 -4
BITMAP
0000000000
0000000000
0070000000
0060080c00
00600ffe00
00600c0c00
00600c0c00
00630c0c00
3fffcc0c00
00600c0c00
00600c0c00
00600c0c00
00600c0c00
00608c0c00
0061cc0c00
7fffec0c00
00c00c0c00
00800c0c00
01800c0c00
01080c0c00
01080c0c00
03040c0c00
02020c0c00
06030c0c00
04030c0c00
05fd8cfc00
7fc18c3800
38008c1000
20008c0000
00000c0000
00000c0000
00000c0000
0000000000
0000000000
0000000000
ENDCHAR
STARTCHAR 2468
ENCODING 9320
SWIDTH 1020 0
DWIDTH 34 0
BBX 34 35 0 -4
BITMAP
0000000000
0000000000
0000001000
0800003800
0ffffffc00
0c00000000
0c00000000
0c00700000
0c00700000
0c00600000
0c00601000
0d00603800
0cfffffc00
0c00000000
0c00010000
0c2001e000
0c1001c000
0c10018000
0810010000
0808010000
0808030000
080c030000
0804020000
0804020000
1806060000
1806040000
1006040000
1002040000
1000080800
2400081c00
43fffffe00
4000000000
0000000000
0000000000
0000000000
ENDCHAR
STARTCHAR 2469
ENCODING 9321
SWIDTH 1020 0
DWIDTH 34 0
BBX 34 35 0 -4
BITMAP
0000000000
0000000000
0000001000
0800003800
0ffffffc00
0c00000000
0c00000000
0c00780000
0c00700000
0c00600000
0c00600000
0c00600800
0c00601800
0dfffffe00
0c00600000
0c00600000
0c00600000
0c00600000
0800600000
0840602000
087ffff000
0860006000
0860006000
0860006000
1860006000
1860006000
1060006000
1060006000
1060006000
207fffe000
4060002000
4020002000
0000000000
0000000000
0000000000
ENDCHAR
STARTCHAR 246a
ENCODING 9322
SWIDTH 1020 0
DWIDTH 34 0
BBX 34 35 0 -4
BITMAP
0000000000
0000000000
0000001000
0800003800
0ffffffc00
0c00000000
0c00000000
0c00000000
0c40003000
0c7ffff800
0c60603000
0c60603000
0c60603000
0c60603000
0c7ffff000
0c60603000
0860603000
0860603000
0860603000
0860603000
087ffff000
0860603000
0840602000
1800600000
1000600000
1000600000
1000600000
3000600000
2000600000
2000200000
4000600000
0000200000
0000000000
0000000000
0000000000
ENDCHAR
STARTCHAR 246b
ENCODING 9323
SWIDTH 1020 0
DWIDTH 34 0
BBX 34 35 0 -4
BITMAP
0000000000
0000000000
0000100000
00001c0000
0000180000
2040180000
3fe0180000
30c0180800
30dffffe00
30c0c00000
30c0c00000
30c0c00000
30c0c00000
30c0c00000
30c0c01000
30c0fffc00
30c0801800
30c0801000
30c0801000
30c1801000
30c1801000
30c1003000
30c3003000
3fc3003000
30c2003000
3006003000
2004002000
0008006000
0010006000
00203fc000
00c0038000
0000000000
0000000000
0000000000
0000000000
ENDCHAR
STARTCHAR 246c
ENCODING 9324
SWIDTH 1020 0
DWIDTH 34 0
BBX 34 35 0 -4
BITMAP
0000000000
0000000000
0000100000
00001e0000
0000180000
2040180000
3fe0180000
30c0183000
30cffffc00
30c0180000
30c0180000
30c0180000
30c0180000
30c0184000
30c0186000
30c7fff000
30c0180000
30c0180000
30c0180000
30c0180000
30c0180000
30c0181800
30dffffe00
3fd0180000
30c0180000
3000180000
2000180000
0000180000
0000180000
0000080000
0000180000
0000080000
0000000000
0000000000
0000000000
ENDCHAR
STARTCHAR 246d
ENCODING 9325
SWIDTH 1020 0
DWIDTH 34 0
BBX 34 35 0 -4
BITMAP
0000000000
0000000000
0000000000
0000000000
0000004000
2048007000
3fe7fff000
30c0000000
30c0000000
30c0000000
30c0000000
30c0000000
30c0000000
30c0001800
30dffffe00
30c0300000
30c0300000
30c0200000
30c0600000
30c0600000
30c0400000
30c0c10000
30c0808000
3fc080c000
30c1006000
3041003000
3003007000
00027f9800
001ff01c00
001c000c00
0008000800
0000000000
0000000000
0000000000
0000000000
ENDCHAR
STARTCHAR 246e
ENCODING 9326
SWIDTH 1020 0
DWIDTH 34 0
BBX 34 35 0 -4
BITMAP
0000000000
0000000000
0000100000
00001e0000
0000180000
2040180000
3fe0180000
30c0181000
30d0181800
30cffffc00
30c03c0000
30c07c0000
30c07c0000
30c07a0000
30c05a0000
30c0da0000
30c0d90000
30c0990000
30c1998000
30c118c000
30c318c000
30c2186000
30c6187000
3fcc183000
30c8181c00
3010181e00
2020180e00
0040180000
0000180000
0000180000
0000180000
0000080000
0000000000
0000000000
0000000000
ENDCHAR
STARTCHAR 246f
ENCODING 9327
SWIDTH 1020 0
DWIDTH 34 0
BBX 34 35 0 -4
BITMAP
0000000000
0000000000
0000200000
00001c0000
0000110000
206010c000
3ff0106000
3060102000
3060100000
3060100800
3060101800
306ffffe00
3060100000
3060100000
3060100000
3060180000
30603e0000
30603c0000
30602c0000
30602c0000
30606c0000
30606c0000
30604c0000
3fe0cc0000
30608c0400
30018c0400
10030c0400
00060c0c00
000c0c0c00
001007fe00
0060000000
0000000000
0000000000
0000000000
0000000000
ENDCHAR
STARTCHAR 2470
ENCODING 9328
SWIDTH 1020 0
DWIDTH 34 0
BBX 34 35 0 -4
BITMAP
0000000000
0000000000
0000000000
0001810000
0001ff8000
2061830000
3ff1830000
3061830000
3061830800
3061030800
3063030800
3062030800
3066038c00
306c01fc00
3078000000
3060002000
306ffff000
3062007000
306200c000
306100c000
3061018000
3060810000
3060c30000
3fe0460000
30602c0000
3000180000
10003c0000
0000e78000
000181e000
0007007e00
0018000c00
0020000000
0000000000
0000000000
0000000000
ENDCHAR
STARTCHAR 2471
ENCODING 9329
SWIDTH 1020 0
DWIDTH 34 0
BBX 34 35 0 -4
BITMAP
0000000000
0000000000
0000000000
0000010000
00001f8000
2040010000
3fe0810000
30c1e10000
30c1808000
30c1808000
30c300c000
30c3004000
30c2006000
30c6003000
30c4101800
30cc1c1e00
30d8300e00
30d0300000
30c0300000
30c0200000
30c0600000
30c0610000
30c0418000
3fc0c0c000
30c0804000
3001802000
200103f000
0003fe3000
001fe01800
0008001800
0008001000
0000000000
0000000000
0000000000
0000000000
ENDCHAR
STARTCHAR 2472
ENCODING 9330
SWIDTH 1020 0
DWIDTH 34 0
BBX 34 35 0 -4
BITMAP
0000000000
0000000000
0000800000
0041c00000
003fc00000
0000800000
0000800000
1000800800
1ffffffc00
1801c01800
1803401800
1803601800
1806301800
180c101800
18081c1800
18180e1800
1820079800
18c001f800
19c0041800
187ffe1800
18600e1800
18600c1800
18600c1800
18600c1800
18600c1800
187ffc1800
1860041800
1820041800
1800001800
180003f800
1800007000
0800002000
0000000000
0000000000
0000000000
ENDCHAR
STARTCHAR 2473
ENCODING 9331
SWIDTH 1020 0
DWIDTH 34 0
BBX 34 35 0 -4
BITMAP
0000000000
0000000000
0000000000
0000040000
1ffffe0000
00600c0000
0060080000
0060181000
00401ff800
00c0301000
0080003000
0180003000
0300002000
0602006000
1803cfc000
2003018000
0003000800
4003001c00
3ffffffe00
0003000000
0003000000
040300c000
07ffffe000
060000c000
060000c000
060000c000
060000c000
060000c000
060000c000
07ffffc000
060000c000
0200000000
0000000000
0000000000
0000000000
ENDCHAR
STARTCHAR 2474
ENCODING 9332
SWIDTH 1020 0
DWIDTH 34 0
BBX 34 35 0 -4
BITMAP
0000000000
0000000000
0000008000
000000f000
000000c000
204100c000
206080c000
3ff060c000
306030c000
306018c000
306008c000
306000c000
306000c000
306300c000
306080c000
306060c000
306030c000
306030c000
306000c800
306000de00
306003f800
3060fec000
3fef80c000
306000c000
306000c000
304000c000
300000c000
000000c000
000000c000
000000c000
000000c000
0000004000
0000000000
0000000000
0000000000
ENDCHAR
STARTCHAR 2475
ENCODING 9333
SWIDTH 1020 0
DWIDTH 34 0
BBX 34 35 0 -4
BITMAP
0000000000
0000000000
0000800000
0000600000
0000300000
20401c0000
3fe0060000
30e0070000
30c0e30000
30c0c00000
30c0c00000
30c0c00000
30c0c00000
30c0c00000
30c4c04000
30c4c02000
30c4c01000
30c4c01800
30c4c00c00
30c4c00c00
30ccc00600
30c8c04600
30c8c04600
3fd8c04200
30d8c04000
3090c04000
2010c04000
0000c04000
0000c0e000
00007fe000
00003f0000
0000000000
0000000000
0000000000
0000000000
ENDCHAR
STARTCHAR 2476
ENCODING 9334
SWIDTH 1020 0
DWIDTH 34 0
BBX 34 35 0 -4
BITMAP
0000000000
0000000000
0000002000
0000003000
000ffff000
2040306000
3fe0306000
30e0306000
30c0306000
30c0306000
30c0306400
30e0306e00
30dffffe00
30c0306000
30c0306000
30c0306000
30c0306000
30c0306000
30c0206000
30c0206000
30cfffe000
30c0402000
30c0402000
3fc0c00000
30c0800000
3001000000
0003000000
0006000000
000c000000
0018000000
0060000000
0000000000
0000000000
0000000000
0000000000
ENDCHAR
STARTCHAR 2477
ENCODING 9335
SWIDTH 1020 0
DWIDTH 34 0
BBX 34 35 0 -4
BITMAP
0000000000
0000000000
0000000000
0000040e00
000ffe0c00
20400e0c00
3fe00c0c00
30e00c0c00
30c00c0c00
30c00c0c00
30c40c0c00
30c7fc0c00
30c40c0c00
30c40c0c00
30c4000c00
30c4000c00
30c4000c00
30cc040c00
30cffe0c00
30cc0c0c00
30c80c0c00
30c00c0c00
30c00c0c00
3fc00c0c00
30c00c0c00
3000080c00
0000080c00
0000180c00
0004180c00
0003f00c00
0000e00800
0000000800
0000000000
0000000000
0000000000
ENDCHAR
STARTCHAR 2478
ENCODING 9336
SWIDTH 1020 0
DWIDTH 34 0
BBX 34 35 0 -4
BITMAP
0000000000
0000000000
0000100000
00001c0000
0000180000
2040180000
3fe0180000
30e0182000
30c8183000
30c7fffc00
30c0180000
30c0180000
30c0180000
30c0180000
30c0180000
30c0180800
30dffffe00
30c0180000
30c0140000
30c0140000
30c0340000
30c0220000
30c0620000
3fc0610000
30c0c10000
3000808000
000100c000
0002006000
0004003800
0018001e00
0020000c00
0040000000
0000000000
0000000000
0000000000
ENDCHAR
STARTCHAR 2479
ENCODING 9337
SWIDTH 1020 0
DWIDTH 34 0
BBX 34 35 0 -4
BITMAP
0000000000
0000000000
0000000000
0007838000
0006030000
2046030000
3fe6030000
30e6030000
30c6030000
30c6030000
30c6030000
30c6030000
30c6030000
30c6330800
30c7fbfe00
30c6030000
30c6030000
30c6030000
30c6030000
30c6030000
30c6030000
30c6030000
30c6030000
3fc6030000
30c6030400
30c6030400
20060b0400
0006730400
0007c30c00
003e03fe00
0018000000
0010000000
0000000000
0000000000
0000000000
ENDCHAR
STARTCHAR 247a
ENCODING 9338
SWIDTH 1020 0
DWIDTH 34 0
BBX 34 35 0 -4
BITMAP
0000000000
0000000000
0000000000
0007009e00
000600fc00
2046019800
3fe6019800
30e6819800
30c6419800
30c6411800
30c6231800
30c6131800
30c6131800
30c60a1800
30c60e1800
30c6061800
30c6061800
30c60e1800
30c60b1800
30c6191800
30c6119800
30c6309800
30c660d800
3fc640d800
30c6805800
30c7801800
2006001800
0006001800
0007fff800
0004000800
0004000800
0000000000
0000000000
0000000000
0000000000
ENDCHAR
STARTCHAR 247b
ENCODING 9339
SWIDTH 1020 0
DWIDTH 34 0
BBX 34 35 0 -4
BITMAP
0000000000
0000000000
0000000000
020000c000
03ffffe000
030000c000
030000c000
030000c000
030000c000
030000c000
030000c000
03ffffc000
030000c000
0300004000
0000000000
000000c000
07ffffe000
0001800000
0001800000
0001001000
2001003800
1ffffffc00
0003800000
0003400000
0006200000
0004300000
00180c0000
0030060000
00c003c000
030000fc00
1c00001e00
6000000000
0000000000
0000000000
0000000000
ENDCHAR
STARTCHAR 247c
ENCODING 9340
SWIDTH 1020 0
DWIDTH 34 0
BBX 34 35 0 -4
BITMAP
0000000000
0000000000
0000000000
0200006000
03ffffe000
030000c000
030000c000
030000c000
030000c000
030000c000
030000c000
03ffffc000
0300004000
031c004000
0030000000
0030000000
0060018000
00ffffc000
00c0010000
0180030000
0000020000
0000061800
3ffffffe00
0000000000
0020000000
00381c0000
0060070000
00c001c000
0380007000
0600003800
1800001800
2000000000
0000000000
0000000000
0000000000
ENDCHAR
STARTCHAR 247d
ENCODING 9341
SWIDTH 1020 0
DWIDTH 34 0
BBX 34 35 0 -4
BITMAP
0000000000
0000000000
0000100000
00000e0000
00000c0000
40400c0000
20600c0000
3fe00c0000
30c80c0400
30cc0c0e00
30cffffe00
30cc0c0c00
30cc080c00
30cc080c00
30cc0c0c00
30cc1a0c00
30cc190c00
30cc118c00
30cc20cc00
30cc20cc00
30cc406c00
30cc806c00
3fcd002c00
304c000c00
304c000c00
300c000c00
000c000c00
000c000c00
000c000c00
000401fc00
0004003800
0004000000
0000000000
0000000000
0000000000
ENDCHAR
STARTCHAR 247e
ENCODING 9342
SWIDTH 1020 0
DWIDTH 34 0
BBX 34 35 0 -4
BITMAP
0000000000
0000000000
0002000000
0003000000
0001800000
0060c00000
0070600000
0460304000
0860302000
0860101000
0860011800
0860010800
1860010c00
1060010400
3060010600
6060010400
0070078000
003fff0000
0000000000
0400002000
0600003000
07fffff000
0600006000
0600006000
0600006000
0600006000
0600006000
0600006000
0600006000
07ffffe000
0600002000
0600002000
0000000000
0000000000
0000000000
ENDCHAR
STARTCHAR 2521
ENCODING 9505
SWIDTH 1020 0
DWIDTH 34 0
BBX 34 35 0 -4
BITMAP
0000000000
0000000000
0001000000
0041c00000
0071800000
00c1800000
00c1808000
018180c000
01fffff000
0301800000
0201800000
0401800000
0801800000
1001800000
0001800800
4001801e00
3ffffffe00
0001800000
0001800000
0200008000
030000c000
03ffffe000
030000c000
030000c000
030000c000
030000c000
030000c000
030000c000
030000c000
03ffffc000
030000c000
0100000000
0000000000
0000000000
0000000000
ENDCHAR
STARTCHAR 2522
ENCODING 9506
SWIDTH 1020 0
DWIDTH 34 0
BBX 34 35 0 -4
BITMAP
0000000000
0000000000
0000010000
0000078000
0000fe4000
003fe00000
1fe3000000
0002000000
0006000000
0004000800
000c001c00
7ffffffe00
0018100000
0030180000
00600c0000
00c0060000
0180030000
030000c000
0780037000
1dffffbe00
3180030c00
4180030000
0180030000
0180030000
0180030000
0180030000
0180030000
0180030000
0180030000
01ffff0000
0180030000
0080020000
0000000000
0000000000
0000000000
ENDCHAR
STARTCHAR 2523
ENCODING 9507
SWIDTH 1020 0
DWIDTH 34 0
BBX 34 35 0 -4
BITMAP
0000000000
0000000000
0000400000
0000700000
0000c00000
4040c00000
2060800000
3fe1800000
30c1800800
30c1001c00
30c3fffe00
30c3006000
30c7004000
30c5004000
30cd80c000
30c880c000
30d0808000
30d0818000
30c0418000
30c0410000
30c0230000
30c0260000
3fc0140000
30401c0000
30401c0000
3000360000
0000438000
000181c000
000700f000
001c007c00
0070001e00
0000000000
0000000000
0000000000
0000000000
ENDCHAR
STARTCHAR 2524
ENCODING 9508
SWIDTH 1020 0
DWIDTH 34 0
BBX 34 35 0 -4
BITMAP
0000000000
0000000000
0000018000
00000fc000
0407ffe000
07fe000000
0600000000
0600000000
0600003000
07fffff800
0600003000
0600003000
0600003000
0600003000
0400003000
0400003000
07fffff000
0400002000
0400000000
0400000000
0d00001000
0dfffffc00
0d80001800
0980001800
0980001800
0980001800
1180001800
1180001800
2180001800
21fffff800
4180001800
0080001000
0000000000
0000000000
0000000000
ENDCHAR
STARTCHAR 2525
ENCODING 9509
SWIDTH 1020 0
DWIDTH 34 0
BBX 34 35 0 -4
BITMAP
0000000000
0000000000
0000001000
0010001800
000ffffc00
2040300000
3fe0300000
30e0200000
30c0200000
30c0200000
30c0200000
30c0600000
30c0602000
30c0603000
30cffff000
30c0406000
30c0406000
30c0c06000
30c0c06000
30c0c06000
30c0c06000
30c0806000
30c0806000
3fc0806000
30c1806000
3001806000
0001806000
0001806800
0001006c00
007ffffe00
0000000000
0000000000
0000000000
0000000000
0000000000
ENDCHAR
STARTCHAR 2526
ENCODING 9510
SWIDTH 1020 0
DWIDTH 34 0
BBX 34 35 0 -4
BITMAP
0000000000
0000000000
0000000000
1000000800
1ffffffc00
1800001800
1800001800
1800041800
1800061800
18ffff1800
1800001800
1800001800
1800001800
1800011800
1800019800
1bffffd800
1803001800
1803001800
1806001800
1806181800
18040c1800
1808061800
1818021800
1810031800
1827fd9800
1bff819800
198000d800
1900009800
1800001800
1ffffff800
1800000800
1000000000
0000000000
0000000000
0000000000
ENDCHAR
STARTCHAR 2527
ENCODING 9511
SWIDTH 1020 0
DWIDTH 34 0
BBX 34 35 0 -4
BITMAP
0000000000
0000000000
0000000000
1000000800
1ffffffc00
1800001800
1810101800
180e1c1800
180c181800
180c181800
180c191800
190c199800
19ffffd800
1808181800
1808181800
1808181800
1808181800
1818199800
1bfffff800
1810181800
1810181800
1830181800
1820181800
1860181800
1840181800
1880181800
1900181800
1800001800
1800001800
1ffffff800
1800000800
1000000000
0000000000
0000000000
0000000000
ENDCHAR
STARTCHAR 2528
ENCODING 9512
SWIDTH 1020 0
DWIDTH 34 0
BBX 34 35 0 -4
BITMAP
0000000000
0000000000
0000000000
1000000800
1ffffffc00
1800001800
1801001800
1801811800
1860c19800
183061d800
1a18631800
190c321800
190c261800
1884041800
18c00c1800
1840081800
1820181800
1810101800
1808301800
1804601800
1806c01800
1801801800
1803c01800
1804701800
18181f9800
186007f800
1b80019800
1800001800
1800001800
1ffffff800
1800000800
1000000000
0000000000
0000000000
0000000000
ENDCHAR
STARTCHAR 2529
ENCODING 9513
SWIDTH 1020 0
DWIDTH 34 0
BBX 34 35 0 -4
BITMAP
0000000000
0000000000
0000000000
1000000800
1ffffffc00
1800001800
1800001800
1800021800
1800031800
19ffff9800
1801801800
1801801800
1801801800
1801801800
1801801800
1801861800
18ffff1800
1801801800
1801801800
1801801800
1801801800
1801801800
1801811800
1a01819800
19ffffd800
1800001800
1800001800
1800001800
1800001800
1ffffff800
1800000800
1000000000
0000000000
0000000000
0000000000
ENDCHAR
STARTCHAR 252a
ENCODING 9514
SWIDTH 1020 0
DWIDTH 34 0
BBX 34 35 0 -4
BITMAP
0000000000
0000000000
0000000000
1000000800
1ffffffc00
1800001800
1800001800
1800041800
18800e1800
187fff1800
1800001800
1800001800
1800001800
1800019800
1bffffd800
1a04601800
180c601800
180c601800
180c601800
180c609800
1808609800
1808609800
1810609800
1830609800
1820609800
18403fd800
19801f1800
1900001800
1800001800
1ffffff800
1800000800
1000000000
0000000000
0000000000
0000000000
ENDCHAR
STARTCHAR 252b
ENCODING 9515
SWIDTH 1020 0
DWIDTH 34 0
BBX 34 35 0 -4
BITMAP
0000000000
0000000000
0000000000
1000001000
1ffffffc00
1818183800
1818183000
1818183000
1818183000
1818183000
1818183000
1818183000
181ff83000
1818183000
1818183000
1818183000
1818183000
1818183000
1818183000
1818183000
181ff83000
1818183000
1818183000
1818183000
1818183000
1818183000
1818183000
1818183000
1ffffff000
0800001000
0800001000
0000000000
0000000000
0000000000
0000000000
ENDCHAR
STARTCHAR 252c
ENCODING 9516
SWIDTH 1020 0
DWIDTH 34 0
BBX 34 35 0 -4
BITMAP
0000000000
0000000000
0000000000
1000000800
1ffffffc00
1800001800
1801001800
1801e01800
1801801800
1801801800
1801801800
1801831800
1809839800
1bffc61800
181dcc1800
1819b01800
1811a01800
1831901800
1821981800
18618c1800
1841861800
1881839800
190181f800
1a01809800
1c19801800
1807801800
1803001800
1800001800
1800001800
1ffffff800
1800000800
1000000000
0000000000
0000000000
0000000000
ENDCHAR
STARTCHAR 252d
ENCODING 9517
SWIDTH 1020 0
DWIDTH 34 0
BBX 34 35 0 -4
BITMAP
0000000000
0000000000
0000000000
0604000800
0707fffe00
0604000e00
0608001800
0608003000
0618002000
0618000000
0600040000
0641c38000
7ff1830000
0601830000
0601830000
0601830000
0601830000
0601830000
0601830000
0601830000
0601830000
0601830000
0631030000
06c1030000
0783030400
0e02030400
7c06030400
7004030400
2008030400
001003fe00
00e001f800
0000000000
0000000000
0000000000
0000000000
ENDCHAR
STARTCHAR 252e
ENCODING 9518
SWIDTH 1020 0
DWIDTH 34 0
BBX 34 35 0 -4
BITMAP
0000000000
0000000000
0000000000
0600002000
0707fff000
0600007800
060000e000
0600808000
0600610000
0600160000
06000c0000
06c00c0000
7ff0060000
0610000c00
060ffffe00
06000c0c00
06000c1800
06000c3000
06000c6000
06000c0000
06000c0000
06000c0000
06300c0000
06c00c0000
07800c0000
0e000c0000
7c000c0000
70000c0000
20000c0000
0001fc0000
0000300000
0000000000
0000000000
0000000000
0000000000
ENDCHAR
STARTCHAR 252f
ENCODING 9519
SWIDTH 1020 0
DWIDTH 34 0
BBX 34 35 0 -4
BITMAP
0000000000
0000000000
0001000000
0601810000
0701ff8000
0601830000
0601830000
0601830000
0601830400
0601030400
0601030400
0643030400
7ff2038e00
060401fc00
060c000000
0610000000
0600006000
060ffff000
0601007000
060100c000
060081c000
0600818000
0630430000
06c0630000
0780360000
0e001c0000
7c003e0000
7000678000
200181f000
0006007e00
0078000c00
0000000000
0000000000
0000000000
0000000000
ENDCHAR
STARTCHAR 2530
ENCODING 9520
SWIDTH 1020 0
DWIDTH 34 0
BBX 34 35 0 -4
BITMAP
0000000000
0000000000
0000100000
06001c0000
0700180000
0600340000
0600340000
0600620000
0600630000
0600c18000
0640808000
8661806000
7ff3007000
0607003800
060ce1de00
0618c1e400
0610c18000
0600c18000
0600c18000
0600c18000
0600c18000
0600c18000
0630818000
06c0818000
0781818000
0e01018000
7c01018000
7003018000
2002018000
0004018000
0008018000
0010000000
0000000000
0000000000
0000000000
ENDCHAR
STARTCHAR 2531
ENCODING 9521
SWIDTH 1020 0
DWIDTH 34 0
BBX 34 35 0 -4
BITMAP
0000000000
0000000000
0400004000
060000e000
07ffffe000
060000c000
060000c000
060000c000
060000c000
060000c000
07ffffc000
060000c000
060000c000
060000c000
060000c000
060000c000
07ffffc000
060000c000
060200c000
0001c00000
0001800000
0001804000
0001806000
0ffffff000
0001800000
0001800000
0001800000
0001800000
0001801800
7ffffffe00
4000000000
0000000000
0000000000
0000000000
0000000000
ENDCHAR
STARTCHAR 2532
ENCODING 9522
SWIDTH 1020 0
DWIDTH 34 0
BBX 34 35 0 -4
BITMAP
0000000000
0000000000
0040080000
00780f0000
00600c0000
00200c2000
20200c3000
1ffffff800
00600c0000
00600c0000
00600c0000
00600c0000
00600c0800
40600c1c00
3ffffffe00
00400c0000
00c00c0000
00800c0000
03000c0000
06018c0000
1801c00000
0001800000
000180c000
07ffffe000
0001800000
0001800000
0001800000
0001800000
0001801800
7ffffffe00
4000000000
0000000000
0000000000
0000000000
0000000000
ENDCHAR
STARTCHAR 2533
ENCODING 9523
SWIDTH 1020 0
DWIDTH 34 0
BBX 34 35 0 -4
BITMAP
0000000000
0000000000
0000008000
080000e000
07ffffe000
0000000000
0000000000
0000000000
0000000800
4000001c00
3ffffffe00
0018300000
0010300000
0030300000
0030300400
0060300400
0040300400
0180300400
0302380e00
0c01cffe00
7001800000
0001808000
000181c000
07ffffe000
0001800000
0001800000
0001800000
0001800000
0001800800
8001801c00
7ffffffe00
0000000000
0000000000
0000000000
0000000000
ENDCHAR
STARTCHAR 2534
ENCODING 9524
SWIDTH 1020 0
DWIDTH 34 0
BBX 34 35 0 -4
BITMAP
0000000000
0000000000
0000008000
038000f000
030000c000
030180c000
030060c000
030030c000
030018c000
030008c000
036000c000
7ff000c000
030000c000
030300c000
0300c0c000
030060c000
030030c000
030010c000
030000c000
030000c000
030000c800
031400cc00
0327fffe00
03c000c000
038000c000
0e0000c000
7c0000c000
300000c000
200000c000
000000c000
000000c000
0000004000
0000000000
0000000000
0000000000
ENDCHAR
STARTCHAR 2535
ENCODING 9525
SWIDTH 1020 0
DWIDTH 34 0
BBX 34 35 0 -4
BITMAP
0000000000
0000000000
0000100000
03800e0000
03000c0000
03000c0000
03000c0800
03100c1c00
030ffffe00
0301006000
0361004000
7ff1004000
0300804000
030080c000
030080c000
0300808000
0300418000
0300418000
0300610000
0300230000
0300320000
0310160000
03300c0000
03400c0000
03801e0000
0f00330000
7c00618000
300080e000
2003007800
0006003c00
0018000e00
0020000000
0000000000
0000000000
0000000000
ENDCHAR
STARTCHAR 2536
ENCODING 9526
SWIDTH 1020 0
DWIDTH 34 0
BBX 34 35 0 -4
BITMAP
0000000000
0000000000
0000000000
0380008000
030000e000
0303ffe000
0300000000
0300000000
0300000000
0300000000
0360000000
7ff0000000
0300001000
0310001c00
030ffffc00
0300c60000
0300c60000
0300c60000
0300860000
0300860000
0300860000
0310860000
0331860000
0341060000
0381060400
0f02060400
7c06060400
3004060600
2008060600
001007ff00
00e000f800
0000000000
0000000000
0000000000
0000000000
ENDCHAR
STARTCHAR 2537
ENCODING 9527
SWIDTH 1020 0
DWIDTH 34 0
BBX 34 35 0 -4
BITMAP
0000000000
0000000000
0000000000
0380001800
030ffffc00
0300400000
0300400000
0300c00000
0300c00000
0300c00000
0360c02000
7ff0807000
0301fff800
0301806000
0301806000
0301806000
0301004000
0303004000
030300c000
030300c000
030200c000
031200c000
0337ff8000
0346018000
0386018000
0f00018000
7c00018000
3000010000
2000010800
0020031c00
001ffffe00
0000000000
0000000000
0000000000
0000000000
ENDCHAR
STARTCHAR 2538
ENCODING 9528
SWIDTH 1020 0
DWIDTH 34 0
BBX 34 35 0 -4
BITMAP
0000000000
0000000000
0000200000
0380380000
0300300000
0300300000
0300300000
0300302000
030ffff000
0300306000
0360306000
7ff0306000
0300306000
0300306000
0300306000
0300306000
0300306800
0320306e00
031ffffe00
0300280000
0300240000
0310640000
0330460000
0340c20000
0380c10000
0f01818000
7c0300c000
3002006000
2004003800
0018001e00
0060000c00
0080000000
0000000000
0000000000
0000000000
ENDCHAR
STARTCHAR 2539
ENCODING 9529
SWIDTH 1020 0
DWIDTH 34 0
BBX 34 35 0 -4
BITMAP
0000000000
0000000000
0004000000
0387878000
0306070000
0306060000
0306060000
0306060000
0306060000
0306060000
0366060000
7ff6060000
0306660c00
0307fffe00
0306060000
0306060000
0306060000
0306060000
0306060000
0306060000
0306060000
0316060000
0336060000
0346060400
0386060400
0f06060400
7c063e0400
3006e60400
200f860400
003c03fe00
003001f000
0010000000
0000000000
0000000000
0000000000
ENDCHAR
STARTCHAR 253a
ENCODING 9530
SWIDTH 1020 0
DWIDTH 34 0
BBX 34 35 0 -4
BITMAP
0000000000
0000000000
0000000000
0780006000
070001f000
0600070000
06003c0000
060fd80000
0600180000
0600180000
0660180000
7ff0182000
0600183000
060ffff800
0600180000
0600180000
0600180000
0600180000
0600180800
0610181e00
060ffffe00
0600180000
0600180000
0630180000
06c0180400
0780180400
7e00180400
3800180400
2000180c00
00000ffe00
000001f800
0000000000
0000000000
0000000000
0000000000
ENDCHAR
STARTCHAR 253b
ENCODING 9531
SWIDTH 1020 0
DWIDTH 34 0
BBX 34 35 0 -4
BITMAP
0000000000
0000000000
0000800000
0380700000
0300e00000
0300c00000
0300800800
0301801e00
0301fffe00
0303000000
0362100000
7ff41c0000
0304180000
0308180000
0310180000
0300180800
030ffffe00
0300100c00
0300100800
0300301800
0300301800
0310201800
0330601800
0340401800
0380c01800
0f00801000
7c01001000
3002003000
2004007000
00181fe000
006003c000
0000000000
0000000000
0000000000
0000000000
ENDCHAR
STARTCHAR 253c
ENCODING 9532
SWIDTH 1020 0
DWIDTH 34 0
BBX 34 35 0 -4
BITMAP
0000000000
0000000000
0000800000
0380e00000
0300c00000
0300800000
0301800000
0301800800
0301001c00
0303fffe00
036300c000
7ff300c000
030680c000
030480c000
030c808000
0308808000
0310418000
0320418000
0320210000
0300230000
0300130000
03101e0000
03300e0000
03400c0000
03801e0000
0f00138000
7c0021c000
3000c0f000
2003003c00
000e001e00
0070000400
0080000000
0000000000
0000000000
0000000000
ENDCHAR
STARTCHAR 253d
ENCODING 9533
SWIDTH 1020 0
DWIDTH 34 0
BBX 34 35 0 -4
BITMAP
0000000000
0000000000
0000000000
0380e00000
0300e00000
0300800000
0301800000
0301000c00
0301fffe00
0303000c00
0362000c00
7ff6000c00
0304000c00
0308300c00
0308380800
0310200800
0300600800
0300600800
0300440800
0300c20800
0300830800
0310830800
03313f9800
0347e09800
0386009800
0f04001800
7c00001000
3000003000
2000003000
00000ef000
000001e000
0000008000
0000000000
0000000000
0000000000
ENDCHAR
STARTCHAR 253e
ENCODING 9534
SWIDTH 1020 0
DWIDTH 34 0
BBX 34 35 0 -4
BITMAP
0000000000
0000000000
0000000000
0380e00000
0300f00000
0300800000
0301800000
0301800c00
0301fffe00
0303188c00
0362188c00
7ff4118c00
030c318c00
0308310c00
0310210c00
0300630800
0300430800
0300c20800
0300860800
0301040800
03030c0800
0312081800
0324181800
03c8101800
0390201800
0e00401000
7c00c01000
3001803000
2003007000
00040fe000
000001c000
0000000000
0000000000
0000000000
0000000000
ENDCHAR
STARTCHAR 253f
ENCODING 9535
SWIDTH 1020 0
DWIDTH 34 0
BBX 34 35 0 -4
BITMAP
0000000000
0000000000
0000000000
0781800000
0701c00800
0601100c00
06030ffe00
0603000c00
0602000c00
0602000c00
0666600c00
7ff4780c00
060c600c00
0628600800
0610400800
0608400800
060cc00800
0606800800
0602800800
0601800800
0601000800
0601400800
0633201800
0642101800
0786101800
0f04381800
7c0bd81800
303f081000
2018083000
001003f000
000000e000
0000008000
0000000000
0000000000
0000000000
ENDCHAR
STARTCHAR 2540
ENCODING 9536
SWIDTH 1020 0
DWIDTH 34 0
BBX 34 35 0 -4
BITMAP
0000000000
0000000000
0400001000
070000f800
06021fe400
0603e00000
0602000000
0602000000
0602000000
0642000000
0662000000
7ff2001000
0603fffc00
0602401800
0602403000
0606403000
0606203000
0606202000
0606206000
0604106000
0604104000
063c08c000
06cc098000
0708058000
7c18070000
3010070000
20301d8000
002030e000
0040607800
0083803e00
011c000e00
0000000000
0000000000
0000000000
0000000000
ENDCHAR
STARTCHAR 2541
ENCODING 9537
SWIDTH 1020 0
DWIDTH 34 0
BBX 34 35 0 -4
BITMAP
0000000000
0000000000
0001000000
0001e00000
0001800000
0001804000
0001806000
0019c0f000
1ffde18000
0019a60000
0031980000
0061880000
00c1860000
0181830000
030181c000
0c0180f800
303f803e00
4007800800
0002000000
0000000000
0001c00000
0001c00000
0001818000
07ffffe000
0401800000
0001800000
0001800000
0001800000
0001800800
8001801c00
7ffffffe00
0000000000
0000000000
0000000000
0000000000
ENDCHAR
STARTCHAR 2542
ENCODING 9538
SWIDTH 1020 0
DWIDTH 34 0
BBX 34 35 0 -4
BITMAP
0000000000
0000000000
0000004000
00000ff000
01ffff0000
0181810000
0181810000
0101810000
0101810000
0101810000
0101808000
0101808000
0301808000
0201804000
0201806000
0401803000
0c01803800
1001800e00
6000000400
0001000000
0001e00000
0001808000
000181c000
07ffffe000
0001800000
0001800000
0001800000
0001800000
0001801800
7ffffffe00
4000000000
0000000000
0000000000
0000000000
0000000000
ENDCHAR
STARTCHAR 2543
ENCODING 9539
SWIDTH 1020 0
DWIDTH 34 0
BBX 34 35 0 -4
BITMAP
0000000000
0000000000
0001c00000
0001e00000
0001800800
2001801c00
1ffffffe00
0001800000
0001800000
0001802000
0801807000
07fffff800
0000000000
0800000000
0800000c00
0ffffffe00
1000000800
1078001000
3070032000
0060078000
00601c0000
0060700000
0063800000
007c000000
0060001000
0060001000
0060002000
0060003000
0060003000
003ffff800
0000000000
0000000000
0000000000
0000000000
0000000000
ENDCHAR
STARTCHAR 2544
ENCODING 9540
SWIDTH 1020 0
DWIDTH 34 0
BBX 34 35 0 -4
BITMAP
0000000000
0000000000
0001000000
0001c00000
0001801000
4001801c00
3ffffffc00
0001800000
0001800000
000180c000
07ffffe000
0000000000
0000000000
0800000800
0ffffffe00
0800001800
1800001000
3000002000
301c3c0000
0018380000
0018300000
0010300000
0010300000
0030300000
0030300400
0020300400
0060300400
00c0300400
0180300e00
06001ffe00
380007f800
0000000000
0000000000
0000000000
0000000000
ENDCHAR
STARTCHAR 2545
ENCODING 9541
SWIDTH 1020 0
DWIDTH 34 0
BBX 34 35 0 -4
BITMAP
0000000000
0000000000
0001000000
0001e00000
0001800800
0001801c00
3ffffffe00
0001800000
0001800000
0001804000
0801806000
07fffff000
0000000000
0000002000
0600003000
07fffff000
0601806000
0201806000
0601806000
0601806000
0601806000
07ffffe000
0600002000
0600002000
0600000000
0400000000
0c00000000
0800000000
1800000000
3000000000
6000000000
0000000000
0000000000
0000000000
0000000000
ENDCHAR
STARTCHAR 2546
ENCODING 9542
SWIDTH 1020 0
DWIDTH 34 0
BBX 34 35 0 -4
BITMAP
0000000000
0000000000
0008000000
000e000000
0018180000
0018060000
0030030000
006000c000
00ffffe000
1ffe303000
0830300000
0020300800
0060300800
00c0300800
0180380c00
030e1ffc00
0c18000000
7018020000
0230030000
037fff8000
01e0060000
01c00c0000
0360180000
0610300000
380c700000
0003e00000
0001c00000
00067c0000
00380f8000
00e001fe00
0f00003800
3000000000
0000000000
0000000000
0000000000
ENDCHAR
STARTCHAR 2547
ENCODING 9543
SWIDTH 1020 0
DWIDTH 34 0
BBX 34 35 0 -4
BITMAP
0000000000
0000000000
0001000000
0001c00000
0001804000
1001807000
0ffffff000
0001800000
0001800000
0001818000
07ffffc000
0001800000
0001800000
0001800800
4001801c00
3ffffffe00
0008000000
001e000000
0118020000
00bfff8000
0060078000
00600e0000
01900c0000
030c180000
0606300000
1801e00000
0001e00000
00073c0000
001c0ff000
00e001fe00
0f00001800
7000000000
0000000000
0000000000
0000000000
ENDCHAR
STARTCHAR 2548
ENCODING 9544
SWIDTH 1020 0
DWIDTH 34 0
BBX 34 35 0 -4
BITMAP
0000000000
0000000000
0006000000
0007800000
0006000000
100c001000
1808001800
1ffffffc00
1800001800
1807001800
1806001800
1804001800
180c011800
180fffd800
1818031800
1830021800
1830061800
1848041800
18840c1800
1906181800
1803301800
1802601800
1800c01800
1801001800
1806001800
1818001800
1860001800
1880001800
1800001800
1ffffff800
1800001800
0800001000
0000000000
0000000000
0000000000
ENDCHAR
STARTCHAR 2549
ENCODING 9545
SWIDTH 1020 0
DWIDTH 34 0
BBX 34 35 0 -4
BITMAP
0000000000
0000000000
0001000000
0003c00000
0003000000
0002001800
7ffffffc00
400c200000
0008100000
0018080000
00300c0000
0060070000
00c0018000
03000ce000
067ffe7800
0c00001e00
3000000800
4000000000
0000000800
2000001c00
3ffffffc00
0006000000
000c080000
0008040000
0010020000
0030010000
0060018000
00407fc000
0fffe06000
07e0006000
0400002000
0000000000
0000000000
0000000000
0000000000
ENDCHAR
STARTCHAR 254a
ENCODING 9546
SWIDTH 1020 0
DWIDTH 34 0
BBX 34 35 0 -4
BITMAP
0000000000
0000000000
0001000000
0003c00000
0003000000
0002001800
7ffffffc00
400c200000
0008100000
0010080000
0030060000
0060030000
00c101c000
0301c0f000
0601803e00
0801801c00
3001800000
4001801800
3ffffffc00
0001800000
0001800000
0001800000
0081800000
00e1860000
00c1810000
018180c000
0301806000
0601803000
0c01803800
3001801000
0001800000
0000000000
0000000000
0000000000
0000000000
ENDCHAR
STARTCHAR 254b
ENCODING 9547
SWIDTH 1020 0
DWIDTH 34 0
BBX 34 35 0 -4
BITMAP
0000000000
0000000000
0200100000
03c01e0000
0300180000
0200180000
0200181000
0608181c00
0607fffc00
4630000000
7ff0000000
0420000000
0c21010000
0821ff8000
082081c000
1860818000
1040818000
1040818000
3040818000
30c0818000
3880818000
6681818000
0381818400
01c1818400
0261018400
0633018400
0412018400
0806018400
100c018600
201801fe00
4020007c00
0000000000
0000000000
0000000000
0000000000
ENDCHAR
STARTCHAR 254c
ENCODING 9548
SWIDTH 1020 0
DWIDTH 34 0
BBX 34 35 0 -4
BITMAP
0000000000
0000000000
0200808000
03c070f000
020060c000
020060c000
020060c000
060060c000
060060c800
463460cc00
7ff3fffe00
042060c000
0c2060c000
0c2060c000
082060c000
186060c000
184060c000
104060c000
104060cc00
30cffffe00
388040c000
668040c000
2380c0c000
01c080c000
026080c000
063180c000
041100c000
080200c000
100600c000
200800c000
401000c000
0000004000
0000000000
0000000000
0000000000
ENDCHAR
STARTCHAR 254d
ENCODING 9549
SWIDTH 1020 0
DWIDTH 34 0
BBX 34 35 0 -4
BITMAP
0000000000
0000000000
0200200000
03c01c0000
0300190000
030018c000
0200186000
0200183000
0600182000
4630181000
7ff0181800
0427fffc00
0420100000
0c20100000
0820100000
0860140000
1840370000
1840360000
1040260000
30c0260000
3880260000
2680660000
6380460000
01c0c60000
0260860400
0631860400
0413060400
0806060400
100c060400
201807fe00
406001f800
0040000000
0000000000
0000000000
0000000000
ENDCHAR
STARTCHAR 254e
ENCODING 9550
SWIDTH 1020 0
DWIDTH 34 0
BBX 34 35 0 -4
BITMAP
0000000000
0000000000
0200200000
03c01c0000
0300180000
0300180000
0200180000
0200182000
0607fff000
4630187000
7ff0186000
0420186000
0420186000
0c20186000
0820186000
0860186000
1840186800
1050106e00
104ffffe00
30c0380000
3880380000
2680240000
6380660000
01c0620000
0260430000
0630818000
041180c000
0803006000
1006007800
200c001e00
4030000800
0040000000
0000000000
0000000000
0000000000
ENDCHAR
STARTCHAR 254f
ENCODING 9551
SWIDTH 1020 0
DWIDTH 34 0
BBX 34 35 0 -4
BITMAP
0000000000
0000000000
0200400000
03c0700000
0300400000
0300400000
0200c00000
0200800400
0600fffe00
4631000c00
7ff1000c00
0422000c00
0c22000c00
0c24000c00
0828020c00
1862070c00
1841ff8c00
1040000800
1040000800
30c0000800
3880000800
6680000800
2380030800
01c7ff9800
0260001800
0630001800
0410001000
0800003000
1000003000
20001ff000
400003c000
0000010000
0000000000
0000000000
0000000000
ENDCHAR
ENDFONT
